<svg width="17" height="17" viewBox="0 0 17 17" fill="none" xmlns="http://www.w3.org/2000/svg">
<path d="M15.3348 9.06092C15.1986 8.90582 15.1234 8.70644 15.1234 8.49999C15.1234 8.29355 15.1986 8.09417 15.3348 7.93907L16.4227 6.71524C16.5426 6.58152 16.617 6.41328 16.6353 6.23463C16.6536 6.05599 16.6149 5.87614 16.5247 5.72087L14.8249 2.78028C14.7356 2.62519 14.5996 2.50226 14.4363 2.42901C14.273 2.35576 14.0908 2.33592 13.9155 2.37233L12.3177 2.69529C12.1144 2.7373 11.9028 2.70344 11.7227 2.6001C11.5427 2.49676 11.4067 2.3311 11.3404 2.13436L10.822 0.579077C10.7649 0.410272 10.6563 0.263655 10.5114 0.15995C10.3665 0.0562444 10.1927 0.000695882 10.0146 0.00115581H6.61503C6.4297 -0.0085176 6.24629 0.0427375 6.09283 0.147093C5.93937 0.251448 5.82428 0.403167 5.76515 0.579077L5.28921 2.13436C5.22292 2.3311 5.08691 2.49676 4.90686 2.6001C4.7268 2.70344 4.51515 2.7373 4.31184 2.69529L2.67157 2.37233C2.50546 2.34886 2.33612 2.37507 2.18488 2.44767C2.03364 2.52026 1.90727 2.63599 1.82168 2.78028L0.121917 5.72087C0.0294153 5.8744 -0.0121762 6.05325 0.00308809 6.23184C0.0183524 6.41044 0.089691 6.57963 0.206905 6.71524L1.28626 7.93907C1.42251 8.09417 1.49765 8.29355 1.49765 8.49999C1.49765 8.70644 1.42251 8.90582 1.28626 9.06092L0.206905 10.2848C0.089691 10.4204 0.0183524 10.5896 0.00308809 10.7681C-0.0121762 10.9467 0.0294153 11.1256 0.121917 11.2791L1.82168 14.2197C1.91101 14.3748 2.047 14.4977 2.2103 14.571C2.37359 14.6442 2.55583 14.6641 2.73106 14.6277L4.32884 14.3047C4.53215 14.2627 4.7438 14.2966 4.92386 14.3999C5.10391 14.5032 5.23992 14.6689 5.30621 14.8656L5.82464 16.4209C5.88377 16.5968 5.99886 16.7485 6.15232 16.8529C6.30579 16.9573 6.48919 17.0085 6.67452 16.9988H10.0741C10.2522 16.9993 10.426 16.9437 10.5709 16.84C10.7158 16.7363 10.8244 16.5897 10.8814 16.4209L11.3999 14.8656C11.4662 14.6689 11.6022 14.5032 11.7822 14.3999C11.9623 14.2966 12.1739 14.2627 12.3772 14.3047L13.975 14.6277C14.1502 14.6641 14.3325 14.6442 14.4958 14.571C14.6591 14.4977 14.7951 14.3748 14.8844 14.2197L16.5842 11.2791C16.6744 11.1239 16.7131 10.944 16.6948 10.7654C16.6765 10.5867 16.6021 10.4185 16.4822 10.2848L15.3348 9.06092ZM14.0685 10.1998L14.7484 10.9647L13.6606 12.8514L12.6577 12.6474C12.0456 12.5223 11.4089 12.6263 10.8684 12.9396C10.3278 13.253 9.9212 13.7538 9.7256 14.3472L9.40265 15.2991H7.22695L6.92099 14.3302C6.72539 13.7368 6.31874 13.236 5.77824 12.9226C5.23773 12.6093 4.60099 12.5053 3.98889 12.6304L2.98603 12.8344L1.88118 10.9562L2.56108 10.1913C2.97919 9.72381 3.21034 9.11865 3.21034 8.4915C3.21034 7.86434 2.97919 7.25918 2.56108 6.79173L1.88118 6.02683L2.96903 4.15709L3.97189 4.36106C4.58399 4.48618 5.22073 4.38221 5.76124 4.06887C6.30175 3.75553 6.70839 3.25465 6.90399 2.66129L7.22695 1.70092H9.40265L9.7256 2.66979C9.9212 3.26314 10.3278 3.76403 10.8684 4.07737C11.4089 4.3907 12.0456 4.49468 12.6577 4.36956L13.6606 4.16559L14.7484 6.05233L14.0685 6.81722C13.6551 7.28361 13.4268 7.88526 13.4268 8.50849C13.4268 9.13173 13.6551 9.73338 14.0685 10.1998V10.1998ZM8.3148 5.10046C7.64243 5.10046 6.98517 5.29984 6.42612 5.67338C5.86707 6.04693 5.43134 6.57786 5.17404 7.19905C4.91673 7.82023 4.84941 8.50377 4.98058 9.16321C5.11175 9.82266 5.43553 10.4284 5.91096 10.9038C6.3864 11.3793 6.99214 11.703 7.65158 11.8342C8.31103 11.9654 8.99456 11.8981 9.61574 11.6408C10.2369 11.3835 10.7679 10.9477 11.1414 10.3887C11.515 9.82962 11.7143 9.17236 11.7143 8.49999C11.7143 7.59838 11.3562 6.7337 10.7186 6.09616C10.0811 5.45862 9.21641 5.10046 8.3148 5.10046V5.10046ZM8.3148 10.1998C7.97861 10.1998 7.64998 10.1001 7.37046 9.9133C7.09093 9.72653 6.87307 9.46106 6.74442 9.15047C6.61576 8.83987 6.5821 8.49811 6.64769 8.16839C6.71328 7.83866 6.87516 7.53579 7.11288 7.29808C7.3506 7.06036 7.65347 6.89847 7.98319 6.83289C8.31291 6.7673 8.65468 6.80096 8.96527 6.92961C9.27586 7.05826 9.54133 7.27613 9.7281 7.55565C9.91487 7.83518 10.0146 8.16381 10.0146 8.49999C10.0146 8.9508 9.83548 9.38314 9.51671 9.70191C9.19795 10.0207 8.7656 10.1998 8.3148 10.1998Z" fill="#424C5D"/>
</svg>
