<svg width="17" height="17" viewBox="0 0 17 17" fill="none" xmlns="http://www.w3.org/2000/svg">
<path d="M14.4497 1.69997H12.7498V0.849983C12.7498 0.624554 12.6602 0.408357 12.5008 0.248954C12.3414 0.0895515 12.1252 0 11.8998 0C11.6743 0 11.4581 0.0895515 11.2987 0.248954C11.1393 0.408357 11.0498 0.624554 11.0498 0.849983V1.69997H5.94988V0.849983C5.94988 0.624554 5.86033 0.408357 5.70093 0.248954C5.54153 0.0895515 5.32533 0 5.0999 0C4.87447 0 4.65827 0.0895515 4.49887 0.248954C4.33947 0.408357 4.24992 0.624554 4.24992 0.849983V1.69997H2.54995C1.87366 1.69997 1.22507 1.96862 0.746863 2.44683C0.268655 2.92504 0 3.57363 0 4.24992V14.4497C0 15.126 0.268655 15.7746 0.746863 16.2528C1.22507 16.731 1.87366 16.9997 2.54995 16.9997H14.4497C15.126 16.9997 15.7746 16.731 16.2528 16.2528C16.731 15.7746 16.9997 15.126 16.9997 14.4497V4.24992C16.9997 3.57363 16.731 2.92504 16.2528 2.44683C15.7746 1.96862 15.126 1.69997 14.4497 1.69997V1.69997ZM15.2997 14.4497C15.2997 14.6751 15.2102 14.8913 15.0507 15.0507C14.8913 15.2102 14.6751 15.2997 14.4497 15.2997H2.54995C2.32452 15.2997 2.10832 15.2102 1.94892 15.0507C1.78952 14.8913 1.69997 14.6751 1.69997 14.4497V8.49983H15.2997V14.4497ZM15.2997 6.79987H1.69997V4.24992C1.69997 4.02449 1.78952 3.80829 1.94892 3.64889C2.10832 3.48949 2.32452 3.39993 2.54995 3.39993H4.24992V4.24992C4.24992 4.47535 4.33947 4.69154 4.49887 4.85095C4.65827 5.01035 4.87447 5.0999 5.0999 5.0999C5.32533 5.0999 5.54153 5.01035 5.70093 4.85095C5.86033 4.69154 5.94988 4.47535 5.94988 4.24992V3.39993H11.0498V4.24992C11.0498 4.47535 11.1393 4.69154 11.2987 4.85095C11.4581 5.01035 11.6743 5.0999 11.8998 5.0999C12.1252 5.0999 12.3414 5.01035 12.5008 4.85095C12.6602 4.69154 12.7498 4.47535 12.7498 4.24992V3.39993H14.4497C14.6751 3.39993 14.8913 3.48949 15.0507 3.64889C15.2102 3.80829 15.2997 4.02449 15.2997 4.24992V6.79987Z" fill="#424C5D"/>
</svg>
