<svg width="20" height="20" viewBox="0 0 20 20" fill="none" xmlns="http://www.w3.org/2000/svg">
<g clip-path="url(#clip0_4476_5807)">
<path d="M10.4486 0.357178H11.7835C11.7835 1.84601 11.7835 3.33263 11.7835 4.82146C14.096 4.82593 16.4063 4.81476 18.7166 4.82146C19.172 4.79914 19.7946 4.93084 19.7857 5.5045C19.8705 8.32817 19.7879 11.1585 19.8259 13.9844C19.8348 14.4844 19.8193 15.2724 19.1384 15.279C16.6898 15.3639 14.2344 15.2857 11.7835 15.3125C11.7835 16.7255 11.7835 18.1407 11.7835 19.5536H10.3996C6.99777 18.9354 3.58707 18.3661 0.180821 17.7679C0.178589 12.5603 0.178589 7.35273 0.178589 2.14736C3.6027 1.54691 7.02677 0.966552 10.4486 0.357178Z" fill="#0071C5"/>
<path d="M11.7834 5.49115C14.2566 5.49339 16.7276 5.48446 19.2008 5.49562C19.1583 5.78803 19.0691 6.07597 18.8235 6.259C17.3459 7.63625 15.8772 9.02019 14.4039 10.4019C13.5178 9.6005 12.6562 8.77237 11.7834 7.95769C11.7834 7.134 11.7834 6.31256 11.7834 5.49115Z" fill="white"/>
<path d="M4.96425 6.30812C6.22318 5.83265 7.69417 6.50005 8.22767 7.71655C8.95529 9.39068 8.85267 11.6809 7.40623 12.9465C6.07362 14.0871 3.83925 13.4376 3.23211 11.8171C2.433 9.94874 2.82139 7.07374 4.96425 6.30812Z" fill="white"/>
<path d="M15.1049 10.6004C16.4465 9.32586 17.7992 8.06023 19.1473 6.79236C19.1542 9.40842 19.1473 12.0267 19.1495 14.6428C16.6942 14.6428 14.2388 14.6428 11.7835 14.6428C11.7835 12.6964 11.7813 10.7499 11.7857 8.80573C12.6183 9.54236 13.3638 10.3817 14.2478 11.0535C14.6117 11.1205 14.8572 10.8057 15.1049 10.6004Z" fill="white"/>
<path d="M5.18081 7.6496C5.77456 7.3661 6.51788 7.6541 6.79688 8.2411C7.24332 9.12504 7.24107 10.2032 6.94869 11.1362C6.74107 11.7992 6.01564 12.346 5.31251 12.0849C4.43528 11.8081 4.16965 10.7679 4.16072 9.95317C4.14956 9.10942 4.34376 8.0581 5.18081 7.6496Z" fill="#0071C5"/>
</g>
<defs>
<clipPath id="clip0_4476_5807">
<rect width="20" height="20" fill="white"/>
</clipPath>
</defs>
</svg>
