<svg width="20" height="15" viewBox="0 0 20 15" fill="none" xmlns="http://www.w3.org/2000/svg">
<g clip-path="url(#clip0_4521_6927)">
<path d="M1.36364 14.9999H4.54545V7.27262L0 3.86353V13.6363C0 14.3908 0.611364 14.9999 1.36364 14.9999Z" fill="#4285F4"/>
<path d="M15.4546 14.9999H18.6364C19.391 14.9999 20 14.3885 20 13.6363V3.86353L15.4546 7.27262" fill="#34A853"/>
<path d="M15.4546 1.3636V7.27269L20 3.8636V2.04542C20 0.359053 18.075 -0.602311 16.7273 0.409053" fill="#FBBC04"/>
<path d="M4.54541 7.27262V1.36353L9.99996 5.45443L15.4545 1.36353V7.27262L9.99996 11.3635" fill="#EA4335"/>
<path d="M0 2.04542V3.8636L4.54545 7.27269V1.3636L3.27273 0.409053C1.92273 -0.602311 0 0.359053 0 2.04542" fill="#C5221F"/>
</g>
<defs>
<clipPath id="clip0_4521_6927">
<rect width="20" height="15" fill="white"/>
</clipPath>
</defs>
</svg>
