<svg width="51" height="50" viewBox="0 0 51 50" fill="none" xmlns="http://www.w3.org/2000/svg">
<path d="M24.9321 0H43.6879C47.1902 0 50.0013 2.76497 50.0013 6.31336V25.0691C50.0013 38.8479 38.8492 50 25.0704 50H24.9321C11.1533 50 0.00127163 38.8479 0.00127163 25.0691C-0.136977 11.2903 11.0151 0.138249 24.7939 0H24.9321Z" fill="#E67300"/>
<path d="M25.2545 12.4885C28.0195 12.4885 30.2315 14.7005 30.2315 17.4655C30.2315 20.2305 28.0195 22.4424 25.2545 22.4424C22.4895 22.4424 20.2775 20.2305 20.2775 17.4655C20.2315 14.7005 22.4895 12.4885 25.2545 12.4885Z" fill="white"/>
<path d="M14.2407 24.0552L22.9043 32.7188V37.5575H27.1439V32.7188L35.8075 24.0552H14.2407Z" fill="white"/>
</svg>
