<svg width="51" height="508" viewBox="0 0 51 508" fill="none" xmlns="http://www.w3.org/2000/svg">
<path d="M24.9321 0H43.6879C47.1902 0 50.0013 2.76497 50.0013 6.31336V25.0691C50.0013 38.8479 38.8492 50 25.0704 50H24.9321C11.1533 50 0.00127163 38.8479 0.00127163 25.0691C-0.136977 11.2903 11.0151 0.138249 24.7939 0H24.9321Z" fill="#E67300"/>
<path d="M25.2548 12.4885C28.0197 12.4885 30.2317 14.7005 30.2317 17.4654C30.2317 20.2304 28.0197 22.4424 25.2548 22.4424C22.4898 22.4424 20.2778 20.2304 20.2778 17.4654C20.2317 14.7005 22.4898 12.4885 25.2548 12.4885Z" fill="white"/>
<path d="M14.241 24.0553L22.9046 32.7189V37.5576H27.1442V32.7189L35.8078 24.0553H14.241Z" fill="white"/>
<rect y="66" width="50" height="50" rx="4" fill="#DCEEFE"/>
<path d="M17.0006 96C17.0006 95.4477 17.4483 95 18.0006 95H22.0006C22.5529 95 23.0006 95.4477 23.0006 96V98C23.0006 98.5523 22.5529 99 22.0006 99H18.0006C17.4483 99 17.0006 98.5523 17.0006 98V96ZM27.0006 84C27.0006 83.4477 27.4483 83 28.0006 83H32.0006C32.5529 83 33.0006 83.4477 33.0006 84V86C33.0006 86.5523 32.5529 87 32.0006 87H28.0006C27.4483 87 27.0006 86.5523 27.0006 86V84ZM17.0006 84C17.0006 83.4477 17.4483 83 18.0006 83H22.0006C22.5529 83 23.0006 83.4477 23.0006 84V90C23.0006 90.5523 22.5529 91 22.0006 91H18.0006C17.4483 91 17.0006 90.5523 17.0006 90V84ZM27.0006 92C27.0006 91.4477 27.4483 91 28.0006 91H32.0006C32.5529 91 33.0006 91.4477 33.0006 92V98C33.0006 98.5523 32.5529 99 32.0006 99H28.0006C27.4483 99 27.0006 98.5523 27.0006 98V92Z" stroke="#424C5D" stroke-width="2" stroke-linecap="round" stroke-linejoin="round"/>
<path d="M24.9996 142C23.06 142.004 21.1634 142.571 19.5408 143.634C17.9181 144.696 16.6395 146.208 15.8605 147.984C15.0815 149.76 14.8359 151.724 15.1536 153.638C15.4712 155.551 16.3384 157.331 17.6496 158.76C18.586 159.775 19.7225 160.585 20.9875 161.139C22.2525 161.693 23.6185 161.979 24.9996 161.979C26.3806 161.979 27.7466 161.693 29.0116 161.139C30.2766 160.585 31.4131 159.775 32.3496 158.76C33.6607 157.331 34.5279 155.551 34.8455 153.638C35.1632 151.724 34.9176 149.76 34.1386 147.984C33.3597 146.208 32.081 144.696 30.4583 143.634C28.8357 142.571 26.9391 142.004 24.9996 142ZM24.9996 160C22.928 159.997 20.9385 159.19 19.4496 157.75C19.9016 156.65 20.6706 155.708 21.6588 155.046C22.647 154.383 23.8099 154.03 24.9996 154.03C26.1893 154.03 27.3521 154.383 28.3403 155.046C29.3285 155.708 30.0975 156.65 30.5496 157.75C29.0606 159.19 27.0711 159.997 24.9996 160ZM22.9996 150C22.9996 149.604 23.1169 149.218 23.3366 148.889C23.5564 148.56 23.8687 148.304 24.2342 148.152C24.5996 148.001 25.0018 147.961 25.3897 148.038C25.7777 148.116 26.1341 148.306 26.4138 148.586C26.6935 148.865 26.884 149.222 26.9611 149.61C27.0383 149.998 26.9987 150.4 26.8473 150.765C26.6959 151.131 26.4396 151.443 26.1107 151.663C25.7818 151.883 25.3951 152 24.9996 152C24.4691 152 23.9604 151.789 23.5853 151.414C23.2103 151.039 22.9996 150.53 22.9996 150ZM31.9096 156C31.0161 154.472 29.641 153.283 27.9996 152.62C28.5087 152.043 28.8405 151.331 28.955 150.569C29.0696 149.808 28.962 149.03 28.6453 148.328C28.3286 147.627 27.8161 147.032 27.1695 146.614C26.5228 146.196 25.7694 145.974 24.9996 145.974C24.2298 145.974 23.4763 146.196 22.8297 146.614C22.183 147.032 21.6705 147.627 21.3538 148.328C21.0371 149.03 20.9295 149.808 21.0441 150.569C21.1586 151.331 21.4904 152.043 21.9996 152.62C20.3582 153.283 18.983 154.472 18.0896 156C17.3775 154.787 17.0013 153.406 16.9996 152C16.9996 149.878 17.8424 147.843 19.3427 146.343C20.843 144.843 22.8778 144 24.9996 144C27.1213 144 29.1561 144.843 30.6564 146.343C32.1567 147.843 32.9996 149.878 32.9996 152C32.9978 153.406 32.6216 154.787 31.9096 156Z" fill="#DCEEFE"/>
<path d="M28.7105 208.71C29.6909 207.939 30.4065 206.881 30.7577 205.684C31.109 204.487 31.0784 203.21 30.6703 202.032C30.2621 200.853 29.4967 199.831 28.4806 199.107C27.4644 198.383 26.2479 197.995 25.0005 197.995C23.753 197.995 22.5366 198.383 21.5204 199.107C20.5042 199.831 19.7388 200.853 19.3307 202.032C18.9226 203.21 18.892 204.487 19.2432 205.684C19.5945 206.881 20.3101 207.939 21.2905 208.71C19.6106 209.383 18.1448 210.499 17.0494 211.94C15.954 213.381 15.27 215.091 15.0705 216.89C15.056 217.021 15.0676 217.154 15.1045 217.281C15.1414 217.408 15.203 217.526 15.2856 217.629C15.4525 217.838 15.6953 217.971 15.9605 218C16.2257 218.029 16.4916 217.952 16.6998 217.785C16.908 217.618 17.0413 217.375 17.0705 217.11C17.2901 215.155 18.2222 213.35 19.6887 212.039C21.1552 210.728 23.0534 210.003 25.0205 210.003C26.9876 210.003 28.8857 210.728 30.3523 212.039C31.8188 213.35 32.7509 215.155 32.9705 217.11C32.9977 217.356 33.1149 217.583 33.2996 217.747C33.4843 217.911 33.7233 218.002 33.9705 218H34.0805C34.3426 217.97 34.5822 217.837 34.747 217.631C34.9119 217.425 34.9886 217.162 34.9605 216.9C34.76 215.096 34.0724 213.381 32.9713 211.938C31.8703 210.496 30.3974 209.38 28.7105 208.71ZM25.0005 208C24.2094 208 23.436 207.766 22.7782 207.326C22.1204 206.886 21.6077 206.262 21.305 205.531C21.0022 204.8 20.923 203.996 21.0773 203.22C21.2317 202.444 21.6126 201.731 22.1721 201.172C22.7315 200.612 23.4442 200.231 24.2201 200.077C24.996 199.923 25.8003 200.002 26.5312 200.305C27.2621 200.607 27.8868 201.12 28.3264 201.778C28.7659 202.436 29.0005 203.209 29.0005 204C29.0005 205.061 28.5791 206.078 27.8289 206.829C27.0788 207.579 26.0614 208 25.0005 208Z" fill="#DCEEFE"/>
<path d="M33.4898 259.52C33.4841 259.494 33.4841 259.466 33.4898 259.44C33.485 259.417 33.485 259.393 33.4898 259.37V259.28L33.4298 259.13C33.4054 259.089 33.3751 259.052 33.3398 259.02L33.2498 258.94H33.1998L29.2598 256.45L25.5398 254.15C25.4538 254.082 25.3553 254.031 25.2498 254H25.1698C25.0804 253.985 24.9892 253.985 24.8998 254H24.7998C24.6837 254.026 24.5723 254.07 24.4698 254.13L16.9998 258.78L16.9098 258.85L16.8198 258.93L16.7198 259L16.6698 259.06L16.6098 259.21V259.3V259.36C16.6001 259.426 16.6001 259.494 16.6098 259.56V268.29C16.6095 268.46 16.6525 268.627 16.7347 268.776C16.8169 268.925 16.9357 269.05 17.0798 269.14L24.5798 273.78L24.7298 273.84H24.8098C24.979 273.894 25.1606 273.894 25.3298 273.84H25.4098L25.5598 273.78L32.9998 269.21C33.1439 269.12 33.2627 268.995 33.345 268.846C33.4272 268.697 33.4702 268.53 33.4698 268.36V259.63C33.4698 259.63 33.4898 259.56 33.4898 259.52ZM24.9998 256.17L26.7798 257.27L21.1898 260.73L19.3998 259.63L24.9998 256.17ZM23.9998 271.17L18.4998 267.81V261.42L23.9998 264.82V271.17ZM24.9998 263.06L23.0898 261.91L28.6798 258.44L30.5998 259.63L24.9998 263.06ZM31.4998 267.78L25.9998 271.2V264.82L31.4998 261.42V267.78Z" fill="#DCEEFE"/>
<path d="M29 322H21C20.7348 322 20.4804 322.105 20.2929 322.293C20.1054 322.48 20 322.735 20 323C20 323.265 20.1054 323.52 20.2929 323.707C20.4804 323.895 20.7348 324 21 324H29C29.2652 324 29.5196 323.895 29.7071 323.707C29.8946 323.52 30 323.265 30 323C30 322.735 29.8946 322.48 29.7071 322.293C29.5196 322.105 29.2652 322 29 322ZM29 318H23C22.7348 318 22.4804 318.105 22.2929 318.293C22.1054 318.48 22 318.735 22 319C22 319.265 22.1054 319.52 22.2929 319.707C22.4804 319.895 22.7348 320 23 320H29C29.2652 320 29.5196 319.895 29.7071 319.707C29.8946 319.52 30 319.265 30 319C30 318.735 29.8946 318.48 29.7071 318.293C29.5196 318.105 29.2652 318 29 318ZM33 312H30V311C30 310.735 29.8946 310.48 29.7071 310.293C29.5196 310.105 29.2652 310 29 310C28.7348 310 28.4804 310.105 28.2929 310.293C28.1054 310.48 28 310.735 28 311V312H26V311C26 310.735 25.8946 310.48 25.7071 310.293C25.5196 310.105 25.2652 310 25 310C24.7348 310 24.4804 310.105 24.2929 310.293C24.1054 310.48 24 310.735 24 311V312H22V311C22 310.735 21.8946 310.48 21.7071 310.293C21.5196 310.105 21.2652 310 21 310C20.7348 310 20.4804 310.105 20.2929 310.293C20.1054 310.48 20 310.735 20 311V312H17C16.7348 312 16.4804 312.105 16.2929 312.293C16.1054 312.48 16 312.735 16 313V327C16 327.796 16.3161 328.559 16.8787 329.121C17.4413 329.684 18.2044 330 19 330H31C31.7956 330 32.5587 329.684 33.1213 329.121C33.6839 328.559 34 327.796 34 327V313C34 312.735 33.8946 312.48 33.7071 312.293C33.5196 312.105 33.2652 312 33 312ZM32 327C32 327.265 31.8946 327.52 31.7071 327.707C31.5196 327.895 31.2652 328 31 328H19C18.7348 328 18.4804 327.895 18.2929 327.707C18.1054 327.52 18 327.265 18 327V314H20V315C20 315.265 20.1054 315.52 20.2929 315.707C20.4804 315.895 20.7348 316 21 316C21.2652 316 21.5196 315.895 21.7071 315.707C21.8946 315.52 22 315.265 22 315V314H24V315C24 315.265 24.1054 315.52 24.2929 315.707C24.4804 315.895 24.7348 316 25 316C25.2652 316 25.5196 315.895 25.7071 315.707C25.8946 315.52 26 315.265 26 315V314H28V315C28 315.265 28.1054 315.52 28.2929 315.707C28.4804 315.895 28.7348 316 29 316C29.2652 316 29.5196 315.895 29.7071 315.707C29.8946 315.52 30 315.265 30 315V314H32V327Z" fill="#DCEEFE"/>
<path d="M32 376H25V369C25 368.4 24.6 368 24 368C19 368 15 372 15 377C15 382 19 386 24 386C29 386 33 382 33 377C33 376.4 32.6 376 32 376ZM25 383.9C21.2 384.5 17.6 381.8 17.1 378C16.5 374.2 19.2 370.6 23 370.1V377C23 377.6 23.4 378 24 378H30.9C30.5 381.1 28.1 383.5 25 383.9ZM28 366C27.4 366 27 366.4 27 367V373C27 373.6 27.4 374 28 374H34C34.6 374 35 373.6 35 373C35 369.1 31.9 366 28 366ZM29 372V368.1C31 368.5 32.5 370 32.9 372H29Z" fill="#DCEEFE"/>
<path d="M34 434H33V423C33 422.735 32.8946 422.48 32.7071 422.293C32.5196 422.105 32.2652 422 32 422H18C17.7348 422 17.4804 422.105 17.2929 422.293C17.1054 422.48 17 422.735 17 423V434H16C15.7348 434 15.4804 434.105 15.2929 434.293C15.1054 434.48 15 434.735 15 435C15 435.265 15.1054 435.52 15.2929 435.707C15.4804 435.895 15.7348 436 16 436H24V437.15L19.45 440.15C19.2633 440.266 19.1199 440.439 19.0418 440.644C18.9637 440.85 18.9552 441.075 19.0178 441.285C19.0804 441.496 19.2104 441.68 19.3879 441.809C19.5654 441.938 19.7805 442.005 20 442C20.1966 442.002 20.389 441.943 20.55 441.83L24 439.55V441C24 441.265 24.1054 441.52 24.2929 441.707C24.4804 441.895 24.7348 442 25 442C25.2652 442 25.5196 441.895 25.7071 441.707C25.8946 441.52 26 441.265 26 441V439.55L29.45 441.83C29.611 441.943 29.8034 442.002 30 442C30.2136 441.998 30.4212 441.928 30.5921 441.8C30.7631 441.672 30.8885 441.492 30.95 441.288C31.0115 441.083 31.0058 440.864 30.9338 440.663C30.8619 440.462 30.7273 440.289 30.55 440.17L26 437.17V436H34C34.2652 436 34.5196 435.895 34.7071 435.707C34.8946 435.52 35 435.265 35 435C35 434.735 34.8946 434.48 34.7071 434.293C34.5196 434.105 34.2652 434 34 434ZM31 434H19V424H31V434ZM22 432C22.1647 431.999 22.3267 431.958 22.4715 431.879C22.6162 431.801 22.7394 431.688 22.83 431.55L24.16 429.55L25.29 430.69C25.3949 430.796 25.5221 430.876 25.6622 430.927C25.8024 430.977 25.9519 430.995 26.1 430.98C26.2474 430.964 26.3894 430.915 26.5157 430.837C26.6419 430.759 26.7493 430.654 26.83 430.53L28.83 427.53C28.9478 427.31 28.9793 427.055 28.9185 426.813C28.8577 426.572 28.7089 426.361 28.5012 426.224C28.2935 426.086 28.0419 426.031 27.7956 426.069C27.5494 426.107 27.3263 426.236 27.17 426.43L25.84 428.43L24.71 427.29C24.6051 427.184 24.4779 427.104 24.3378 427.053C24.1976 427.003 24.0481 426.985 23.9 427C23.7526 427.016 23.6106 427.065 23.4843 427.143C23.3581 427.221 23.2507 427.326 23.17 427.45L21.17 430.45C21.0253 430.67 20.9735 430.939 21.0259 431.198C21.0784 431.456 21.2308 431.683 21.45 431.83C21.611 431.943 21.8034 432.002 22 432Z" fill="#DCEEFE"/>
<path d="M32.8999 488.66C32.7396 488.477 32.6512 488.243 32.6512 488C32.6512 487.757 32.7396 487.522 32.8999 487.34L34.1799 485.9C34.3209 485.743 34.4085 485.545 34.4301 485.334C34.4516 485.124 34.4061 484.913 34.2999 484.73L32.2999 481.27C32.1948 481.087 32.0348 480.943 31.8426 480.857C31.6505 480.77 31.4361 480.747 31.2299 480.79L29.3499 481.17C29.1107 481.219 28.8616 481.179 28.6498 481.058C28.4379 480.936 28.2779 480.741 28.1999 480.51L27.5899 478.68C27.5228 478.481 27.395 478.309 27.2245 478.187C27.0541 478.065 26.8495 477.999 26.6399 478H22.6399C22.4218 477.989 22.206 478.049 22.0255 478.172C21.8449 478.294 21.7095 478.473 21.6399 478.68L21.0799 480.51C21.0019 480.741 20.8419 480.936 20.63 481.058C20.4181 481.179 20.1691 481.219 19.9299 481.17L17.9999 480.79C17.8044 480.762 17.6052 480.793 17.4272 480.879C17.2493 480.964 17.1006 481.1 16.9999 481.27L14.9999 484.73C14.8911 484.911 14.8421 485.121 14.8601 485.331C14.878 485.541 14.962 485.74 15.0999 485.9L16.3699 487.34C16.5302 487.522 16.6186 487.757 16.6186 488C16.6186 488.243 16.5302 488.477 16.3699 488.66L15.0999 490.1C14.962 490.259 14.878 490.459 14.8601 490.669C14.8421 490.879 14.8911 491.089 14.9999 491.27L16.9999 494.73C17.105 494.912 17.265 495.057 17.4571 495.143C17.6493 495.229 17.8637 495.253 18.0699 495.21L19.9499 494.83C20.1891 494.78 20.4381 494.82 20.65 494.942C20.8619 495.063 21.0219 495.258 21.0999 495.49L21.7099 497.32C21.7795 497.527 21.9149 497.705 22.0955 497.828C22.276 497.951 22.4918 498.011 22.7099 498H26.7099C26.9195 498 27.1241 497.935 27.2945 497.813C27.465 497.691 27.5928 497.519 27.6599 497.32L28.2699 495.49C28.3479 495.258 28.5079 495.063 28.7198 494.942C28.9316 494.82 29.1807 494.78 29.4199 494.83L31.2999 495.21C31.5061 495.253 31.7205 495.229 31.9126 495.143C32.1048 495.057 32.2648 494.912 32.3699 494.73L34.3699 491.27C34.4761 491.087 34.5216 490.876 34.5001 490.665C34.4785 490.455 34.3909 490.257 34.2499 490.1L32.8999 488.66ZM31.4099 490L32.2099 490.9L30.9299 493.12L29.7499 492.88C29.0297 492.733 28.2805 492.855 27.6445 493.224C27.0085 493.592 26.53 494.182 26.2999 494.88L25.9199 496H23.3599L22.9999 494.86C22.7698 494.162 22.2913 493.572 21.6553 493.204C21.0193 492.835 20.2701 492.713 19.5499 492.86L18.3699 493.1L17.0699 490.89L17.8699 489.99C18.3619 489.44 18.6338 488.728 18.6338 487.99C18.6338 487.252 18.3619 486.54 17.8699 485.99L17.0699 485.09L18.3499 482.89L19.5299 483.13C20.2501 483.277 20.9993 483.155 21.6353 482.786C22.2713 482.417 22.7498 481.828 22.9799 481.13L23.3599 480H25.9199L26.2999 481.14C26.53 481.838 27.0085 482.427 27.6445 482.796C28.2805 483.165 29.0297 483.287 29.7499 483.14L30.9299 482.9L32.2099 485.12L31.4099 486.02C30.9235 486.569 30.6549 487.277 30.6549 488.01C30.6549 488.743 30.9235 489.451 31.4099 490ZM24.6399 484C23.8488 484 23.0754 484.234 22.4176 484.674C21.7598 485.114 21.2471 485.738 20.9444 486.469C20.6416 487.2 20.5624 488.004 20.7168 488.78C20.8711 489.556 21.2521 490.269 21.8115 490.828C22.3709 491.388 23.0836 491.769 23.8595 491.923C24.6355 492.077 25.4397 491.998 26.1706 491.695C26.9015 491.393 27.5262 490.88 27.9658 490.222C28.4053 489.564 28.6399 488.791 28.6399 488C28.6399 486.939 28.2185 485.922 27.4683 485.171C26.7182 484.421 25.7008 484 24.6399 484ZM24.6399 490C24.2443 490 23.8577 489.883 23.5288 489.663C23.1999 489.443 22.9435 489.131 22.7921 488.765C22.6408 488.4 22.6012 487.998 22.6783 487.61C22.7555 487.222 22.946 486.865 23.2257 486.586C23.5054 486.306 23.8618 486.115 24.2497 486.038C24.6377 485.961 25.0398 486.001 25.4053 486.152C25.7707 486.304 26.0831 486.56 26.3028 486.889C26.5226 487.218 26.6399 487.604 26.6399 488C26.6399 488.53 26.4292 489.039 26.0541 489.414C25.679 489.789 25.1703 490 24.6399 490Z" fill="#DCEEFE"/>
</svg>
