<svg width="68" height="144" viewBox="0 0 68 144" fill="none" xmlns="http://www.w3.org/2000/svg">
<mask id="path-1-inside-1_4509_6369" fill="white">
<path d="M0 0H68V46H0V0Z"/>
</mask>
<path d="M0 0H68V46H0V0Z" fill="#F5F7F9"/>
<rect x="24.4167" y="13.4167" width="19.1667" height="19.1667" rx="2.08333" fill="white" stroke="#9EA8BA" stroke-width="0.833333"/>
<path d="M0 0H68H0ZM68 47H0V45H68V47ZM0 46V0V46ZM68 0V46V0Z" fill="#E5E8EB" mask="url(#path-1-inside-1_4509_6369)"/>
<mask id="path-4-inside-2_4509_6369" fill="white">
<path d="M0 46H68V144H0V46Z"/>
</mask>
<path d="M0 46H68V144H0V46Z" fill="white"/>
<rect x="24.4167" y="85.4167" width="19.1667" height="19.1667" rx="2.08333" fill="white" stroke="#9EA8BA" stroke-width="0.833333"/>
<path d="M0 46H68H0ZM68 145H0V143H68V145ZM0 144V46V144ZM68 46V144V46Z" fill="#E5E8EB" mask="url(#path-4-inside-2_4509_6369)"/>
</svg>
