<svg width="50" height="895" viewBox="0 0 50 895" fill="none" xmlns="http://www.w3.org/2000/svg">
<rect width="50" height="50" rx="4" fill="#DCEEFE"/>
<path d="M17.0006 30C17.0006 29.4477 17.4483 29 18.0006 29H22.0006C22.5529 29 23.0006 29.4477 23.0006 30V32C23.0006 32.5523 22.5529 33 22.0006 33H18.0006C17.4483 33 17.0006 32.5523 17.0006 32V30ZM27.0006 18C27.0006 17.4477 27.4483 17 28.0006 17H32.0006C32.5529 17 33.0006 17.4477 33.0006 18V20C33.0006 20.5523 32.5529 21 32.0006 21H28.0006C27.4483 21 27.0006 20.5523 27.0006 20V18ZM17.0006 18C17.0006 17.4477 17.4483 17 18.0006 17H22.0006C22.5529 17 23.0006 17.4477 23.0006 18V24C23.0006 24.5523 22.5529 25 22.0006 25H18.0006C17.4483 25 17.0006 24.5523 17.0006 24V18ZM27.0006 26C27.0006 25.4477 27.4483 25 28.0006 25H32.0006C32.5529 25 33.0006 25.4477 33.0006 26V32C33.0006 32.5523 32.5529 33 32.0006 33H28.0006C27.4483 33 27.0006 32.5523 27.0006 32V26Z" stroke="#424C5D" stroke-width="2" stroke-linecap="round" stroke-linejoin="round"/>
<path d="M24.9996 76C23.06 76.0037 21.1634 76.5713 19.5408 77.6337C17.9181 78.6962 16.6395 80.2075 15.8605 81.9838C15.0815 83.76 14.8359 85.7244 15.1536 87.6378C15.4712 89.5511 16.3384 91.3308 17.6496 92.76V92.76C18.586 93.775 19.7225 94.5851 20.9875 95.1392C22.2525 95.6933 23.6185 95.9793 24.9996 95.9793C26.3806 95.9793 27.7466 95.6933 29.0116 95.1392C30.2766 94.5851 31.4131 93.775 32.3496 92.76V92.76C33.6607 91.3308 34.5279 89.5511 34.8455 87.6378C35.1632 85.7244 34.9176 83.76 34.1386 81.9838C33.3597 80.2075 32.081 78.6962 30.4583 77.6337C28.8357 76.5713 26.9391 76.0037 24.9996 76V76ZM24.9996 94C22.928 93.9969 20.9385 93.1903 19.4496 91.75C19.9016 90.6495 20.6706 89.7083 21.6588 89.0459C22.647 88.3835 23.8099 88.0298 24.9996 88.0298C26.1893 88.0298 27.3521 88.3835 28.3403 89.0459C29.3285 89.7083 30.0975 90.6495 30.5496 91.75C29.0606 93.1903 27.0711 93.9969 24.9996 94ZM22.9996 84C22.9996 83.6044 23.1169 83.2178 23.3366 82.8889C23.5564 82.56 23.8687 82.3036 24.2342 82.1522C24.5996 82.0009 25.0018 81.9613 25.3897 82.0384C25.7777 82.1156 26.1341 82.3061 26.4138 82.5858C26.6935 82.8655 26.884 83.2219 26.9611 83.6098C27.0383 83.9978 26.9987 84.3999 26.8473 84.7654C26.6959 85.1308 26.4396 85.4432 26.1107 85.6629C25.7818 85.8827 25.3951 86 24.9996 86C24.4691 86 23.9604 85.7893 23.5853 85.4142C23.2103 85.0391 22.9996 84.5304 22.9996 84ZM31.9096 90C31.0161 88.4718 29.641 87.283 27.9996 86.62C28.5087 86.0427 28.8405 85.3307 28.955 84.5694C29.0696 83.8082 28.962 83.0301 28.6453 82.3285C28.3286 81.6269 27.8161 81.0316 27.1695 80.614C26.5228 80.1964 25.7694 79.9742 24.9996 79.9742C24.2298 79.9742 23.4763 80.1964 22.8297 80.614C22.183 81.0316 21.6705 81.6269 21.3538 82.3285C21.0371 83.0301 20.9295 83.8082 21.0441 84.5694C21.1586 85.3307 21.4904 86.0427 21.9996 86.62C20.3582 87.283 18.983 88.4718 18.0896 90C17.3775 88.7871 17.0013 87.4065 16.9996 86C16.9996 83.8783 17.8424 81.8434 19.3427 80.3431C20.843 78.8429 22.8778 78 24.9996 78C27.1213 78 29.1561 78.8429 30.6564 80.3431C32.1567 81.8434 32.9996 83.8783 32.9996 86C32.9978 87.4065 32.6216 88.7871 31.9096 90V90Z" fill="#DCEEFE"/>
<path d="M28.7105 142.71C29.6909 141.939 30.4065 140.881 30.7577 139.684C31.109 138.487 31.0784 137.21 30.6703 136.032C30.2621 134.853 29.4967 133.831 28.4806 133.107C27.4644 132.383 26.2479 131.995 25.0005 131.995C23.753 131.995 22.5366 132.383 21.5204 133.107C20.5042 133.831 19.7388 134.853 19.3307 136.032C18.9226 137.21 18.892 138.487 19.2432 139.684C19.5945 140.881 20.3101 141.939 21.2905 142.71C19.6106 143.383 18.1448 144.499 17.0494 145.94C15.954 147.381 15.27 149.091 15.0705 150.89C15.056 151.021 15.0676 151.154 15.1045 151.281C15.1414 151.408 15.203 151.526 15.2856 151.629C15.4525 151.838 15.6953 151.971 15.9605 152C16.2257 152.029 16.4916 151.952 16.6998 151.785C16.908 151.618 17.0413 151.375 17.0705 151.11C17.2901 149.155 18.2222 147.35 19.6887 146.039C21.1552 144.728 23.0534 144.003 25.0205 144.003C26.9876 144.003 28.8857 144.728 30.3523 146.039C31.8188 147.35 32.7509 149.155 32.9705 151.11C32.9977 151.356 33.1149 151.583 33.2996 151.747C33.4843 151.911 33.7233 152.002 33.9705 152H34.0805C34.3426 151.97 34.5822 151.837 34.747 151.631C34.9119 151.425 34.9886 151.162 34.9605 150.9C34.76 149.096 34.0724 147.381 32.9713 145.938C31.8703 144.496 30.3974 143.38 28.7105 142.71V142.71ZM25.0005 142C24.2094 142 23.436 141.766 22.7782 141.326C22.1204 140.886 21.6077 140.262 21.305 139.531C21.0022 138.8 20.923 137.996 21.0773 137.22C21.2317 136.444 21.6126 135.731 22.1721 135.172C22.7315 134.612 23.4442 134.231 24.2201 134.077C24.996 133.923 25.8003 134.002 26.5312 134.305C27.2621 134.607 27.8868 135.12 28.3264 135.778C28.7659 136.436 29.0005 137.209 29.0005 138C29.0005 139.061 28.5791 140.078 27.8289 140.829C27.0788 141.579 26.0614 142 25.0005 142Z" fill="#DCEEFE"/>
<path d="M33.4898 193.52C33.4841 193.494 33.4841 193.466 33.4898 193.44C33.485 193.417 33.485 193.393 33.4898 193.37V193.28L33.4298 193.13C33.4054 193.089 33.3751 193.052 33.3398 193.02L33.2498 192.94H33.1998L29.2598 190.45L25.5398 188.15C25.4538 188.082 25.3553 188.031 25.2498 188H25.1698C25.0804 187.985 24.9892 187.985 24.8998 188H24.7998C24.6837 188.026 24.5723 188.07 24.4698 188.13L16.9998 192.78L16.9098 192.85L16.8198 192.93L16.7198 193L16.6698 193.06L16.6098 193.21V193.3V193.36C16.6001 193.426 16.6001 193.494 16.6098 193.56V202.29C16.6095 202.46 16.6525 202.627 16.7347 202.776C16.8169 202.925 16.9357 203.05 17.0798 203.14L24.5798 207.78L24.7298 207.84H24.8098C24.979 207.894 25.1606 207.894 25.3298 207.84H25.4098L25.5598 207.78L32.9998 203.21C33.1439 203.12 33.2627 202.995 33.345 202.846C33.4272 202.697 33.4702 202.53 33.4698 202.36V193.63C33.4698 193.63 33.4898 193.56 33.4898 193.52ZM24.9998 190.17L26.7798 191.27L21.1898 194.73L19.3998 193.63L24.9998 190.17ZM23.9998 205.17L18.4998 201.81V195.42L23.9998 198.82V205.17ZM24.9998 197.06L23.0898 195.91L28.6798 192.44L30.5998 193.63L24.9998 197.06ZM31.4998 201.78L25.9998 205.2V198.82L31.4998 195.42V201.78Z" fill="#DCEEFE"/>
<path d="M29 256H21C20.7348 256 20.4804 256.105 20.2929 256.293C20.1054 256.48 20 256.735 20 257C20 257.265 20.1054 257.52 20.2929 257.707C20.4804 257.895 20.7348 258 21 258H29C29.2652 258 29.5196 257.895 29.7071 257.707C29.8946 257.52 30 257.265 30 257C30 256.735 29.8946 256.48 29.7071 256.293C29.5196 256.105 29.2652 256 29 256ZM29 252H23C22.7348 252 22.4804 252.105 22.2929 252.293C22.1054 252.48 22 252.735 22 253C22 253.265 22.1054 253.52 22.2929 253.707C22.4804 253.895 22.7348 254 23 254H29C29.2652 254 29.5196 253.895 29.7071 253.707C29.8946 253.52 30 253.265 30 253C30 252.735 29.8946 252.48 29.7071 252.293C29.5196 252.105 29.2652 252 29 252ZM33 246H30V245C30 244.735 29.8946 244.48 29.7071 244.293C29.5196 244.105 29.2652 244 29 244C28.7348 244 28.4804 244.105 28.2929 244.293C28.1054 244.48 28 244.735 28 245V246H26V245C26 244.735 25.8946 244.48 25.7071 244.293C25.5196 244.105 25.2652 244 25 244C24.7348 244 24.4804 244.105 24.2929 244.293C24.1054 244.48 24 244.735 24 245V246H22V245C22 244.735 21.8946 244.48 21.7071 244.293C21.5196 244.105 21.2652 244 21 244C20.7348 244 20.4804 244.105 20.2929 244.293C20.1054 244.48 20 244.735 20 245V246H17C16.7348 246 16.4804 246.105 16.2929 246.293C16.1054 246.48 16 246.735 16 247V261C16 261.796 16.3161 262.559 16.8787 263.121C17.4413 263.684 18.2044 264 19 264H31C31.7956 264 32.5587 263.684 33.1213 263.121C33.6839 262.559 34 261.796 34 261V247C34 246.735 33.8946 246.48 33.7071 246.293C33.5196 246.105 33.2652 246 33 246V246ZM32 261C32 261.265 31.8946 261.52 31.7071 261.707C31.5196 261.895 31.2652 262 31 262H19C18.7348 262 18.4804 261.895 18.2929 261.707C18.1054 261.52 18 261.265 18 261V248H20V249C20 249.265 20.1054 249.52 20.2929 249.707C20.4804 249.895 20.7348 250 21 250C21.2652 250 21.5196 249.895 21.7071 249.707C21.8946 249.52 22 249.265 22 249V248H24V249C24 249.265 24.1054 249.52 24.2929 249.707C24.4804 249.895 24.7348 250 25 250C25.2652 250 25.5196 249.895 25.7071 249.707C25.8946 249.52 26 249.265 26 249V248H28V249C28 249.265 28.1054 249.52 28.2929 249.707C28.4804 249.895 28.7348 250 29 250C29.2652 250 29.5196 249.895 29.7071 249.707C29.8946 249.52 30 249.265 30 249V248H32V261Z" fill="#DCEEFE"/>
<path d="M32 310H25V303C25 302.4 24.6 302 24 302C19 302 15 306 15 311C15 316 19 320 24 320C29 320 33 316 33 311C33 310.4 32.6 310 32 310ZM25 317.9C21.2 318.5 17.6 315.8 17.1 312C16.5 308.2 19.2 304.6 23 304.1V311C23 311.6 23.4 312 24 312H30.9C30.5 315.1 28.1 317.5 25 317.9ZM28 300C27.4 300 27 300.4 27 301V307C27 307.6 27.4 308 28 308H34C34.6 308 35 307.6 35 307C35 303.1 31.9 300 28 300ZM29 306V302.1C31 302.5 32.5 304 32.9 306H29Z" fill="#DCEEFE"/>
<path d="M34 368H33V357C33 356.735 32.8946 356.48 32.7071 356.293C32.5196 356.105 32.2652 356 32 356H18C17.7348 356 17.4804 356.105 17.2929 356.293C17.1054 356.48 17 356.735 17 357V368H16C15.7348 368 15.4804 368.105 15.2929 368.293C15.1054 368.48 15 368.735 15 369C15 369.265 15.1054 369.52 15.2929 369.707C15.4804 369.895 15.7348 370 16 370H24V371.15L19.45 374.15C19.2633 374.266 19.1199 374.439 19.0418 374.644C18.9637 374.85 18.9552 375.075 19.0178 375.285C19.0804 375.496 19.2104 375.68 19.3879 375.809C19.5654 375.938 19.7805 376.005 20 376C20.1966 376.002 20.389 375.943 20.55 375.83L24 373.55V375C24 375.265 24.1054 375.52 24.2929 375.707C24.4804 375.895 24.7348 376 25 376C25.2652 376 25.5196 375.895 25.7071 375.707C25.8946 375.52 26 375.265 26 375V373.55L29.45 375.83C29.611 375.943 29.8034 376.002 30 376C30.2136 375.998 30.4212 375.928 30.5921 375.8C30.7631 375.672 30.8885 375.492 30.95 375.288C31.0115 375.083 31.0058 374.864 30.9338 374.663C30.8619 374.462 30.7273 374.289 30.55 374.17L26 371.17V370H34C34.2652 370 34.5196 369.895 34.7071 369.707C34.8946 369.52 35 369.265 35 369C35 368.735 34.8946 368.48 34.7071 368.293C34.5196 368.105 34.2652 368 34 368ZM31 368H19V358H31V368ZM22 366C22.1647 365.999 22.3267 365.958 22.4715 365.879C22.6162 365.801 22.7394 365.688 22.83 365.55L24.16 363.55L25.29 364.69C25.3949 364.796 25.5221 364.876 25.6622 364.927C25.8023 364.977 25.9519 364.995 26.1 364.98C26.2474 364.964 26.3894 364.915 26.5157 364.837C26.6419 364.759 26.7493 364.654 26.83 364.53L28.83 361.53C28.9478 361.31 28.9793 361.055 28.9185 360.813C28.8577 360.572 28.7089 360.361 28.5012 360.224C28.2935 360.086 28.0419 360.031 27.7956 360.069C27.5494 360.107 27.3263 360.236 27.17 360.43L25.84 362.43L24.71 361.29C24.6051 361.184 24.4779 361.104 24.3378 361.053C24.1977 361.003 24.0481 360.985 23.9 361C23.7526 361.016 23.6106 361.065 23.4843 361.143C23.3581 361.221 23.2507 361.326 23.17 361.45L21.17 364.45C21.0253 364.67 20.9735 364.939 21.0259 365.198C21.0784 365.456 21.2308 365.683 21.45 365.83C21.611 365.943 21.8034 366.002 22 366V366Z" fill="#DCEEFE"/>
<path d="M32.8999 422.66C32.7396 422.477 32.6512 422.243 32.6512 422C32.6512 421.757 32.7396 421.522 32.8999 421.34L34.1799 419.9C34.3209 419.743 34.4085 419.545 34.4301 419.334C34.4516 419.124 34.4061 418.913 34.2999 418.73L32.2999 415.27C32.1948 415.087 32.0348 414.943 31.8426 414.857C31.6505 414.77 31.4361 414.747 31.2299 414.79L29.3499 415.17C29.1107 415.219 28.8616 415.179 28.6498 415.058C28.4379 414.936 28.2779 414.741 28.1999 414.51L27.5899 412.68C27.5228 412.481 27.395 412.309 27.2245 412.187C27.0541 412.065 26.8495 411.999 26.6399 412H22.6399C22.4218 411.989 22.206 412.049 22.0255 412.172C21.8449 412.294 21.7095 412.473 21.6399 412.68L21.0799 414.51C21.0019 414.741 20.8419 414.936 20.63 415.058C20.4181 415.179 20.1691 415.219 19.9299 415.17L17.9999 414.79C17.8044 414.762 17.6052 414.793 17.4272 414.879C17.2493 414.964 17.1006 415.1 16.9999 415.27L14.9999 418.73C14.8911 418.911 14.8421 419.121 14.8601 419.331C14.878 419.541 14.962 419.74 15.0999 419.9L16.3699 421.34C16.5302 421.522 16.6186 421.757 16.6186 422C16.6186 422.243 16.5302 422.477 16.3699 422.66L15.0999 424.1C14.962 424.259 14.878 424.459 14.8601 424.669C14.8421 424.879 14.8911 425.089 14.9999 425.27L16.9999 428.73C17.105 428.912 17.265 429.057 17.4571 429.143C17.6493 429.229 17.8637 429.253 18.0699 429.21L19.9499 428.83C20.1891 428.78 20.4381 428.82 20.65 428.942C20.8619 429.063 21.0219 429.258 21.0999 429.49L21.7099 431.32C21.7795 431.527 21.9149 431.705 22.0955 431.828C22.276 431.951 22.4918 432.011 22.7099 432H26.7099C26.9195 432 27.1241 431.935 27.2945 431.813C27.465 431.691 27.5928 431.519 27.6599 431.32L28.2699 429.49C28.3479 429.258 28.5079 429.063 28.7198 428.942C28.9316 428.82 29.1807 428.78 29.4199 428.83L31.2999 429.21C31.5061 429.253 31.7205 429.229 31.9126 429.143C32.1048 429.057 32.2648 428.912 32.3699 428.73L34.3699 425.27C34.4761 425.087 34.5216 424.876 34.5001 424.665C34.4785 424.455 34.3909 424.257 34.2499 424.1L32.8999 422.66ZM31.4099 424L32.2099 424.9L30.9299 427.12L29.7499 426.88C29.0297 426.733 28.2805 426.855 27.6445 427.224C27.0085 427.592 26.53 428.182 26.2999 428.88L25.9199 430H23.3599L22.9999 428.86C22.7698 428.162 22.2913 427.572 21.6553 427.204C21.0193 426.835 20.2701 426.713 19.5499 426.86L18.3699 427.1L17.0699 424.89L17.8699 423.99C18.3619 423.44 18.6338 422.728 18.6338 421.99C18.6338 421.252 18.3619 420.54 17.8699 419.99L17.0699 419.09L18.3499 416.89L19.5299 417.13C20.2501 417.277 20.9993 417.155 21.6353 416.786C22.2713 416.417 22.7498 415.828 22.9799 415.13L23.3599 414H25.9199L26.2999 415.14C26.53 415.838 27.0085 416.427 27.6445 416.796C28.2805 417.165 29.0297 417.287 29.7499 417.14L30.9299 416.9L32.2099 419.12L31.4099 420.02C30.9235 420.569 30.6549 421.277 30.6549 422.01C30.6549 422.743 30.9235 423.451 31.4099 424V424ZM24.6399 418C23.8488 418 23.0754 418.234 22.4176 418.674C21.7598 419.114 21.2471 419.738 20.9444 420.469C20.6416 421.2 20.5624 422.004 20.7168 422.78C20.8711 423.556 21.2521 424.269 21.8115 424.828C22.3709 425.388 23.0836 425.769 23.8595 425.923C24.6355 426.077 25.4397 425.998 26.1706 425.695C26.9015 425.393 27.5262 424.88 27.9658 424.222C28.4053 423.564 28.6399 422.791 28.6399 422C28.6399 420.939 28.2185 419.922 27.4683 419.171C26.7182 418.421 25.7008 418 24.6399 418V418ZM24.6399 424C24.2443 424 23.8577 423.883 23.5288 423.663C23.1999 423.443 22.9435 423.131 22.7921 422.765C22.6408 422.4 22.6012 421.998 22.6783 421.61C22.7555 421.222 22.946 420.865 23.2257 420.586C23.5054 420.306 23.8618 420.115 24.2497 420.038C24.6377 419.961 25.0398 420.001 25.4053 420.152C25.7707 420.304 26.0831 420.56 26.3028 420.889C26.5226 421.218 26.6399 421.604 26.6399 422C26.6399 422.53 26.4292 423.039 26.0541 423.414C25.679 423.789 25.1703 424 24.6399 424Z" fill="#DCEEFE"/>
</svg>
