<svg width="50" height="50" viewBox="0 0 50 50" fill="none" xmlns="http://www.w3.org/2000/svg">
<path d="M24.9317 0H43.6871C47.1893 0 50.0003 2.76491 50.0003 6.31323V25.0686C50.0003 38.8472 38.8484 49.999 25.0699 49.999H24.9317C11.1531 49.999 0.0012716 38.8472 0.0012716 25.0686C-0.136975 11.2901 11.0149 0.138246 24.7934 0H24.9317Z" fill="#E67300"/>
<path d="M25.2545 12.4882C28.0194 12.4882 30.2314 14.7002 30.2314 17.4651C30.2314 20.23 28.0194 22.4419 25.2545 22.4419C22.4896 22.4419 20.2776 20.23 20.2776 17.4651C20.2316 14.7002 22.4896 12.4882 25.2545 12.4882Z" fill="white"/>
<path d="M14.2409 24.0548L22.9044 32.7183V37.5569H27.1439V32.7183L35.8073 24.0548H14.2409Z" fill="white"/>
</svg>
