<svg width="55" height="144" viewBox="0 0 55 144" fill="none" xmlns="http://www.w3.org/2000/svg">
<mask id="path-1-inside-1_4509_6465" fill="white">
<path d="M0 0H55V46H0V0Z"/>
</mask>
<path d="M0 0H55V46H0V0Z" fill="#F5F7F9"/>
<path d="M55 45H0V47H55V45Z" fill="#E5E8EB" mask="url(#path-1-inside-1_4509_6465)"/>
<mask id="path-3-inside-2_4509_6465" fill="white">
<path d="M0 46H55V144H0V46Z"/>
</mask>
<path d="M0 46H55V144H0V46Z" fill="white"/>
<path d="M24 96C24.5523 96 25 95.5523 25 95C25 94.4477 24.5523 94 24 94C23.4477 94 23 94.4477 23 95C23 95.5523 23.4477 96 24 96Z" stroke="#5F6C86" stroke-width="2" stroke-linecap="round" stroke-linejoin="round"/>
<path d="M24 89C24.5523 89 25 88.5523 25 88C25 87.4477 24.5523 87 24 87C23.4477 87 23 87.4477 23 88C23 88.5523 23.4477 89 24 89Z" stroke="#5F6C86" stroke-width="2" stroke-linecap="round" stroke-linejoin="round"/>
<path d="M24 103C24.5523 103 25 102.552 25 102C25 101.448 24.5523 101 24 101C23.4477 101 23 101.448 23 102C23 102.552 23.4477 103 24 103Z" stroke="#5F6C86" stroke-width="2" stroke-linecap="round" stroke-linejoin="round"/>
<path d="M0 46H55H0ZM55 145H0V143H55V145ZM0 144V46V144ZM55 46V144V46Z" fill="#E5E8EB" mask="url(#path-3-inside-2_4509_6465)"/>
</svg>
