<svg width="40" height="40" viewBox="0 0 40 40" fill="none" xmlns="http://www.w3.org/2000/svg">
<circle cx="20" cy="20" r="19.5" fill="white" stroke="#EAEBEB"/>
<g clip-path="url(#clip0_4521_6865)">
<path d="M20.4391 7.47681C20.2861 7.3876 20.1122 7.3406 19.9351 7.3406C19.7579 7.3406 19.584 7.3876 19.431 7.47681C17.6037 8.5506 16.1168 10.1186 15.1415 12.0004C14.1663 13.8821 13.7423 16.001 13.9184 18.1131L14.0662 19.8376L11.7799 21.235C11.176 21.5267 10.698 22.0271 10.4343 22.6436C10.1705 23.2602 10.1388 23.9515 10.3449 24.5896L11.5468 28.903C11.5889 29.0541 11.6659 29.1932 11.7717 29.3091C11.8775 29.4249 12.009 29.5142 12.1557 29.5698C12.3024 29.6254 12.46 29.6457 12.616 29.6291C12.772 29.6124 12.9219 29.5593 13.0535 29.4741L15.692 27.7671C16.0683 28.5114 16.5131 29.2191 17.0206 29.8808C17.1141 30.0022 17.2342 30.1005 17.3716 30.1682C17.509 30.2358 17.6602 30.271 17.8134 30.271L22.1976 30.271C22.3289 30.271 22.4589 30.2452 22.5803 30.195C22.7016 30.1447 22.8118 30.0711 22.9047 29.9782C22.925 29.9579 22.9444 29.9364 22.9634 29.914C23.5074 29.2625 23.9817 28.5559 24.3787 27.8057L26.9574 29.4741C27.0891 29.5593 27.239 29.6123 27.3949 29.6289C27.5509 29.6455 27.7085 29.6252 27.8552 29.5696C28.0018 29.514 28.1334 29.4247 28.2391 29.3089C28.3449 29.1931 28.422 29.0541 28.4642 28.9031L29.6681 24.5841C29.8206 23.9593 29.7707 23.3022 29.5256 22.7076C29.2805 22.113 28.8528 21.6116 28.3043 21.2758L25.8805 19.7977L25.9509 18.1186C26.1341 16.0049 25.7133 13.8827 24.7375 11.9988C23.7618 10.1149 22.2712 8.54676 20.4391 7.47681V7.47681ZM13.1081 27.0566L12.257 24.0047C12.1929 23.8039 12.208 23.5862 12.2993 23.3961C12.3906 23.2061 12.5511 23.0582 12.748 22.9828L14.2567 22.0627L14.3428 23.068C14.4293 24.026 14.6211 24.9716 14.9147 25.8876L13.1081 27.0566ZM27.7398 24.0527L26.9025 27.0562L25.1813 25.9424C25.4899 25.0197 25.6785 24.0612 25.7424 23.0904L25.7848 22.0813L27.2471 22.9731C27.4294 23.0814 27.5743 23.2428 27.6624 23.4358C27.7504 23.6288 27.7775 23.844 27.7398 24.0527V24.0527ZM23.9561 17.9861L23.7451 22.9859C23.6057 24.909 22.9005 26.7479 21.7184 28.2712L18.3182 28.2712C17.1903 26.6866 16.5056 24.8298 16.3347 22.8923L16.1124 20.2965C16.1115 20.2561 16.108 20.2157 16.102 20.1757L15.912 17.9564C15.7762 16.3201 16.077 14.677 16.7838 13.195C17.4906 11.713 18.578 10.4451 19.9351 9.52079C21.3009 10.4434 22.3944 11.7154 23.1016 13.2043C23.8088 14.6932 24.1039 16.3444 23.9561 17.9861V17.9861ZM18.945 14.2803C18.7352 14.4901 18.5923 14.7573 18.5344 15.0483C18.4766 15.3393 18.5063 15.6409 18.6198 15.915C18.7333 16.1891 18.9256 16.4233 19.1723 16.5882C19.4189 16.753 19.7089 16.8409 20.0056 16.8409C20.3023 16.8409 20.5923 16.753 20.839 16.5882C21.0857 16.4233 21.2779 16.1891 21.3914 15.915C21.505 15.6409 21.5347 15.3393 21.4768 15.0483C21.4189 14.7573 21.2761 14.4901 21.0663 14.2803C20.927 14.141 20.7616 14.0305 20.5796 13.9551C20.3977 13.8797 20.2026 13.8409 20.0056 13.8409C19.8086 13.8409 19.6135 13.8797 19.4316 13.9551C19.2496 14.0305 19.0842 14.141 18.9449 14.2803L18.945 14.2803Z" fill="#565758"/>
</g>
<defs>
<clipPath id="clip0_4521_6865">
<rect width="24" height="24" fill="white" transform="translate(3 22) rotate(-45)"/>
</clipPath>
</defs>
</svg>
