<svg width="20" height="20" viewBox="0 0 20 20" fill="none" xmlns="http://www.w3.org/2000/svg">
<path d="M16.5833 10.5499C16.4497 10.3978 16.3761 10.2023 16.3761 9.99987C16.3761 9.79745 16.4497 9.60195 16.5833 9.44987L17.65 8.24987C17.7675 8.11876 17.8405 7.95379 17.8585 7.77863C17.8765 7.60346 17.8385 7.42711 17.75 7.27487L16.0833 4.39154C15.9957 4.23947 15.8624 4.11894 15.7023 4.04711C15.5422 3.97528 15.3635 3.95584 15.1917 3.99154L13.625 4.30821C13.4256 4.3494 13.2181 4.3162 13.0416 4.21487C12.865 4.11355 12.7317 3.95111 12.6667 3.75821L12.1583 2.23321C12.1024 2.06769 11.9959 1.92393 11.8539 1.82224C11.7118 1.72055 11.5414 1.66609 11.3667 1.66654H8.03333C7.85161 1.65705 7.67177 1.70731 7.5213 1.80963C7.37082 1.91196 7.25798 2.06072 7.2 2.23321L6.73333 3.75821C6.66833 3.95111 6.53497 4.11355 6.35842 4.21487C6.18187 4.3162 5.97434 4.3494 5.77499 4.30821L4.16666 3.99154C4.00379 3.96852 3.83774 3.99422 3.68945 4.06541C3.54116 4.13659 3.41725 4.25006 3.33333 4.39154L1.66666 7.27487C1.57596 7.42541 1.53518 7.60078 1.55015 7.77589C1.56511 7.95101 1.63506 8.11691 1.74999 8.24987L2.80833 9.44987C2.94193 9.60195 3.01561 9.79745 3.01561 9.99987C3.01561 10.2023 2.94193 10.3978 2.80833 10.5499L1.74999 11.7499C1.63506 11.8828 1.56511 12.0487 1.55015 12.2239C1.53518 12.399 1.57596 12.5743 1.66666 12.7249L3.33333 15.6082C3.42091 15.7603 3.55426 15.8808 3.71437 15.9526C3.87448 16.0245 4.05318 16.0439 4.225 16.0082L5.79166 15.6915C5.99101 15.6503 6.19854 15.6835 6.37509 15.7849C6.55164 15.8862 6.685 16.0486 6.75 16.2415L7.25833 17.7665C7.31631 17.939 7.42916 18.0878 7.57963 18.1901C7.73011 18.2924 7.90994 18.3427 8.09166 18.3332H11.425C11.5997 18.3337 11.7701 18.2792 11.9122 18.1775C12.0542 18.0758 12.1608 17.9321 12.2167 17.7665L12.725 16.2415C12.79 16.0486 12.9234 15.8862 13.0999 15.7849C13.2765 15.6835 13.484 15.6503 13.6833 15.6915L15.25 16.0082C15.4218 16.0439 15.6005 16.0245 15.7606 15.9526C15.9207 15.8808 16.0541 15.7603 16.1417 15.6082L17.8083 12.7249C17.8968 12.5726 17.9348 12.3963 17.9168 12.2211C17.8989 12.046 17.8259 11.881 17.7083 11.7499L16.5833 10.5499ZM15.3417 11.6665L16.0083 12.4165L14.9417 14.2665L13.9583 14.0665C13.3581 13.9439 12.7338 14.0458 12.2038 14.353C11.6738 14.6603 11.2751 15.1514 11.0833 15.7332L10.7667 16.6665H8.63333L8.33333 15.7165C8.14154 15.1347 7.74281 14.6436 7.21283 14.3364C6.68285 14.0291 6.05851 13.9272 5.45833 14.0499L4.47499 14.2499L3.39166 12.4082L4.05833 11.6582C4.46829 11.1999 4.69494 10.6065 4.69494 9.99154C4.69494 9.3766 4.46829 8.78322 4.05833 8.32487L3.39166 7.57487L4.45833 5.74154L5.44166 5.94154C6.04185 6.06422 6.66618 5.96227 7.19617 5.65504C7.72615 5.3478 8.12487 4.85667 8.31666 4.27487L8.63333 3.33321H10.7667L11.0833 4.28321C11.2751 4.865 11.6738 5.35614 12.2038 5.66337C12.7338 5.97061 13.3581 6.07256 13.9583 5.94987L14.9417 5.74987L16.0083 7.59987L15.3417 8.34987C14.9363 8.80717 14.7125 9.39711 14.7125 10.0082C14.7125 10.6193 14.9363 11.2092 15.3417 11.6665ZM9.7 6.66654C9.04072 6.66654 8.39626 6.86204 7.84809 7.22831C7.29993 7.59458 6.87269 8.11517 6.6204 8.72426C6.3681 9.33335 6.30209 10.0036 6.43071 10.6502C6.55933 11.2968 6.8768 11.8907 7.34297 12.3569C7.80915 12.8231 8.40309 13.1405 9.04969 13.2692C9.6963 13.3978 10.3665 13.3318 10.9756 13.0795C11.5847 12.8272 12.1053 12.3999 12.4716 11.8518C12.8378 11.3036 13.0333 10.6591 13.0333 9.99987C13.0333 9.11582 12.6821 8.26797 12.057 7.64285C11.4319 7.01773 10.5841 6.66654 9.7 6.66654ZM9.7 11.6665C9.37036 11.6665 9.04813 11.5688 8.77404 11.3857C8.49996 11.2025 8.28634 10.9422 8.1602 10.6377C8.03405 10.3331 8.00104 9.99802 8.06535 9.67472C8.12966 9.35142 8.2884 9.05445 8.52148 8.82136C8.75457 8.58827 9.05154 8.42954 9.37485 8.36523C9.69815 8.30092 10.0333 8.33393 10.3378 8.46007C10.6423 8.58622 10.9026 8.79984 11.0858 9.07392C11.2689 9.348 11.3667 9.67024 11.3667 9.99987C11.3667 10.4419 11.1911 10.8658 10.8785 11.1784C10.5659 11.4909 10.142 11.6665 9.7 11.6665Z" fill="#424C5D"/>
</svg>
