<svg width="116" height="20" viewBox="0 0 116 20" fill="none" xmlns="http://www.w3.org/2000/svg">
<path d="M18.3337 8.41666C18.417 7.99999 18.0837 7.49999 17.667 7.49999L12.917 6.83332L10.7503 2.49999C10.667 2.33332 10.5837 2.24999 10.417 2.16666C10.0003 1.91666 9.50033 2.08332 9.25033 2.49999L7.16699 6.83332L2.41699 7.49999C2.16699 7.49999 2.00033 7.58332 1.91699 7.74999C1.58366 8.08332 1.58366 8.58332 1.91699 8.91666L5.33366 12.25L4.50033 17C4.50033 17.1667 4.50033 17.3333 4.58366 17.5C4.83366 17.9167 5.33366 18.0833 5.75033 17.8333L10.0003 15.5833L14.2503 17.8333C14.3337 17.9167 14.5003 17.9167 14.667 17.9167C14.7503 17.9167 14.7503 17.9167 14.8337 17.9167C15.2503 17.8333 15.5837 17.4167 15.5003 16.9167L14.667 12.1667L18.0837 8.83332C18.2503 8.74999 18.3337 8.58332 18.3337 8.41666Z" fill="#F9B300"/>
<path d="M42.3337 8.41666C42.417 7.99999 42.0837 7.49999 41.667 7.49999L36.917 6.83332L34.7503 2.49999C34.667 2.33332 34.5837 2.24999 34.417 2.16666C34.0003 1.91666 33.5003 2.08332 33.2503 2.49999L31.167 6.83332L26.417 7.49999C26.167 7.49999 26.0003 7.58332 25.917 7.74999C25.5837 8.08332 25.5837 8.58332 25.917 8.91666L29.3337 12.25L28.5003 17C28.5003 17.1667 28.5003 17.3333 28.5837 17.5C28.8337 17.9167 29.3337 18.0833 29.7503 17.8333L34.0003 15.5833L38.2503 17.8333C38.3337 17.9167 38.5003 17.9167 38.667 17.9167C38.7503 17.9167 38.7503 17.9167 38.8337 17.9167C39.2503 17.8333 39.5837 17.4167 39.5003 16.9167L38.667 12.1667L42.0837 8.83332C42.2503 8.74999 42.3337 8.58332 42.3337 8.41666Z" fill="#F9B300"/>
<path d="M66.3337 8.41666C66.417 7.99999 66.0837 7.49999 65.667 7.49999L60.917 6.83332L58.7503 2.49999C58.667 2.33332 58.5837 2.24999 58.417 2.16666C58.0003 1.91666 57.5003 2.08332 57.2503 2.49999L55.167 6.83332L50.417 7.49999C50.167 7.49999 50.0003 7.58332 49.917 7.74999C49.5837 8.08332 49.5837 8.58332 49.917 8.91666L53.3337 12.25L52.5003 17C52.5003 17.1667 52.5003 17.3333 52.5837 17.5C52.8337 17.9167 53.3337 18.0833 53.7503 17.8333L58.0003 15.5833L62.2503 17.8333C62.3337 17.9167 62.5003 17.9167 62.667 17.9167C62.7503 17.9167 62.7503 17.9167 62.8337 17.9167C63.2503 17.8333 63.5837 17.4167 63.5003 16.9167L62.667 12.1667L66.0837 8.83332C66.2503 8.74999 66.3337 8.58332 66.3337 8.41666Z" fill="#F9B300"/>
<path d="M90.3337 8.41666C90.417 7.99999 90.0837 7.49999 89.667 7.49999L84.917 6.83332L82.7503 2.49999C82.667 2.33332 82.5837 2.24999 82.417 2.16666C82.0003 1.91666 81.5003 2.08332 81.2503 2.49999L79.167 6.83332L74.417 7.49999C74.167 7.49999 74.0003 7.58332 73.917 7.74999C73.5837 8.08332 73.5837 8.58332 73.917 8.91666L77.3337 12.25L76.5003 17C76.5003 17.1667 76.5003 17.3333 76.5837 17.5C76.8337 17.9167 77.3337 18.0833 77.7503 17.8333L82.0003 15.5833L86.2503 17.8333C86.3337 17.9167 86.5003 17.9167 86.667 17.9167C86.7503 17.9167 86.7503 17.9167 86.8337 17.9167C87.2503 17.8333 87.5837 17.4167 87.5003 16.9167L86.667 12.1667L90.0837 8.83332C90.2503 8.74999 90.3337 8.58332 90.3337 8.41666Z" fill="#F9B300"/>
<path d="M114.334 8.41666C114.417 7.99999 114.084 7.49999 113.667 7.49999L108.917 6.83332L106.75 2.49999C106.667 2.33332 106.584 2.24999 106.417 2.16666C106 1.91666 105.5 2.08332 105.25 2.49999L103.167 6.83332L98.417 7.49999C98.167 7.49999 98.0003 7.58332 97.917 7.74999C97.5837 8.08332 97.5837 8.58332 97.917 8.91666L101.334 12.25L100.5 17C100.5 17.1667 100.5 17.3333 100.584 17.5C100.834 17.9167 101.334 18.0833 101.75 17.8333L106 15.5833L110.25 17.8333C110.334 17.9167 110.5 17.9167 110.667 17.9167C110.75 17.9167 110.75 17.9167 110.834 17.9167C111.25 17.8333 111.584 17.4167 111.5 16.9167L110.667 12.1667L114.084 8.83332C114.25 8.74999 114.334 8.58332 114.334 8.41666Z" fill="#F9B300"/>
</svg>
