<svg width="20" height="20" viewBox="0 0 20 20" fill="none" xmlns="http://www.w3.org/2000/svg">
<path d="M9.99984 1.66675C8.35166 1.66675 6.7405 2.15549 5.37009 3.07117C3.99968 3.98685 2.93158 5.28834 2.30084 6.81105C1.67011 8.33377 1.50509 10.0093 1.82663 11.6258C2.14817 13.2423 2.94185 14.7272 4.10728 15.8926C5.27272 17.0581 6.75758 17.8518 8.37409 18.1733C9.9906 18.4948 11.6662 18.3298 13.1889 17.6991C14.7116 17.0683 16.0131 16.0002 16.9288 14.6298C17.8444 13.2594 18.3332 11.6483 18.3332 10.0001C18.3307 7.7907 17.452 5.67251 15.8897 4.11024C14.3274 2.54797 12.2092 1.66921 9.99984 1.66675V1.66675ZM9.99984 16.6667C8.6813 16.6667 7.39237 16.2758 6.29604 15.5432C5.19971 14.8107 4.34523 13.7695 3.84064 12.5513C3.33606 11.3331 3.20404 9.99269 3.46127 8.69948C3.71851 7.40627 4.35345 6.21839 5.2858 5.28604C6.21815 4.35369 7.40603 3.71875 8.69924 3.46151C9.99245 3.20428 11.3329 3.3363 12.5511 3.84088C13.7692 4.34547 14.8104 5.19995 15.543 6.29628C16.2755 7.39261 16.6665 8.68154 16.6665 10.0001C16.6645 11.7676 15.9615 13.4621 14.7117 14.7119C13.4618 15.9617 11.7673 16.6647 9.99984 16.6667V16.6667ZM9.99984 9.58342C9.77883 9.58342 9.56687 9.67121 9.41059 9.82749C9.25431 9.98377 9.16651 10.1957 9.16651 10.4167V12.9167C9.16651 13.1378 9.25431 13.3497 9.41059 13.506C9.56687 13.6623 9.77883 13.7501 9.99984 13.7501C10.2209 13.7501 10.4328 13.6623 10.5891 13.506C10.7454 13.3497 10.8332 13.1378 10.8332 12.9167V10.4167C10.8332 10.1957 10.7454 9.98377 10.5891 9.82749C10.4328 9.67121 10.2209 9.58342 9.99984 9.58342ZM9.99984 6.25008C9.79382 6.25008 9.59242 6.31117 9.42112 6.42563C9.24982 6.54009 9.11631 6.70278 9.03747 6.89312C8.95863 7.08346 8.938 7.2929 8.97819 7.49497C9.01838 7.69703 9.11759 7.88264 9.26327 8.02832C9.40895 8.174 9.59456 8.27321 9.79662 8.3134C9.99869 8.35359 10.2081 8.33296 10.3985 8.25412C10.5888 8.17528 10.7515 8.04177 10.866 7.87047C10.9804 7.69917 11.0415 7.49777 11.0415 7.29175C11.0415 7.01548 10.9318 6.75053 10.7364 6.55518C10.5411 6.35983 10.2761 6.25008 9.99984 6.25008V6.25008Z" fill="black"/>
</svg>
