<svg width="11" height="16" viewBox="0 0 11 16" fill="none" xmlns="http://www.w3.org/2000/svg">
<path d="M9.14443 10.0343L5.33354 13.854L1.52266 10.0343C1.35538 9.86699 1.12851 9.77301 0.891953 9.77301C0.655392 9.77301 0.42852 9.86699 0.261247 10.0343C0.0939734 10.2015 0 10.4284 0 10.665C0 10.9015 0.0939734 11.1284 0.261247 11.2957L4.70284 15.7373C4.78542 15.8205 4.88367 15.8866 4.99192 15.9317C5.10016 15.9768 5.21627 16 5.33354 16C5.45081 16 5.56692 15.9768 5.67517 15.9317C5.78342 15.8866 5.88167 15.8205 5.96425 15.7373L10.4058 11.2957C10.4887 11.2128 10.5544 11.1145 10.5992 11.0063C10.644 10.8981 10.6671 10.7821 10.6671 10.665C10.6671 10.5478 10.644 10.4318 10.5992 10.3236C10.5544 10.2154 10.4887 10.1171 10.4058 10.0343C10.323 9.95143 10.2247 9.88573 10.1165 9.84091C10.0082 9.79608 9.89226 9.77301 9.77513 9.77301C9.658 9.77301 9.54201 9.79608 9.4338 9.84091C9.32558 9.88573 9.22725 9.95143 9.14443 10.0343ZM1.52266 5.96576L5.33354 2.146L9.14443 5.96576C9.22701 6.04902 9.32525 6.11511 9.4335 6.16021C9.54175 6.20531 9.65786 6.22853 9.77513 6.22853C9.8924 6.22853 10.0085 6.20531 10.1168 6.16021C10.225 6.11511 10.3233 6.04902 10.4058 5.96576C10.4891 5.88318 10.5552 5.78493 10.6003 5.67668C10.6454 5.56843 10.6686 5.45233 10.6686 5.33506C10.6686 5.21779 10.6454 5.10168 10.6003 4.99343C10.5552 4.88518 10.4891 4.78693 10.4058 4.70435L5.96425 0.262763C5.88167 0.179502 5.78342 0.113417 5.67517 0.0683178C5.56692 0.0232191 5.45081 0 5.33354 0C5.21627 0 5.10016 0.0232191 4.99192 0.0683178C4.88367 0.113417 4.78542 0.179502 4.70284 0.262763L0.261247 4.70435C0.0939734 4.87163 0 5.0985 0 5.33506C0 5.57162 0.0939734 5.79849 0.261247 5.96576C0.42852 6.13304 0.655392 6.22701 0.891953 6.22701C1.12851 6.22701 1.35538 6.13304 1.52266 5.96576Z" fill="#9EA8BA"/>
</svg>
