<svg width="90" height="40" viewBox="0 0 90 40" fill="none" xmlns="http://www.w3.org/2000/svg">
<rect x="0.5" y="0.5" width="89" height="39" rx="3.5" fill="white"/>
<path d="M35.8999 20.6599C35.7396 20.4774 35.6512 20.2428 35.6512 19.9999C35.6512 19.757 35.7396 19.5224 35.8999 19.3399L37.1799 17.8999C37.3209 17.7426 37.4085 17.5446 37.4301 17.3344C37.4516 17.1242 37.4061 16.9126 37.2999 16.7299L35.2999 13.2699C35.1948 13.0874 35.0348 12.9428 34.8426 12.8566C34.6505 12.7704 34.4361 12.7471 34.2299 12.7899L32.3499 13.1699C32.1107 13.2193 31.8616 13.1795 31.6498 13.0579C31.4379 12.9363 31.2779 12.7414 31.1999 12.5099L30.5899 10.6799C30.5228 10.4813 30.395 10.3088 30.2245 10.1867C30.0541 10.0647 29.8495 9.99935 29.6399 9.9999H25.6399C25.4218 9.98851 25.206 10.0488 25.0255 10.1716C24.8449 10.2944 24.7095 10.4729 24.6399 10.6799L24.0799 12.5099C24.0019 12.7414 23.8419 12.9363 23.63 13.0579C23.4181 13.1795 23.1691 13.2193 22.9299 13.1699L20.9999 12.7899C20.8044 12.7623 20.6052 12.7931 20.4272 12.8785C20.2493 12.964 20.1006 13.1001 19.9999 13.2699L17.9999 16.7299C17.8911 16.9105 17.8421 17.121 17.8601 17.3311C17.878 17.5413 17.962 17.7403 18.0999 17.8999L19.3699 19.3399C19.5302 19.5224 19.6186 19.757 19.6186 19.9999C19.6186 20.2428 19.5302 20.4774 19.3699 20.6599L18.0999 22.0999C17.962 22.2595 17.878 22.4585 17.8601 22.6687C17.8421 22.8788 17.8911 23.0892 17.9999 23.2699L19.9999 26.7299C20.105 26.9124 20.265 27.057 20.4571 27.1432C20.6493 27.2294 20.8637 27.2527 21.0699 27.2099L22.9499 26.8299C23.1891 26.7805 23.4381 26.8203 23.65 26.9419C23.8619 27.0635 24.0219 27.2584 24.0999 27.4899L24.7099 29.3199C24.7795 29.5269 24.9149 29.7054 25.0955 29.8282C25.276 29.951 25.4918 30.0113 25.7099 29.9999H29.7099C29.9195 30.0004 30.1241 29.9351 30.2945 29.8131C30.465 29.691 30.5928 29.5185 30.6599 29.3199L31.2699 27.4899C31.3479 27.2584 31.5079 27.0635 31.7198 26.9419C31.9316 26.8203 32.1807 26.7805 32.4199 26.8299L34.2999 27.2099C34.5061 27.2527 34.7205 27.2294 34.9126 27.1432C35.1048 27.057 35.2648 26.9124 35.3699 26.7299L37.3699 23.2699C37.4761 23.0872 37.5216 22.8756 37.5001 22.6654C37.4785 22.4552 37.3909 22.2572 37.2499 22.0999L35.8999 20.6599ZM34.4099 21.9999L35.2099 22.8999L33.9299 25.1199L32.7499 24.8799C32.0297 24.7327 31.2805 24.855 30.6445 25.2237C30.0085 25.5924 29.53 26.1817 29.2999 26.8799L28.9199 27.9999H26.3599L25.9999 26.8599C25.7698 26.1617 25.2913 25.5724 24.6553 25.2037C24.0193 24.835 23.2701 24.7127 22.5499 24.8599L21.3699 25.0999L20.0699 22.8899L20.8699 21.9899C21.3619 21.4399 21.6338 20.7278 21.6338 19.9899C21.6338 19.252 21.3619 18.5399 20.8699 17.9899L20.0699 17.0899L21.3499 14.8899L22.5299 15.1299C23.2501 15.2771 23.9993 15.1548 24.6353 14.7861C25.2713 14.4174 25.7498 13.8281 25.9799 13.1299L26.3599 11.9999H28.9199L29.2999 13.1399C29.53 13.8381 30.0085 14.4274 30.6445 14.7961C31.2805 15.1648 32.0297 15.2871 32.7499 15.1399L33.9299 14.8999L35.2099 17.1199L34.4099 18.0199C33.9235 18.5687 33.6549 19.2766 33.6549 20.0099C33.6549 20.7432 33.9235 21.4511 34.4099 21.9999ZM27.6399 15.9999C26.8488 15.9999 26.0754 16.2345 25.4176 16.674C24.7598 17.1135 24.2471 17.7383 23.9444 18.4692C23.6416 19.2001 23.5624 20.0043 23.7168 20.7803C23.8711 21.5562 24.2521 22.2689 24.8115 22.8283C25.3709 23.3877 26.0836 23.7687 26.8595 23.923C27.6355 24.0774 28.4397 23.9982 29.1706 23.6954C29.9015 23.3927 30.5262 22.88 30.9658 22.2222C31.4053 21.5644 31.6399 20.791 31.6399 19.9999C31.6399 18.939 31.2185 17.9216 30.4683 17.1715C29.7182 16.4213 28.7008 15.9999 27.6399 15.9999ZM27.6399 21.9999C27.2443 21.9999 26.8577 21.8826 26.5288 21.6628C26.1999 21.4431 25.9435 21.1307 25.7921 20.7653C25.6408 20.3998 25.6012 19.9977 25.6783 19.6097C25.7555 19.2218 25.946 18.8654 26.2257 18.5857C26.5054 18.306 26.8618 18.1155 27.2497 18.0383C27.6377 17.9612 28.0398 18.0008 28.4053 18.1521C28.7707 18.3035 29.0831 18.5599 29.3028 18.8888C29.5226 19.2177 29.6399 19.6043 29.6399 19.9999C29.6399 20.5303 29.4292 21.039 29.0541 21.4141C28.679 21.7892 28.1703 21.9999 27.6399 21.9999Z" fill="#424C5D"/>
<path d="M66.8998 17.1999C66.4998 16.7999 65.8998 16.7999 65.4998 17.1999L61.9998 20.6999L58.4998 17.1999C58.0998 16.7999 57.4998 16.7999 57.0998 17.1999C56.6998 17.5999 56.6998 18.1999 57.0998 18.5999L61.2998 22.7999C61.4998 22.9999 61.6998 23.0999 61.9998 23.0999C62.2998 23.0999 62.4998 22.9999 62.6998 22.7999L66.8998 18.5999C67.2998 18.1999 67.2998 17.5999 66.8998 17.1999Z" fill="#424C5D"/>
<rect x="0.5" y="0.5" width="89" height="39" rx="3.5" stroke="#E5E8EB"/>
</svg>
