<svg width="74" height="40" viewBox="0 0 74 40" fill="none" xmlns="http://www.w3.org/2000/svg">
<rect x="0.5" y="0.5" width="73" height="39" rx="3.5" fill="white"/>
<path d="M27.8999 20.6599C27.7396 20.4774 27.6512 20.2428 27.6512 19.9999C27.6512 19.757 27.7396 19.5224 27.8999 19.3399L29.1799 17.8999C29.3209 17.7426 29.4085 17.5446 29.4301 17.3344C29.4516 17.1242 29.4061 16.9126 29.2999 16.7299L27.2999 13.2699C27.1948 13.0874 27.0348 12.9428 26.8426 12.8566C26.6505 12.7704 26.4361 12.7471 26.2299 12.7899L24.3499 13.1699C24.1107 13.2193 23.8616 13.1795 23.6498 13.0579C23.4379 12.9363 23.2779 12.7414 23.1999 12.5099L22.5899 10.6799C22.5228 10.4813 22.395 10.3088 22.2245 10.1867C22.0541 10.0647 21.8495 9.99935 21.6399 9.9999H17.6399C17.4218 9.98851 17.206 10.0488 17.0255 10.1716C16.8449 10.2944 16.7095 10.4729 16.6399 10.6799L16.0799 12.5099C16.0019 12.7414 15.8419 12.9363 15.63 13.0579C15.4181 13.1795 15.1691 13.2193 14.9299 13.1699L12.9999 12.7899C12.8044 12.7623 12.6052 12.7931 12.4272 12.8785C12.2493 12.964 12.1006 13.1001 11.9999 13.2699L9.9999 16.7299C9.89106 16.9105 9.84212 17.121 9.86008 17.3311C9.87804 17.5413 9.96198 17.7403 10.0999 17.8999L11.3699 19.3399C11.5302 19.5224 11.6186 19.757 11.6186 19.9999C11.6186 20.2428 11.5302 20.4774 11.3699 20.6599L10.0999 22.0999C9.96198 22.2595 9.87804 22.4585 9.86008 22.6687C9.84212 22.8788 9.89106 23.0892 9.9999 23.2699L11.9999 26.7299C12.105 26.9124 12.265 27.057 12.4571 27.1432C12.6493 27.2294 12.8637 27.2527 13.0699 27.2099L14.9499 26.8299C15.1891 26.7805 15.4381 26.8203 15.65 26.9419C15.8619 27.0635 16.0219 27.2584 16.0999 27.4899L16.7099 29.3199C16.7795 29.5269 16.9149 29.7054 17.0955 29.8282C17.276 29.951 17.4918 30.0113 17.7099 29.9999H21.7099C21.9195 30.0004 22.1241 29.9351 22.2945 29.8131C22.465 29.691 22.5928 29.5185 22.6599 29.3199L23.2699 27.4899C23.3479 27.2584 23.5079 27.0635 23.7198 26.9419C23.9316 26.8203 24.1807 26.7805 24.4199 26.8299L26.2999 27.2099C26.5061 27.2527 26.7205 27.2294 26.9126 27.1432C27.1048 27.057 27.2648 26.9124 27.3699 26.7299L29.3699 23.2699C29.4761 23.0872 29.5216 22.8756 29.5001 22.6654C29.4785 22.4552 29.3909 22.2572 29.2499 22.0999L27.8999 20.6599ZM26.4099 21.9999L27.2099 22.8999L25.9299 25.1199L24.7499 24.8799C24.0297 24.7327 23.2805 24.855 22.6445 25.2237C22.0085 25.5924 21.53 26.1817 21.2999 26.8799L20.9199 27.9999H18.3599L17.9999 26.8599C17.7698 26.1617 17.2913 25.5724 16.6553 25.2037C16.0193 24.835 15.2701 24.7127 14.5499 24.8599L13.3699 25.0999L12.0699 22.8899L12.8699 21.9899C13.3619 21.4399 13.6338 20.7278 13.6338 19.9899C13.6338 19.252 13.3619 18.5399 12.8699 17.9899L12.0699 17.0899L13.3499 14.8899L14.5299 15.1299C15.2501 15.2771 15.9993 15.1548 16.6353 14.7861C17.2713 14.4174 17.7498 13.8281 17.9799 13.1299L18.3599 11.9999H20.9199L21.2999 13.1399C21.53 13.8381 22.0085 14.4274 22.6445 14.7961C23.2805 15.1648 24.0297 15.2871 24.7499 15.1399L25.9299 14.8999L27.2099 17.1199L26.4099 18.0199C25.9235 18.5687 25.6549 19.2766 25.6549 20.0099C25.6549 20.7432 25.9235 21.4511 26.4099 21.9999ZM19.6399 15.9999C18.8488 15.9999 18.0754 16.2345 17.4176 16.674C16.7598 17.1135 16.2471 17.7383 15.9444 18.4692C15.6416 19.2001 15.5624 20.0043 15.7168 20.7803C15.8711 21.5562 16.2521 22.2689 16.8115 22.8283C17.3709 23.3877 18.0836 23.7687 18.8595 23.923C19.6355 24.0774 20.4397 23.9982 21.1706 23.6954C21.9015 23.3927 22.5262 22.88 22.9658 22.2222C23.4053 21.5644 23.6399 20.791 23.6399 19.9999C23.6399 18.939 23.2185 17.9216 22.4683 17.1715C21.7182 16.4213 20.7008 15.9999 19.6399 15.9999ZM19.6399 21.9999C19.2443 21.9999 18.8577 21.8826 18.5288 21.6628C18.1999 21.4431 17.9435 21.1307 17.7921 20.7653C17.6408 20.3998 17.6012 19.9977 17.6783 19.6097C17.7555 19.2218 17.946 18.8654 18.2257 18.5857C18.5054 18.306 18.8618 18.1155 19.2497 18.0383C19.6377 17.9612 20.0398 18.0008 20.4053 18.1521C20.7707 18.3035 21.0831 18.5599 21.3028 18.8888C21.5226 19.2177 21.6399 19.6043 21.6399 19.9999C21.6399 20.5303 21.4292 21.039 21.0541 21.4141C20.679 21.7892 20.1703 21.9999 19.6399 21.9999Z" fill="#424C5D"/>
<path d="M58.8998 17.1999C58.4998 16.7999 57.8998 16.7999 57.4998 17.1999L53.9998 20.6999L50.4998 17.1999C50.0998 16.7999 49.4998 16.7999 49.0998 17.1999C48.6998 17.5999 48.6998 18.1999 49.0998 18.5999L53.2998 22.7999C53.4998 22.9999 53.6998 23.0999 53.9998 23.0999C54.2998 23.0999 54.4998 22.9999 54.6998 22.7999L58.8998 18.5999C59.2998 18.1999 59.2998 17.5999 58.8998 17.1999Z" fill="#424C5D"/>
<rect x="0.5" y="0.5" width="73" height="39" rx="3.5" stroke="#E5E8EB"/>
</svg>
