<svg width="17" height="17" viewBox="0 0 17 17" fill="none" xmlns="http://www.w3.org/2000/svg">
<path d="M14.4499 1.69999H12.7499V0.849996C12.7499 0.624563 12.6604 0.408363 12.501 0.248958C12.3416 0.0895528 12.1254 0 11.8999 0C11.6745 0 11.4583 0.0895528 11.2989 0.248958C11.1395 0.408363 11.0499 0.624563 11.0499 0.849996V1.69999H5.94997V0.849996C5.94997 0.624563 5.86042 0.408363 5.70101 0.248958C5.54161 0.0895528 5.32541 0 5.09998 0C4.87454 0 4.65834 0.0895528 4.49894 0.248958C4.33953 0.408363 4.24998 0.624563 4.24998 0.849996V1.69999H2.54999C1.87369 1.69999 1.22509 1.96865 0.746874 2.44687C0.268659 2.92508 0 3.57368 0 4.24998V14.4499C0 15.1262 0.268659 15.7748 0.746874 16.253C1.22509 16.7313 1.87369 16.9999 2.54999 16.9999H14.4499C15.1262 16.9999 15.7748 16.7313 16.253 16.253C16.7313 15.7748 16.9999 15.1262 16.9999 14.4499V4.24998C16.9999 3.57368 16.7313 2.92508 16.253 2.44687C15.7748 1.96865 15.1262 1.69999 14.4499 1.69999ZM15.2999 14.4499C15.2999 14.6754 15.2104 14.8916 15.051 15.051C14.8916 15.2104 14.6754 15.2999 14.4499 15.2999H2.54999C2.32455 15.2999 2.10836 15.2104 1.94895 15.051C1.78954 14.8916 1.69999 14.6754 1.69999 14.4499V8.49996H15.2999V14.4499ZM15.2999 6.79997H1.69999V4.24998C1.69999 4.02455 1.78954 3.80835 1.94895 3.64894C2.10836 3.48954 2.32455 3.39998 2.54999 3.39998H4.24998V4.24998C4.24998 4.47541 4.33953 4.69161 4.49894 4.85102C4.65834 5.01042 4.87454 5.09998 5.09998 5.09998C5.32541 5.09998 5.54161 5.01042 5.70101 4.85102C5.86042 4.69161 5.94997 4.47541 5.94997 4.24998V3.39998H11.0499V4.24998C11.0499 4.47541 11.1395 4.69161 11.2989 4.85102C11.4583 5.01042 11.6745 5.09998 11.8999 5.09998C12.1254 5.09998 12.3416 5.01042 12.501 4.85102C12.6604 4.69161 12.7499 4.47541 12.7499 4.24998V3.39998H14.4499C14.6754 3.39998 14.8916 3.48954 15.051 3.64894C15.2104 3.80835 15.2999 4.02455 15.2999 4.24998V6.79997Z" fill="#424C5D"/>
</svg>
