<svg width="14" height="14" viewBox="0 0 14 14" fill="none" xmlns="http://www.w3.org/2000/svg">
<path d="M8.2249 6.99991L13.7373 1.48748C14.0873 1.13749 14.0873 0.612493 13.7373 0.262497C13.3873 -0.0874989 12.8623 -0.0874989 12.5123 0.262497L6.99991 5.77493L1.48748 0.262497C1.13749 -0.0874989 0.612493 -0.0874989 0.262497 0.262497C-0.0874988 0.612493 -0.0874988 1.13749 0.262497 1.48748L5.77493 6.99991L0.262497 12.5123C0.0874991 12.6873 0 12.8623 0 13.1248C0 13.6498 0.349996 13.9998 0.874989 13.9998C1.13749 13.9998 1.31248 13.9123 1.48748 13.7373L6.99991 8.2249L12.5123 13.7373C12.6873 13.9123 12.8623 13.9998 13.1248 13.9998C13.3873 13.9998 13.5623 13.9123 13.7373 13.7373C14.0873 13.3873 14.0873 12.8623 13.7373 12.5123L8.2249 6.99991Z" fill="black"/>
</svg>
