<svg width="11" height="16" viewBox="0 0 11 16" fill="none" xmlns="http://www.w3.org/2000/svg">
<path d="M9.14435 10.0342L5.3335 13.8539L1.52265 10.0342C1.35537 9.8669 1.1285 9.77293 0.891945 9.77293C0.655387 9.77293 0.428517 9.8669 0.261245 10.0342C0.0939726 10.2014 0 10.4283 0 10.6649C0 10.9014 0.0939726 11.1283 0.261245 11.2956L4.7028 15.7371C4.78538 15.8204 4.88363 15.8865 4.99187 15.9316C5.10012 15.9767 5.21623 15.9999 5.3335 15.9999C5.45077 15.9999 5.56687 15.9767 5.67512 15.9316C5.78337 15.8865 5.88162 15.8204 5.9642 15.7371L10.4058 11.2956C10.4886 11.2128 10.5543 11.1144 10.5991 11.0062C10.6439 10.898 10.667 10.782 10.667 10.6649C10.667 10.5477 10.6439 10.4318 10.5991 10.3235C10.5543 10.2153 10.4886 10.117 10.4058 10.0342C10.3229 9.95135 10.2246 9.88565 10.1164 9.84083C10.0082 9.796 9.89218 9.77293 9.77505 9.77293C9.65792 9.77293 9.54193 9.796 9.43372 9.84083C9.3255 9.88565 9.22718 9.95135 9.14435 10.0342ZM1.52265 5.96571L5.3335 2.14598L9.14435 5.96571C9.22693 6.04897 9.32518 6.11506 9.43343 6.16016C9.54168 6.20526 9.65778 6.22848 9.77505 6.22848C9.89232 6.22848 10.0084 6.20526 10.1167 6.16016C10.2249 6.11506 10.3232 6.04897 10.4058 5.96571C10.489 5.88313 10.5551 5.78489 10.6002 5.67664C10.6453 5.56839 10.6685 5.45228 10.6685 5.33501C10.6685 5.21775 10.6453 5.10164 10.6002 4.99339C10.5551 4.88514 10.489 4.78689 10.4058 4.70431L5.9642 0.262761C5.88162 0.179501 5.78337 0.113416 5.67512 0.0683172C5.56687 0.0232189 5.45077 0 5.3335 0C5.21623 0 5.10012 0.0232189 4.99187 0.0683172C4.88363 0.113416 4.78538 0.179501 4.7028 0.262761L0.261245 4.70431C0.0939726 4.87159 0 5.09846 0 5.33501C0 5.57157 0.0939726 5.79844 0.261245 5.96571C0.428517 6.13299 0.655387 6.22696 0.891945 6.22696C1.1285 6.22696 1.35537 6.13299 1.52265 5.96571Z" fill="#9EA8BA"/>
</svg>
