<svg width="20" height="20" viewBox="0 0 20 20" fill="none" xmlns="http://www.w3.org/2000/svg">
<rect width="20" height="20" rx="2.5" fill="#2C5CD0"/>
<path d="M14.6601 6.67368C14.5955 6.60859 14.5187 6.55693 14.4341 6.52167C14.3495 6.48641 14.2587 6.46826 14.167 6.46826C14.0754 6.46826 13.9846 6.48641 13.9 6.52167C13.8153 6.55693 13.7385 6.60859 13.674 6.67368L8.50036 11.8542L6.32675 9.67368C6.25972 9.60893 6.18059 9.55802 6.09389 9.52385C6.00718 9.48968 5.9146 9.47292 5.82142 9.47453C5.72823 9.47614 5.63628 9.49609 5.55081 9.53324C5.46534 9.57039 5.38802 9.62401 5.32328 9.69104C5.25853 9.75807 5.20761 9.83719 5.17344 9.9239C5.13927 10.0106 5.12252 10.1032 5.12413 10.1964C5.12574 10.2896 5.14569 10.3815 5.18284 10.467C5.21999 10.5524 5.27361 10.6298 5.34064 10.6945L8.0073 13.3612C8.07186 13.4263 8.14867 13.4779 8.23329 13.5132C8.31792 13.5484 8.40868 13.5666 8.50036 13.5666C8.59203 13.5666 8.6828 13.5484 8.76743 13.5132C8.85205 13.4779 8.92886 13.4263 8.99341 13.3612L14.6601 7.69451C14.7306 7.62948 14.7868 7.55056 14.8253 7.46271C14.8638 7.37486 14.8836 7.28 14.8836 7.18409C14.8836 7.08819 14.8638 6.99333 14.8253 6.90548C14.7868 6.81763 14.7306 6.73871 14.6601 6.67368Z" fill="white"/>
</svg>
