<svg width="20" height="20" viewBox="0 0 20 20" fill="none" xmlns="http://www.w3.org/2000/svg">
<path d="M11.1666 9.99992L16.4166 4.74992C16.7499 4.41658 16.7499 3.91659 16.4166 3.58325C16.0833 3.24992 15.5833 3.24992 15.2499 3.58325L9.99992 8.83325L4.74992 3.58325C4.41659 3.24992 3.91659 3.24992 3.58325 3.58325C3.24992 3.91659 3.24992 4.41658 3.58325 4.74992L8.83325 9.99992L3.58325 15.2499C3.41659 15.4166 3.33325 15.5833 3.33325 15.8333C3.33325 16.3333 3.66659 16.6666 4.16659 16.6666C4.41659 16.6666 4.58325 16.5833 4.74992 16.4166L9.99992 11.1666L15.2499 16.4166C15.4166 16.5833 15.5833 16.6666 15.8333 16.6666C16.0833 16.6666 16.2499 16.5833 16.4166 16.4166C16.7499 16.0833 16.7499 15.5833 16.4166 15.2499L11.1666 9.99992Z" fill="black"/>
</svg>
