<svg width="70" height="20" viewBox="0 0 70 20" fill="none" xmlns="http://www.w3.org/2000/svg">
<circle cx="10" cy="10" r="10" fill="#1877F2"/>
<path d="M11.7336 6.28892H12.7781V4.52225C12.2724 4.46967 11.7643 4.44371 11.2559 4.44447C9.74475 4.44447 8.71142 5.3667 8.71142 7.05559V8.51114H7.00586V10.4889H8.71142V15.5556H10.7559V10.4889H12.4559L12.7114 8.51114H10.7559V7.25003C10.7559 6.6667 10.9114 6.28892 11.7336 6.28892Z" fill="white"/>
<circle cx="34.667" cy="10" r="10" fill="#0073B1"/>
<path d="M39.3723 4.44435H29.9612C29.8554 4.44288 29.7504 4.46227 29.6521 4.5014C29.5538 4.54053 29.4641 4.59864 29.3883 4.67241C29.3125 4.74619 29.2519 4.83418 29.2101 4.93136C29.1683 5.02854 29.146 5.13301 29.1445 5.2388V14.761C29.146 14.8668 29.1683 14.9713 29.2101 15.0685C29.2519 15.1656 29.3125 15.2536 29.3883 15.3274C29.4641 15.4012 29.5538 15.4593 29.6521 15.4984C29.7504 15.5375 29.8554 15.5569 29.9612 15.5555H39.3723C39.4781 15.5569 39.5831 15.5375 39.6814 15.4984C39.7797 15.4593 39.8694 15.4012 39.9452 15.3274C40.021 15.2536 40.0816 15.1656 40.1234 15.0685C40.1653 14.9713 40.1875 14.8668 40.189 14.761V5.2388C40.1875 5.13301 40.1653 5.02854 40.1234 4.93136C40.0816 4.83418 40.021 4.74619 39.9452 4.67241C39.8694 4.59864 39.7797 4.54053 39.6814 4.5014C39.5831 4.46227 39.4781 4.44288 39.3723 4.44435V4.44435ZM32.4945 13.7444H30.8279V8.74435H32.4945V13.7444ZM31.6612 8.04435C31.4313 8.04435 31.2109 7.95304 31.0484 7.79051C30.8858 7.62798 30.7945 7.40754 30.7945 7.17769C30.7945 6.94783 30.8858 6.72739 31.0484 6.56486C31.2109 6.40233 31.4313 6.31102 31.6612 6.31102C31.7833 6.29718 31.9069 6.30927 32.0239 6.34651C32.141 6.38375 32.2488 6.44529 32.3405 6.52711C32.4321 6.60893 32.5054 6.70917 32.5556 6.82129C32.6058 6.9334 32.6317 7.05485 32.6317 7.17769C32.6317 7.30052 32.6058 7.42197 32.5556 7.53408C32.5054 7.6462 32.4321 7.74645 32.3405 7.82826C32.2488 7.91008 32.141 7.97162 32.0239 8.00886C31.9069 8.0461 31.7833 8.05819 31.6612 8.04435V8.04435ZM38.5056 13.7444H36.839V11.061C36.839 10.3888 36.6001 9.94991 35.9945 9.94991C35.8071 9.95128 35.6246 10.0101 35.4717 10.1183C35.3187 10.2266 35.2026 10.3792 35.139 10.5555C35.0955 10.686 35.0767 10.8236 35.0834 10.961V13.7388H33.4168C33.4168 13.7388 33.4168 9.19435 33.4168 8.7388H35.0834V9.44435C35.2348 9.18163 35.455 8.9652 35.7203 8.81835C35.9856 8.67151 36.286 8.59983 36.589 8.61102C37.7001 8.61102 38.5056 9.32769 38.5056 10.8666V13.7444Z" fill="white"/>
<circle cx="59.333" cy="10" r="10" fill="#1DA1F2"/>
<path d="M64.8885 6.55565C64.4709 6.73682 64.0292 6.85658 63.5773 6.91121C64.0541 6.62639 64.4114 6.17831 64.5829 5.6501C64.1349 5.9168 63.6444 6.10471 63.1329 6.20565C62.791 5.83486 62.3357 5.58804 61.8384 5.5039C61.341 5.41977 60.8299 5.50307 60.385 5.74076C59.9401 5.97844 59.5868 6.35706 59.3803 6.81723C59.1738 7.2774 59.1258 7.79309 59.244 8.28343C58.3381 8.23761 57.452 8.00174 56.6433 7.59113C55.8345 7.18052 55.1211 6.60437 54.5496 5.9001C54.3491 6.25019 54.2437 6.64666 54.244 7.0501C54.2433 7.42475 54.3352 7.79377 54.5117 8.1243C54.6881 8.45483 54.9435 8.7366 55.2551 8.94454C54.8929 8.93468 54.5384 8.83748 54.2218 8.66121V8.68899C54.2245 9.21392 54.4085 9.72181 54.7425 10.1267C55.0766 10.5317 55.5403 10.8088 56.0551 10.9112C55.8569 10.9715 55.6512 11.0033 55.444 11.0057C55.3006 11.004 55.1576 10.991 55.0162 10.9668C55.1628 11.4183 55.4466 11.813 55.8279 12.0957C56.2093 12.3785 56.6693 12.5354 57.144 12.5445C56.3425 13.1752 55.3528 13.5195 54.3329 13.5223C54.1472 13.5229 53.9616 13.5118 53.7773 13.489C54.8187 14.1614 56.0322 14.5183 57.2718 14.5168C58.1272 14.5256 58.9758 14.364 59.768 14.0413C60.5602 13.7185 61.2801 13.2411 61.8858 12.637C62.4914 12.0329 62.9707 11.3142 63.2954 10.5228C63.6202 9.73144 63.784 8.88328 63.7773 8.02787C63.7773 7.93343 63.7773 7.83343 63.7773 7.73343C64.2133 7.40832 64.5893 7.00978 64.8885 6.55565V6.55565Z" fill="white"/>
</svg>
