<svg width="17" height="17" viewBox="0 0 17 17" fill="none" xmlns="http://www.w3.org/2000/svg">
<path d="M8.49999 0C6.81885 0 5.17547 0.498516 3.77765 1.43251C2.37984 2.3665 1.29037 3.69401 0.647027 5.24718C0.00368291 6.80035 -0.164645 8.50942 0.163329 10.1583C0.491303 11.8071 1.30085 13.3216 2.48959 14.5104C3.67834 15.6991 5.19289 16.5087 6.84173 16.8367C8.49056 17.1646 10.1996 16.9963 11.7528 16.353C13.306 15.7096 14.6335 14.6201 15.5675 13.2223C16.5015 11.8245 17 10.1811 17 8.49999C16.9975 6.24642 16.1011 4.08587 14.5076 2.49236C12.9141 0.898843 10.7536 0.00250629 8.49999 0V0ZM8.49999 15.3C7.15508 15.3 5.84037 14.9012 4.72212 14.154C3.60387 13.4068 2.7323 12.3448 2.21762 11.1022C1.70295 9.8597 1.56828 8.49245 1.83066 7.17338C2.09304 5.85431 2.74068 4.64267 3.69167 3.69167C4.64267 2.74067 5.85431 2.09304 7.17338 1.83066C8.49245 1.56828 9.8597 1.70294 11.1022 2.21762C12.3448 2.73229 13.4068 3.60386 14.154 4.72212C14.9012 5.84037 15.3 7.15508 15.3 8.49999C15.2979 10.3028 14.5808 12.0312 13.306 13.306C12.0312 14.5808 10.3028 15.2979 8.49999 15.3V15.3ZM8.49999 8.07499C8.27456 8.07499 8.05836 8.16454 7.89895 8.32395C7.73955 8.48336 7.64999 8.69956 7.64999 8.92499V11.475C7.64999 11.7004 7.73955 11.9166 7.89895 12.076C8.05836 12.2354 8.27456 12.325 8.49999 12.325C8.72543 12.325 8.94163 12.2354 9.10103 12.076C9.26044 11.9166 9.34999 11.7004 9.34999 11.475V8.92499C9.34999 8.69956 9.26044 8.48336 9.10103 8.32395C8.94163 8.16454 8.72543 8.07499 8.49999 8.07499ZM8.49999 4.67499C8.28985 4.67499 8.08443 4.73731 7.9097 4.85406C7.73497 4.97081 7.59879 5.13675 7.51837 5.33089C7.43795 5.52504 7.41691 5.73867 7.45791 5.94478C7.49891 6.15088 7.6001 6.3402 7.74869 6.48879C7.89729 6.63739 8.08661 6.73858 8.29271 6.77958C8.49881 6.82057 8.71245 6.79953 8.90659 6.71911C9.10074 6.6387 9.26668 6.50251 9.38343 6.32779C9.50018 6.15306 9.56249 5.94764 9.56249 5.73749C9.56249 5.4557 9.45055 5.18545 9.25129 4.98619C9.05204 4.78694 8.78179 4.67499 8.49999 4.67499V4.67499Z" fill="black"/>
</svg>
