<svg width="20" height="20" viewBox="0 0 20 20" fill="none" xmlns="http://www.w3.org/2000/svg">
<path d="M10.0001 1.66675C8.35191 1.66675 6.74074 2.15549 5.37033 3.07117C3.99992 3.98685 2.93182 5.28834 2.30109 6.81105C1.67036 8.33377 1.50533 10.0093 1.82687 11.6258C2.14842 13.2423 2.94209 14.7272 4.10753 15.8926C5.27297 17.0581 6.75782 17.8518 8.37433 18.1733C9.99084 18.4948 11.6664 18.3298 13.1891 17.6991C14.7118 17.0683 16.0133 16.0002 16.929 14.6298C17.8447 13.2594 18.3334 11.6483 18.3334 10.0001C18.331 7.7907 17.4522 5.67251 15.8899 4.11024C14.3277 2.54797 12.2095 1.66921 10.0001 1.66675V1.66675ZM10.0001 16.6667C8.68154 16.6667 7.39261 16.2758 6.29628 15.5432C5.19996 14.8107 4.34547 13.7695 3.84089 12.5513C3.3363 11.3331 3.20428 9.99269 3.46152 8.69948C3.71875 7.40627 4.35369 6.21839 5.28604 5.28604C6.21839 4.35369 7.40628 3.71875 8.69948 3.46151C9.99269 3.20428 11.3331 3.3363 12.5513 3.84088C13.7695 4.34547 14.8107 5.19995 15.5432 6.29628C16.2758 7.39261 16.6668 8.68154 16.6668 10.0001C16.6647 11.7676 15.9617 13.4621 14.7119 14.7119C13.4621 15.9617 11.7676 16.6647 10.0001 16.6667V16.6667ZM10.0001 9.58342C9.77907 9.58342 9.56711 9.67121 9.41083 9.82749C9.25455 9.98377 9.16675 10.1957 9.16675 10.4167V12.9167C9.16675 13.1378 9.25455 13.3497 9.41083 13.506C9.56711 13.6623 9.77907 13.7501 10.0001 13.7501C10.2211 13.7501 10.4331 13.6623 10.5893 13.506C10.7456 13.3497 10.8334 13.1378 10.8334 12.9167V10.4167C10.8334 10.1957 10.7456 9.98377 10.5893 9.82749C10.4331 9.67121 10.2211 9.58342 10.0001 9.58342ZM10.0001 6.25008C9.79406 6.25008 9.59267 6.31117 9.42137 6.42563C9.25006 6.54009 9.11655 6.70278 9.03771 6.89312C8.95887 7.08346 8.93824 7.2929 8.97843 7.49497C9.01863 7.69703 9.11784 7.88264 9.26352 8.02832C9.4092 8.174 9.5948 8.27321 9.79687 8.3134C9.99893 8.35359 10.2084 8.33296 10.3987 8.25412C10.5891 8.17528 10.7517 8.04177 10.8662 7.87047C10.9807 7.69917 11.0418 7.49777 11.0418 7.29175C11.0418 7.01548 10.932 6.75053 10.7367 6.55518C10.5413 6.35983 10.2764 6.25008 10.0001 6.25008V6.25008Z" fill="#5F6C86"/>
</svg>
