<svg width="20" height="20" viewBox="0 0 20 20" fill="none" xmlns="http://www.w3.org/2000/svg">
<path d="M11.1663 9.99992L16.4163 4.74992C16.7497 4.41658 16.7497 3.91659 16.4163 3.58325C16.083 3.24992 15.583 3.24992 15.2497 3.58325L9.99967 8.83325L4.74967 3.58325C4.41634 3.24992 3.91634 3.24992 3.58301 3.58325C3.24967 3.91659 3.24967 4.41658 3.58301 4.74992L8.83301 9.99992L3.58301 15.2499C3.41634 15.4166 3.33301 15.5833 3.33301 15.8333C3.33301 16.3333 3.66634 16.6666 4.16634 16.6666C4.41634 16.6666 4.58301 16.5833 4.74967 16.4166L9.99967 11.1666L15.2497 16.4166C15.4163 16.5833 15.583 16.6666 15.833 16.6666C16.083 16.6666 16.2497 16.5833 16.4163 16.4166C16.7497 16.0833 16.7497 15.5833 16.4163 15.2499L11.1663 9.99992Z" fill="black"/>
</svg>
