<svg width="20" height="20" viewBox="0 0 20 20" fill="none" xmlns="http://www.w3.org/2000/svg">
<rect width="20" height="20" rx="2.5" fill="#2C5CD0"/>
<path d="M14.66 6.67368C14.5954 6.60859 14.5186 6.55693 14.434 6.52167C14.3493 6.48641 14.2586 6.46826 14.1669 6.46826C14.0752 6.46826 13.9845 6.48641 13.8998 6.52167C13.8152 6.55693 13.7384 6.60859 13.6738 6.67368L8.50024 11.8542L6.32663 9.67368C6.2596 9.60893 6.18047 9.55802 6.09377 9.52385C6.00706 9.48968 5.91447 9.47292 5.82129 9.47453C5.72811 9.47614 5.63616 9.49609 5.55069 9.53324C5.46522 9.57039 5.3879 9.62401 5.32315 9.69104C5.2584 9.75807 5.20749 9.83719 5.17332 9.9239C5.13915 10.0106 5.1224 10.1032 5.12401 10.1964C5.12562 10.2896 5.14557 10.3815 5.18272 10.467C5.21987 10.5524 5.27349 10.6298 5.34051 10.6945L8.00718 13.3612C8.07174 13.4263 8.14855 13.4779 8.23317 13.5132C8.31779 13.5484 8.40856 13.5666 8.50024 13.5666C8.59191 13.5666 8.68268 13.5484 8.7673 13.5132C8.85193 13.4779 8.92873 13.4263 8.99329 13.3612L14.66 7.69451C14.7304 7.62948 14.7867 7.55056 14.8252 7.46271C14.8637 7.37486 14.8835 7.28 14.8835 7.18409C14.8835 7.08819 14.8637 6.99333 14.8252 6.90548C14.7867 6.81763 14.7304 6.73871 14.66 6.67368V6.67368Z" fill="white"/>
</svg>
