<svg width="17" height="17" viewBox="0 0 17 17" fill="none" xmlns="http://www.w3.org/2000/svg">
<path d="M16.7455 15.5583L13.6079 12.4207C16.2367 9.11351 15.7279 4.27993 12.4207 1.65114C9.11351 -0.977643 4.27993 -0.384046 1.65114 2.83834C-0.977643 6.14552 -0.384046 10.9791 2.83834 13.6079C5.63673 15.8127 9.62231 15.8127 12.4207 13.6079L15.5583 16.7455C15.8975 17.0847 16.4063 17.0847 16.7455 16.7455C17.0847 16.4063 17.0847 15.8975 16.7455 15.5583ZM7.67192 13.6079C4.36473 13.6079 1.73594 10.9791 1.73594 7.67192C1.73594 4.36473 4.36473 1.73594 7.67192 1.73594C10.9791 1.73594 13.6079 4.36473 13.6079 7.67192C13.6079 10.9791 10.9791 13.6079 7.67192 13.6079Z" fill="#424C5D"/>
</svg>
