<svg width="40" height="40" viewBox="0 0 40 40" fill="none" xmlns="http://www.w3.org/2000/svg">
<circle cx="20" cy="20" r="19.5" fill="white" stroke="#EAEBEB"/>
<g clip-path="url(#clip0_4509_6784)">
<path d="M20.4391 7.47693C20.2861 7.38772 20.1122 7.34072 19.9351 7.34072C19.7579 7.34072 19.584 7.38773 19.431 7.47693C17.6037 8.55072 16.1168 10.1188 15.1415 12.0005C14.1663 13.8822 13.7423 16.0011 13.9184 18.1132L14.0662 19.8377L11.7799 21.2352C11.176 21.5268 10.698 22.0272 10.4343 22.6438C10.1705 23.2604 10.1388 23.9516 10.3449 24.5897L11.5468 28.9032C11.5889 29.0543 11.6659 29.1934 11.7717 29.3092C11.8775 29.425 12.009 29.5143 12.1557 29.5699C12.3024 29.6255 12.46 29.6458 12.616 29.6292C12.772 29.6126 12.9219 29.5595 13.0535 29.4742L15.692 27.7672C16.0683 28.5115 16.5131 29.2192 17.0206 29.8809C17.1141 30.0023 17.2342 30.1006 17.3716 30.1683C17.509 30.2359 17.6602 30.2711 17.8134 30.2711L22.1976 30.2711C22.3289 30.2711 22.4589 30.2453 22.5803 30.1951C22.7016 30.1449 22.8118 30.0712 22.9047 29.9783C22.925 29.958 22.9444 29.9366 22.9634 29.9141C23.5074 29.2626 23.9817 28.556 24.3787 27.8058L26.9574 29.4743C27.0891 29.5594 27.239 29.6124 27.3949 29.629C27.5509 29.6456 27.7085 29.6253 27.8552 29.5697C28.0018 29.5141 28.1334 29.4248 28.2391 29.309C28.3449 29.1933 28.422 29.0542 28.4642 28.9032L29.6681 24.5842C29.8206 23.9594 29.7707 23.3023 29.5256 22.7077C29.2805 22.1131 28.8528 21.6117 28.3043 21.2759L25.8805 19.7978L25.9509 18.1187C26.1341 16.0051 25.7133 13.8828 24.7375 11.9989C23.7618 10.115 22.2712 8.54688 20.4391 7.47693ZM13.1081 27.0567L12.257 24.0049C12.1929 23.804 12.208 23.5863 12.2993 23.3963C12.3906 23.2062 12.5511 23.0583 12.748 22.9829L14.2567 22.0628L14.3428 23.0681C14.4293 24.0261 14.6211 24.9717 14.9147 25.8877L13.1081 27.0567ZM27.7398 24.0529L26.9025 27.0563L25.1813 25.9425C25.4899 25.0199 25.6785 24.0613 25.7424 23.0906L25.7848 22.0814L27.2471 22.9732C27.4294 23.0815 27.5743 23.243 27.6624 23.4359C27.7504 23.6289 27.7775 23.8441 27.7398 24.0529ZM23.9561 17.9862L23.7451 22.986C23.6057 24.9091 22.9005 26.7481 21.7184 28.2713L18.3182 28.2713C17.1903 26.6868 16.5056 24.83 16.3347 22.8925L16.1124 20.2967C16.1115 20.2562 16.108 20.2158 16.102 20.1758L15.912 17.9565C15.7762 16.3202 16.077 14.6771 16.7838 13.1951C17.4906 11.7131 18.578 10.4452 19.9351 9.52092C21.3009 10.4436 22.3944 11.7156 23.1016 13.2044C23.8088 14.6933 24.1039 16.3445 23.9561 17.9862ZM18.945 14.2804C18.7352 14.4902 18.5923 14.7575 18.5344 15.0484C18.4766 15.3394 18.5063 15.641 18.6198 15.9151C18.7333 16.1892 18.9256 16.4235 19.1723 16.5883C19.4189 16.7531 19.7089 16.8411 20.0056 16.8411C20.3023 16.8411 20.5923 16.7531 20.839 16.5883C21.0857 16.4235 21.2779 16.1892 21.3914 15.9151C21.505 15.641 21.5347 15.3394 21.4768 15.0484C21.4189 14.7575 21.2761 14.4902 21.0663 14.2804C20.927 14.1411 20.7616 14.0306 20.5796 13.9552C20.3977 13.8798 20.2026 13.841 20.0056 13.841C19.8086 13.841 19.6135 13.8798 19.4316 13.9552C19.2496 14.0306 19.0842 14.1411 18.9449 14.2804L18.945 14.2804Z" fill="#565758"/>
</g>
<defs>
<clipPath id="clip0_4509_6784">
<rect width="24" height="24" fill="white" transform="translate(3 22) rotate(-45)"/>
</clipPath>
</defs>
</svg>
