<svg width="40" height="40" viewBox="0 0 40 40" fill="none" xmlns="http://www.w3.org/2000/svg">
<circle cx="20" cy="20" r="20" fill="#12344D"/>
<path d="M26.9998 19H20.9998V13C20.9998 12.4 20.5998 12 19.9998 12C19.3998 12 18.9998 12.4 18.9998 13V19H12.9998C12.3998 19 11.9998 19.4 11.9998 20C11.9998 20.6 12.3998 21 12.9998 21H18.9998V27C18.9998 27.6 19.3998 28 19.9998 28C20.5998 28 20.9998 27.6 20.9998 27V21H26.9998C27.5998 21 27.9998 20.6 27.9998 20C27.9998 19.4 27.5998 19 26.9998 19Z" fill="white"/>
</svg>
