<svg width="20" height="20" viewBox="0 0 20 20" fill="none" xmlns="http://www.w3.org/2000/svg">
<path d="M10 9.16663C10.4602 9.16663 10.8333 9.53971 10.8333 9.99996V10.8333H11.6667C12.1269 10.8333 12.5 11.2064 12.5 11.6666C12.5 12.1269 12.1269 12.5 11.6667 12.5H10.8333V13.3333C10.8333 13.7935 10.4602 14.1666 10 14.1666C9.53975 14.1666 9.16667 13.7935 9.16667 13.3333V12.5H8.33333C7.8731 12.5 7.5 12.1269 7.5 11.6666C7.5 11.2064 7.8731 10.8333 8.33333 10.8333H9.16667V9.99996C9.16667 9.53971 9.53975 9.16663 10 9.16663Z" fill="#424C5D"/>
<path fill-rule="evenodd" clip-rule="evenodd" d="M10.0001 1.66663C10.4603 1.66663 10.8334 2.03973 10.8334 2.49996H13.3334C13.3334 2.03973 13.7065 1.66663 14.1667 1.66663C14.627 1.66663 15.0001 2.03973 15.0001 2.49996C16.841 2.49996 18.3334 3.99234 18.3334 5.83329V15C18.3334 16.8409 16.841 18.3333 15.0001 18.3333H5.00008C3.15913 18.3333 1.66675 16.8409 1.66675 15V5.83329C1.66675 3.99234 3.15913 2.49996 5.00008 2.49996C5.00008 2.03973 5.37318 1.66663 5.83341 1.66663C6.29365 1.66663 6.66675 2.03973 6.66675 2.49996H9.16675C9.16675 2.03973 9.53983 1.66663 10.0001 1.66663ZM3.33341 7.49996V15C3.33341 15.9205 4.07961 16.6666 5.00008 16.6666H15.0001C15.9206 16.6666 16.6667 15.9205 16.6667 15V7.49996H3.33341ZM16.6667 5.83329C16.6667 4.91282 15.9206 4.16663 15.0001 4.16663C15.0001 4.62686 14.627 4.99996 14.1667 4.99996C13.7065 4.99996 13.3334 4.62686 13.3334 4.16663H10.8334C10.8334 4.62686 10.4603 4.99996 10.0001 4.99996C9.53983 4.99996 9.16675 4.62686 9.16675 4.16663H6.66675C6.66675 4.62686 6.29365 4.99996 5.83341 4.99996C5.37318 4.99996 5.00008 4.62686 5.00008 4.16663C4.07961 4.16663 3.33341 4.91282 3.33341 5.83329H16.6667Z" fill="#424C5D"/>
</svg>
