<svg width="20" height="15" viewBox="0 0 20 15" fill="none" xmlns="http://www.w3.org/2000/svg">
<g clip-path="url(#clip0_4476_5785)">
<path d="M1.36364 15H4.54545V7.27274L0 3.86365V13.6364C0 14.3909 0.611364 15 1.36364 15Z" fill="#4285F4"/>
<path d="M15.4546 15H18.6364C19.391 15 20 14.3886 20 13.6364V3.86365L15.4546 7.27274" fill="#34A853"/>
<path d="M15.4546 1.3636V7.27269L20 3.8636V2.04542C20 0.359053 18.075 -0.602311 16.7273 0.409053" fill="#FBBC04"/>
<path d="M4.54541 7.27274V1.36365L9.99996 5.45456L15.4545 1.36365V7.27274L9.99996 11.3636" fill="#EA4335"/>
<path d="M0 2.04542V3.8636L4.54545 7.27269V1.3636L3.27273 0.409053C1.92273 -0.602311 0 0.359053 0 2.04542Z" fill="#C5221F"/>
</g>
<defs>
<clipPath id="clip0_4476_5785">
<rect width="20" height="15" fill="white"/>
</clipPath>
</defs>
</svg>
