<svg width="20" height="20" viewBox="0 0 20 20" fill="none" xmlns="http://www.w3.org/2000/svg">
<path d="M10 9.16675C10.4602 9.16675 10.8333 9.53983 10.8333 10.0001V10.8334H11.6667C12.1269 10.8334 12.5 11.2065 12.5 11.6667C12.5 12.127 12.1269 12.5001 11.6667 12.5001H10.8333V13.3334C10.8333 13.7937 10.4602 14.1667 10 14.1667C9.53975 14.1667 9.16667 13.7937 9.16667 13.3334V12.5001H8.33333C7.8731 12.5001 7.5 12.127 7.5 11.6667C7.5 11.2065 7.8731 10.8334 8.33333 10.8334H9.16667V10.0001C9.16667 9.53983 9.53975 9.16675 10 9.16675Z" fill="#424C5D"/>
<path fill-rule="evenodd" clip-rule="evenodd" d="M10.0001 1.66675C10.4603 1.66675 10.8334 2.03985 10.8334 2.50008H13.3334C13.3334 2.03985 13.7065 1.66675 14.1667 1.66675C14.627 1.66675 15.0001 2.03985 15.0001 2.50008C16.841 2.50008 18.3334 3.99246 18.3334 5.83341V15.0001C18.3334 16.841 16.841 18.3334 15.0001 18.3334H5.00008C3.15913 18.3334 1.66675 16.841 1.66675 15.0001V5.83341C1.66675 3.99246 3.15913 2.50008 5.00008 2.50008C5.00008 2.03985 5.37318 1.66675 5.83341 1.66675C6.29365 1.66675 6.66675 2.03985 6.66675 2.50008H9.16675C9.16675 2.03985 9.53983 1.66675 10.0001 1.66675ZM3.33341 7.50008V15.0001C3.33341 15.9206 4.07961 16.6667 5.00008 16.6667H15.0001C15.9206 16.6667 16.6667 15.9206 16.6667 15.0001V7.50008H3.33341ZM16.6667 5.83341C16.6667 4.91294 15.9206 4.16675 15.0001 4.16675C15.0001 4.62698 14.627 5.00008 14.1667 5.00008C13.7065 5.00008 13.3334 4.62698 13.3334 4.16675H10.8334C10.8334 4.62698 10.4603 5.00008 10.0001 5.00008C9.53983 5.00008 9.16675 4.62698 9.16675 4.16675H6.66675C6.66675 4.62698 6.29365 5.00008 5.83341 5.00008C5.37318 5.00008 5.00008 4.62698 5.00008 4.16675C4.07961 4.16675 3.33341 4.91294 3.33341 5.83341H16.6667Z" fill="#424C5D"/>
</svg>
