<svg width="292" height="40" viewBox="0 0 292 40" fill="none" xmlns="http://www.w3.org/2000/svg">
<circle cx="20" cy="20" r="20" fill="#12344D"/>
<path d="M27 19H21V13C21 12.4 20.6 12 20 12C19.4 12 19 12.4 19 13V19H13C12.4 19 12 19.4 12 20C12 20.6 12.4 21 13 21H19V27C19 27.6 19.4 28 20 28C20.6 28 21 27.6 21 27V21H27C27.6 21 28 20.6 28 20C28 19.4 27.6 19 27 19Z" fill="white"/>
<circle cx="84" cy="20" r="19.5" fill="white" stroke="#EAEBEB"/>
<path d="M91 12L77 12C76.2044 12 75.4413 12.3161 74.8787 12.8787C74.3161 13.4413 74 14.2044 74 15V25C74 25.7956 74.3161 26.5587 74.8787 27.1213C75.4413 27.6839 76.2044 28 77 28H91C91.7956 28 92.5587 27.6839 93.1213 27.1213C93.6839 26.5587 94 25.7956 94 25V15C94 14.2044 93.6839 13.4413 93.1213 12.8787C92.5587 12.3161 91.7956 12 91 12V12ZM77 14H91C91.2652 14 91.5196 14.1054 91.7071 14.2929C91.8946 14.4804 92 14.7348 92 15L84 19.88L76 15C76 14.7348 76.1054 14.4804 76.2929 14.2929C76.4804 14.1054 76.7348 14 77 14V14ZM92 25C92 25.2652 91.8946 25.5196 91.7071 25.7071C91.5196 25.8946 91.2652 26 91 26H77C76.7348 26 76.4804 25.8946 76.2929 25.7071C76.1054 25.5196 76 25.2652 76 25V17.28L83.48 21.85C83.632 21.9378 83.8045 21.984 83.98 21.984C84.1555 21.984 84.328 21.9378 84.48 21.85L92 17.28V25Z" fill="#565758"/>
<circle cx="148" cy="20" r="19.5" fill="white" stroke="#EAEBEB"/>
<g clip-path="url(#clip0_4477_6854)">
<path d="M148.439 7.47693C148.286 7.38772 148.112 7.34072 147.935 7.34072C147.758 7.34072 147.584 7.38773 147.431 7.47693C145.604 8.55072 144.117 10.1188 143.142 12.0005C142.167 13.8822 141.743 16.0011 141.919 18.1132L142.066 19.8377L139.78 21.2352C139.176 21.5268 138.698 22.0272 138.435 22.6438C138.171 23.2604 138.139 23.9516 138.345 24.5897L139.547 28.9032C139.589 29.0543 139.666 29.1934 139.772 29.3092C139.878 29.425 140.009 29.5143 140.156 29.5699C140.303 29.6255 140.46 29.6458 140.616 29.6292C140.772 29.6126 140.922 29.5595 141.054 29.4742L143.692 27.7672C144.069 28.5115 144.513 29.2192 145.021 29.8809C145.114 30.0023 145.234 30.1006 145.372 30.1683C145.509 30.2359 145.66 30.2711 145.814 30.2711L150.198 30.2711C150.329 30.2711 150.459 30.2453 150.58 30.1951C150.702 30.1449 150.812 30.0712 150.905 29.9783C150.925 29.958 150.945 29.9366 150.964 29.9141C151.508 29.2626 151.982 28.556 152.379 27.8058L154.958 29.4743C155.089 29.5594 155.239 29.6124 155.395 29.629C155.551 29.6456 155.709 29.6253 155.855 29.5697C156.002 29.5141 156.134 29.4248 156.239 29.309C156.345 29.1933 156.422 29.0542 156.464 28.9032L157.668 24.5842C157.821 23.9594 157.771 23.3023 157.526 22.7077C157.281 22.1131 156.853 21.6117 156.305 21.2759L153.881 19.7978L153.951 18.1187C154.134 16.0051 153.714 13.8828 152.738 11.9989C151.762 10.115 150.271 8.54688 148.439 7.47693V7.47693ZM141.108 27.0567L140.257 24.0049C140.193 23.804 140.208 23.5863 140.3 23.3963C140.391 23.2062 140.551 23.0583 140.748 22.9829L142.257 22.0628L142.343 23.0681C142.43 24.0261 142.621 24.9717 142.915 25.8877L141.108 27.0567ZM155.74 24.0529L154.903 27.0563L153.182 25.9425C153.49 25.0199 153.679 24.0613 153.743 23.0906L153.785 22.0814L155.247 22.9732C155.43 23.0815 155.575 23.243 155.663 23.4359C155.751 23.6289 155.778 23.8441 155.74 24.0529V24.0529ZM151.956 17.9862L151.745 22.986C151.606 24.9091 150.901 26.7481 149.719 28.2713L146.318 28.2713C145.191 26.6868 144.506 24.83 144.335 22.8925L144.113 20.2967C144.112 20.2562 144.108 20.2158 144.102 20.1758L143.912 17.9565C143.776 16.3202 144.077 14.6771 144.784 13.1951C145.491 11.7131 146.578 10.4452 147.935 9.52092C149.301 10.4436 150.395 11.7156 151.102 13.2044C151.809 14.6933 152.104 16.3445 151.956 17.9862V17.9862ZM146.945 14.2804C146.735 14.4902 146.593 14.7575 146.535 15.0484C146.477 15.3394 146.507 15.641 146.62 15.9151C146.734 16.1892 146.926 16.4235 147.173 16.5883C147.419 16.7531 147.709 16.8411 148.006 16.8411C148.303 16.8411 148.593 16.7531 148.839 16.5883C149.086 16.4235 149.278 16.1892 149.392 15.9151C149.505 15.641 149.535 15.3394 149.477 15.0484C149.419 14.7575 149.276 14.4902 149.067 14.2804C148.927 14.1411 148.762 14.0306 148.58 13.9552C148.398 13.8798 148.203 13.841 148.006 13.841C147.809 13.841 147.614 13.8798 147.432 13.9552C147.25 14.0306 147.084 14.1411 146.945 14.2804L146.945 14.2804Z" fill="#565758"/>
</g>
<circle cx="210" cy="20" r="18" fill="#E93C40"/>
<path d="M212.006 15.3636V27H209.545V17.6989H209.477L206.812 19.3693V17.1875L209.693 15.3636H212.006Z" fill="white"/>
<circle cx="272" cy="20" r="20" fill="#F6EFAB"/>
<path d="M274.155 16.6378C274.098 16.0649 273.854 15.6198 273.423 15.3026C272.992 14.9853 272.408 14.8267 271.669 14.8267C271.167 14.8267 270.743 14.8977 270.398 15.0398C270.052 15.1771 269.787 15.3688 269.602 15.6151C269.422 15.8613 269.332 16.1406 269.332 16.4531C269.323 16.7135 269.377 16.9408 269.496 17.1349C269.619 17.3291 269.787 17.4972 270 17.6392C270.213 17.7765 270.459 17.8972 270.739 18.0014C271.018 18.1008 271.316 18.1861 271.633 18.2571L272.94 18.5696C273.575 18.7116 274.157 18.901 274.687 19.1378C275.218 19.3745 275.677 19.6657 276.065 20.0114C276.454 20.357 276.754 20.7642 276.967 21.2329C277.185 21.7017 277.296 22.2391 277.301 22.8452C277.296 23.7353 277.069 24.5071 276.619 25.1605C276.174 25.8092 275.53 26.3134 274.687 26.6733C273.849 27.0284 272.838 27.206 271.655 27.206C270.481 27.206 269.458 27.026 268.587 26.6662C267.72 26.3063 267.043 25.7737 266.555 25.0682C266.072 24.3579 265.819 23.4796 265.795 22.4332H268.771C268.804 22.9209 268.944 23.3281 269.19 23.6548C269.441 23.9768 269.775 24.2206 270.192 24.3864C270.613 24.5473 271.089 24.6278 271.619 24.6278C272.14 24.6278 272.592 24.5521 272.976 24.4006C273.364 24.249 273.665 24.0383 273.878 23.7685C274.091 23.4986 274.197 23.1884 274.197 22.8381C274.197 22.5114 274.1 22.2367 273.906 22.0142C273.717 21.7917 273.437 21.6023 273.068 21.446C272.704 21.2898 272.256 21.1477 271.726 21.0199L270.142 20.6222C268.916 20.3239 267.947 19.8575 267.237 19.223C266.527 18.5885 266.174 17.7339 266.179 16.6591C266.174 15.7784 266.409 15.009 266.882 14.3508C267.36 13.6927 268.016 13.179 268.849 12.8097C269.683 12.4403 270.63 12.2557 271.69 12.2557C272.77 12.2557 273.712 12.4403 274.517 12.8097C275.327 13.179 275.956 13.6927 276.406 14.3508C276.856 15.009 277.088 15.7713 277.102 16.6378H274.155Z" fill="#FEBA09"/>
<defs>
<clipPath id="clip0_4477_6854">
<rect width="24" height="24" fill="white" transform="translate(131 22) rotate(-45)"/>
</clipPath>
</defs>
</svg>
