<svg width="40" height="40" viewBox="0 0 40 40" fill="none" xmlns="http://www.w3.org/2000/svg">
<circle cx="20" cy="20" r="19.5" fill="white" stroke="#EAEBEB"/>
<g clip-path="url(#clip0_4509_5681)">
<path d="M20.4394 7.47693C20.2864 7.38772 20.1124 7.34072 19.9353 7.34072C19.7582 7.34072 19.5842 7.38773 19.4312 7.47693C17.6039 8.55072 16.117 10.1188 15.1418 12.0005C14.1665 13.8822 13.7426 16.0011 13.9187 18.1132L14.0664 19.8377L11.7801 21.2352C11.1762 21.5268 10.6983 22.0272 10.4345 22.6438C10.1708 23.2604 10.139 23.9516 10.3452 24.5897L11.547 28.9032C11.5891 29.0543 11.6662 29.1934 11.7719 29.3092C11.8777 29.425 12.0092 29.5143 12.1559 29.5699C12.3026 29.6255 12.4603 29.6458 12.6163 29.6292C12.7722 29.6126 12.9221 29.5595 13.0538 29.4742L15.6923 27.7672C16.0685 28.5115 16.5133 29.2192 17.0209 29.8809C17.1143 30.0023 17.2344 30.1006 17.3718 30.1683C17.5093 30.2359 17.6604 30.2711 17.8136 30.2711L22.1978 30.2711C22.3291 30.2711 22.4592 30.2453 22.5805 30.1951C22.7018 30.1449 22.8121 30.0712 22.9049 29.9783C22.9253 29.958 22.9446 29.9366 22.9636 29.9141C23.5076 29.2626 23.982 28.556 24.3789 27.8058L26.9577 29.4743C27.0893 29.5594 27.2392 29.6124 27.3952 29.629C27.5511 29.6456 27.7088 29.6253 27.8554 29.5697C28.0021 29.5141 28.1336 29.4248 28.2394 29.309C28.3452 29.1933 28.4223 29.0542 28.4644 28.9032L29.6683 24.5842C29.8209 23.9594 29.7709 23.3023 29.5258 22.7077C29.2807 22.1131 28.8531 21.6117 28.3045 21.2759L25.8808 19.7978L25.9512 18.1187C26.1343 16.0051 25.7135 13.8828 24.7378 11.9989C23.762 10.115 22.2714 8.54688 20.4394 7.47693V7.47693ZM13.1083 27.0567L12.2573 24.0049C12.1931 23.804 12.2083 23.5863 12.2995 23.3963C12.3908 23.2062 12.5514 23.0583 12.7482 22.9829L14.2569 22.0628L14.343 23.0681C14.4295 24.0261 14.6213 24.9717 14.9149 25.8877L13.1083 27.0567ZM27.7401 24.0529L26.9028 27.0563L25.1816 25.9425C25.4902 25.0199 25.6787 24.0613 25.7427 23.0906L25.785 22.0814L27.2473 22.9732C27.4297 23.0815 27.5746 23.243 27.6626 23.4359C27.7507 23.6289 27.7777 23.8441 27.7401 24.0529V24.0529ZM23.9563 17.9862L23.7453 22.986C23.6059 24.9091 22.9008 26.7481 21.7186 28.2713L18.3184 28.2713C17.1905 26.6868 16.5058 24.83 16.3349 22.8925L16.1126 20.2967C16.1117 20.2562 16.1083 20.2158 16.1023 20.1758L15.9123 17.9565C15.7764 16.3202 16.0772 14.6771 16.784 13.1951C17.4908 11.7131 18.5783 10.4452 19.9353 9.52092C21.3012 10.4436 22.3946 11.7156 23.1019 13.2044C23.8091 14.6933 24.1041 16.3445 23.9563 17.9862V17.9862ZM18.9452 14.2804C18.7354 14.4902 18.5926 14.7575 18.5347 15.0484C18.4768 15.3394 18.5065 15.641 18.62 15.9151C18.7336 16.1892 18.9258 16.4235 19.1725 16.5883C19.4192 16.7531 19.7092 16.8411 20.0059 16.8411C20.3025 16.8411 20.5925 16.7531 20.8392 16.5883C21.0859 16.4235 21.2782 16.1892 21.3917 15.9151C21.5052 15.641 21.5349 15.3394 21.477 15.0484C21.4192 14.7575 21.2763 14.4902 21.0665 14.2804C20.9272 14.1411 20.7619 14.0306 20.5799 13.9552C20.3979 13.8798 20.2028 13.841 20.0058 13.841C19.8089 13.841 19.6138 13.8798 19.4318 13.9552C19.2498 14.0306 19.0844 14.1411 18.9452 14.2804L18.9452 14.2804Z" fill="#565758"/>
</g>
<defs>
<clipPath id="clip0_4509_5681">
<rect width="24" height="24" fill="white" transform="translate(3 22) rotate(-45)"/>
</clipPath>
</defs>
</svg>
