<svg width="14" height="14" viewBox="0 0 14 14" fill="none" xmlns="http://www.w3.org/2000/svg">
<path d="M8.22505 7.00004L13.7376 1.48751C14.0876 1.13751 14.0876 0.612504 13.7376 0.262502C13.3876 -0.0875005 12.8626 -0.0875005 12.5126 0.262502L7.00004 5.77504L1.48751 0.262502C1.13751 -0.0875005 0.612504 -0.0875005 0.262502 0.262502C-0.0875004 0.612504 -0.0875004 1.13751 0.262502 1.48751L5.77504 7.00004L0.262502 12.5126C0.0875007 12.6876 0 12.8626 0 13.1251C0 13.6501 0.350002 14.0001 0.875005 14.0001C1.13751 14.0001 1.31251 13.9126 1.48751 13.7376L7.00004 8.22505L12.5126 13.7376C12.6876 13.9126 12.8626 14.0001 13.1251 14.0001C13.3876 14.0001 13.5626 13.9126 13.7376 13.7376C14.0876 13.3876 14.0876 12.8626 13.7376 12.5126L8.22505 7.00004Z" fill="black"/>
</svg>
