<svg width="40" height="40" viewBox="0 0 40 40" fill="none" xmlns="http://www.w3.org/2000/svg">
<circle cx="20" cy="20" r="19.5" fill="white" stroke="#EAEBEB"/>
<g clip-path="url(#clip0_4530_7244)">
<path d="M20.4389 7.47693C20.2859 7.38772 20.1119 7.34072 19.9348 7.34072C19.7577 7.34072 19.5837 7.38773 19.4307 7.47693C17.6034 8.55072 16.1165 10.1188 15.1413 12.0005C14.166 13.8822 13.7421 16.0011 13.9182 18.1132L14.0659 19.8377L11.7796 21.2352C11.1757 21.5268 10.6978 22.0272 10.434 22.6438C10.1703 23.2604 10.1385 23.9516 10.3447 24.5897L11.5466 28.9032C11.5886 29.0543 11.6657 29.1934 11.7714 29.3092C11.8772 29.425 12.0088 29.5143 12.1554 29.5699C12.3021 29.6255 12.4598 29.6458 12.6158 29.6292C12.7717 29.6126 12.9216 29.5595 13.0533 29.4742L15.6918 27.7672C16.068 28.5115 16.5128 29.2192 17.0204 29.8809C17.1138 30.0023 17.2339 30.1006 17.3713 30.1683C17.5088 30.2359 17.6599 30.2711 17.8131 30.2711L22.1973 30.2711C22.3286 30.2711 22.4587 30.2453 22.58 30.1951C22.7013 30.1449 22.8116 30.0712 22.9044 29.9783C22.9248 29.958 22.9441 29.9366 22.9631 29.9141C23.5071 29.2626 23.9815 28.556 24.3785 27.8058L26.9572 29.4743C27.0889 29.5594 27.2387 29.6124 27.3947 29.629C27.5506 29.6456 27.7083 29.6253 27.8549 29.5697C28.0016 29.5141 28.1331 29.4248 28.2389 29.309C28.3447 29.1933 28.4218 29.0542 28.4639 28.9032L29.6679 24.5842C29.8204 23.9594 29.7705 23.3023 29.5253 22.7077C29.2802 22.1131 28.8526 21.6117 28.3041 21.2759L25.8803 19.7978L25.9507 18.1187C26.1338 16.0051 25.713 13.8828 24.7373 11.9989C23.7615 10.115 22.2709 8.54688 20.4389 7.47693V7.47693ZM13.1079 27.0567L12.2568 24.0049C12.1926 23.804 12.2078 23.5863 12.2991 23.3963C12.3903 23.2062 12.5509 23.0583 12.7477 22.9829L14.2564 22.0628L14.3425 23.0681C14.4291 24.0261 14.6208 24.9717 14.9145 25.8877L13.1079 27.0567ZM27.7396 24.0529L26.9023 27.0563L25.1811 25.9425C25.4897 25.0199 25.6783 24.0613 25.7422 23.0906L25.7845 22.0814L27.2469 22.9732C27.4292 23.0815 27.5741 23.243 27.6621 23.4359C27.7502 23.6289 27.7772 23.8441 27.7396 24.0529V24.0529ZM23.9558 17.9862L23.7449 22.986C23.6054 24.9091 22.9003 26.7481 21.7181 28.2713L18.3179 28.2713C17.19 26.6868 16.5053 24.83 16.3344 22.8925L16.1122 20.2967C16.1112 20.2562 16.1078 20.2158 16.1018 20.1758L15.9118 17.9565C15.7759 16.3202 16.0767 14.6771 16.7835 13.1951C17.4903 11.7131 18.5778 10.4452 19.9348 9.52092C21.3007 10.4436 22.3942 11.7156 23.1014 13.2044C23.8086 14.6933 24.1036 16.3445 23.9558 17.9862V17.9862ZM18.9447 14.2804C18.7349 14.4902 18.5921 14.7575 18.5342 15.0484C18.4763 15.3394 18.506 15.641 18.6196 15.9151C18.7331 16.1892 18.9253 16.4235 19.172 16.5883C19.4187 16.7531 19.7087 16.8411 20.0054 16.8411C20.302 16.8411 20.5921 16.7531 20.8387 16.5883C21.0854 16.4235 21.2777 16.1892 21.3912 15.9151C21.5047 15.641 21.5344 15.3394 21.4766 15.0484C21.4187 14.7575 21.2758 14.4902 21.066 14.2804C20.9268 14.1411 20.7614 14.0306 20.5794 13.9552C20.3974 13.8798 20.2023 13.841 20.0054 13.841C19.8084 13.841 19.6133 13.8798 19.4313 13.9552C19.2493 14.0306 19.084 14.1411 18.9447 14.2804L18.9447 14.2804Z" fill="#565758"/>
</g>
<defs>
<clipPath id="clip0_4530_7244">
<rect width="24" height="24" fill="white" transform="translate(3 22) rotate(-45)"/>
</clipPath>
</defs>
</svg>
