<svg width="40" height="40" viewBox="0 0 40 40" fill="none" xmlns="http://www.w3.org/2000/svg">
<circle cx="20" cy="20" r="19.5" fill="white" stroke="#EAEBEB"/>
<path d="M26.9998 12L12.9998 12C12.2041 12 11.441 12.3161 10.8784 12.8787C10.3158 13.4413 9.99976 14.2044 9.99976 15V25C9.99976 25.7956 10.3158 26.5587 10.8784 27.1213C11.441 27.6839 12.2041 28 12.9998 28H26.9998C27.7954 28 28.5585 27.6839 29.1211 27.1213C29.6837 26.5587 29.9998 25.7956 29.9998 25V15C29.9998 14.2044 29.6837 13.4413 29.1211 12.8787C28.5585 12.3161 27.7954 12 26.9998 12V12ZM12.9998 14H26.9998C27.265 14 27.5193 14.1054 27.7069 14.2929C27.8944 14.4804 27.9998 14.7348 27.9998 15L19.9998 19.88L11.9998 15C11.9998 14.7348 12.1051 14.4804 12.2926 14.2929C12.4802 14.1054 12.7345 14 12.9998 14V14ZM27.9998 25C27.9998 25.2652 27.8944 25.5196 27.7069 25.7071C27.5193 25.8946 27.265 26 26.9998 26H12.9998C12.7345 26 12.4802 25.8946 12.2926 25.7071C12.1051 25.5196 11.9998 25.2652 11.9998 25V17.28L19.4798 21.85C19.6318 21.9378 19.8042 21.984 19.9798 21.984C20.1553 21.984 20.3277 21.9378 20.4798 21.85L27.9998 17.28V25Z" fill="#565758"/>
</svg>
