<svg width="56" height="24" viewBox="0 0 56 24" fill="none" xmlns="http://www.w3.org/2000/svg">
<path d="M10.5996 11.9999L15.4996 7.0999C15.8996 6.6999 15.8996 6.0999 15.4996 5.6999C15.0996 5.2999 14.4996 5.2999 14.0996 5.6999L8.39961 11.3999C7.99961 11.7999 7.99961 12.3999 8.39961 12.7999L14.0996 18.4999C14.2996 18.6999 14.4996 18.7999 14.7996 18.7999C15.0996 18.7999 15.2996 18.6999 15.4996 18.4999C15.8996 18.0999 15.8996 17.4999 15.4996 17.0999L10.5996 11.9999Z" fill="black"/>
<path d="M45.4004 11.9999L40.5004 7.0999C40.1004 6.6999 40.1004 6.0999 40.5004 5.6999C40.9004 5.2999 41.5004 5.2999 41.9004 5.6999L47.6004 11.3999C48.0004 11.7999 48.0004 12.3999 47.6004 12.7999L41.9004 18.4999C41.7004 18.6999 41.5004 18.7999 41.2004 18.7999C40.9004 18.7999 40.7004 18.6999 40.5004 18.4999C40.1004 18.0999 40.1004 17.4999 40.5004 17.0999L45.4004 11.9999Z" fill="black"/>
</svg>
