<svg width="20" height="20" viewBox="0 0 20 20" fill="none" xmlns="http://www.w3.org/2000/svg">
<path d="M13.75 2.8125V6.5625H6.25V13.4375H2.5V4.0625C2.50097 3.73128 2.63298 3.4139 2.86719 3.17969C3.1014 2.94548 3.41878 2.81347 3.75 2.8125H13.75Z" fill="#4285F4"/>
<path d="M13.75 17.1875V13.4375H17.5L13.75 17.1875Z" fill="#EA4435"/>
<path d="M17.5 5.9375H13.75V13.4375H17.5V5.9375Z" fill="#FFBA00"/>
<path d="M13.75 17.1875V13.4375H6.25V17.1875H13.75Z" fill="#00AC47"/>
<path d="M17.5 4.0625V6.5625H13.75V2.8125H16.25C16.5812 2.81347 16.8986 2.94548 17.1328 3.17969C17.367 3.4139 17.499 3.73128 17.5 4.0625V4.0625Z" fill="#0066DA"/>
<path d="M6.25 13.4375V17.1875H3.75C3.41878 17.1865 3.1014 17.0545 2.86719 16.8203C2.63298 16.5861 2.50097 16.2687 2.5 15.9375V13.4375H6.25Z" fill="#188038"/>
<path d="M9.80615 10.6813C9.80615 11.2375 9.39365 11.8 8.4624 11.8C8.12973 11.8044 7.80186 11.7203 7.5124 11.5563L7.4624 11.5188L7.64365 11.0063L7.7249 11.0563C7.9458 11.19 8.19798 11.2633 8.45615 11.2688C8.55615 11.2752 8.65641 11.2613 8.75091 11.228C8.84542 11.1947 8.93224 11.1427 9.00615 11.075C9.05913 11.022 9.1004 10.9584 9.12732 10.8885C9.15423 10.8185 9.16618 10.7437 9.1624 10.6688C9.15615 10.2125 8.7374 10.05 8.34365 10.05H8.00615V9.5438H8.34365C8.6249 9.5438 9.04365 9.4063 9.04365 9.0313C9.04365 8.75005 8.8499 8.58755 8.5124 8.58755C8.2795 8.59261 8.05332 8.66656 7.8624 8.80005L7.7749 8.86255L7.5999 8.3688L7.64365 8.3313C7.92891 8.14795 8.2608 8.05033 8.5999 8.05005C9.34365 8.05005 9.6749 8.5063 9.6749 8.9563C9.67573 9.12569 9.62864 9.29186 9.53906 9.43563C9.44949 9.5794 9.32107 9.6949 9.16865 9.7688C9.35739 9.83451 9.52059 9.95807 9.63505 10.1219C9.7495 10.2857 9.80938 10.4815 9.80615 10.6813V10.6813Z" fill="#4285F4"/>
<path d="M11.6938 8.11255V11.7438H11.0813V8.75005L10.4938 9.0688L10.3625 8.5563L11.2188 8.11255H11.6938Z" fill="#4285F4"/>
</svg>
