<svg width="72" height="24" viewBox="0 0 72 24" fill="none" xmlns="http://www.w3.org/2000/svg">
<path d="M22 7.24002C22.0008 7.10841 21.9756 6.97795 21.9258 6.85611C21.876 6.73427 21.8027 6.62346 21.71 6.53002L17.47 2.29002C17.3766 2.19734 17.2658 2.12401 17.1439 2.07425C17.0221 2.02448 16.8916 1.99926 16.76 2.00002C16.6284 1.99926 16.4979 2.02448 16.3761 2.07425C16.2543 2.12401 16.1435 2.19734 16.05 2.29002L13.22 5.12002L2.29002 16.05C2.19734 16.1435 2.12401 16.2543 2.07425 16.3761C2.02448 16.4979 1.99926 16.6284 2.00002 16.76V21C2.00002 21.2652 2.10537 21.5196 2.29291 21.7071C2.48045 21.8947 2.7348 22 3.00002 22H7.24002C7.37994 22.0076 7.51991 21.9857 7.65084 21.9358C7.78176 21.8858 7.90073 21.8089 8.00002 21.71L18.87 10.78L21.71 8.00002C21.8013 7.9031 21.8757 7.79155 21.93 7.67002C21.9397 7.59031 21.9397 7.50973 21.93 7.43002C21.9347 7.38347 21.9347 7.33657 21.93 7.29002L22 7.24002ZM6.83002 20H4.00002V17.17L13.93 7.24002L16.76 10.07L6.83002 20ZM18.17 8.66002L15.34 5.83002L16.76 4.42002L19.58 7.24002L18.17 8.66002Z" fill="#424C5D"/>
<path d="M58 18C58.2652 18 58.5196 17.8946 58.7071 17.7071C58.8946 17.5196 59 17.2652 59 17V11C59 10.7348 58.8946 10.4804 58.7071 10.2929C58.5196 10.1054 58.2652 10 58 10C57.7348 10 57.4804 10.1054 57.2929 10.2929C57.1054 10.4804 57 10.7348 57 11V17C57 17.2652 57.1054 17.5196 57.2929 17.7071C57.4804 17.8946 57.7348 18 58 18ZM68 6H64V5C64 4.20435 63.6839 3.44129 63.1213 2.87868C62.5587 2.31607 61.7956 2 61 2H59C58.2044 2 57.4413 2.31607 56.8787 2.87868C56.3161 3.44129 56 4.20435 56 5V6H52C51.7348 6 51.4804 6.10536 51.2929 6.29289C51.1054 6.48043 51 6.73478 51 7C51 7.26522 51.1054 7.51957 51.2929 7.70711C51.4804 7.89464 51.7348 8 52 8H53V19C53 19.7956 53.3161 20.5587 53.8787 21.1213C54.4413 21.6839 55.2044 22 56 22H64C64.7956 22 65.5587 21.6839 66.1213 21.1213C66.6839 20.5587 67 19.7956 67 19V8H68C68.2652 8 68.5196 7.89464 68.7071 7.70711C68.8946 7.51957 69 7.26522 69 7C69 6.73478 68.8946 6.48043 68.7071 6.29289C68.5196 6.10536 68.2652 6 68 6ZM58 5C58 4.73478 58.1054 4.48043 58.2929 4.29289C58.4804 4.10536 58.7348 4 59 4H61C61.2652 4 61.5196 4.10536 61.7071 4.29289C61.8946 4.48043 62 4.73478 62 5V6H58V5ZM65 19C65 19.2652 64.8946 19.5196 64.7071 19.7071C64.5196 19.8946 64.2652 20 64 20H56C55.7348 20 55.4804 19.8946 55.2929 19.7071C55.1054 19.5196 55 19.2652 55 19V8H65V19ZM62 18C62.2652 18 62.5196 17.8946 62.7071 17.7071C62.8946 17.5196 63 17.2652 63 17V11C63 10.7348 62.8946 10.4804 62.7071 10.2929C62.5196 10.1054 62.2652 10 62 10C61.7348 10 61.4804 10.1054 61.2929 10.2929C61.1054 10.4804 61 10.7348 61 11V17C61 17.2652 61.1054 17.5196 61.2929 17.7071C61.4804 17.8946 61.7348 18 62 18Z" fill="#424C5D"/>
</svg>
