<svg width="36" height="39" viewBox="0 0 36 39" fill="none" xmlns="http://www.w3.org/2000/svg">
<path d="M0.5 0.5H32C33.933 0.5 35.5 2.067 35.5 4V35C35.5 36.933 33.933 38.5 32 38.5H0.5V0.5Z" fill="#F9FAFB"/>
<path d="M18.0001 20.3333C18.4603 20.3333 18.8334 19.9602 18.8334 19.5C18.8334 19.0397 18.4603 18.6666 18.0001 18.6666C17.5398 18.6666 17.1667 19.0397 17.1667 19.5C17.1667 19.9602 17.5398 20.3333 18.0001 20.3333Z" fill="#424C5D" stroke="#424C5D" stroke-width="2" stroke-linecap="round" stroke-linejoin="round"/>
<path d="M18.0001 14.5C18.4603 14.5 18.8334 14.1269 18.8334 13.6667C18.8334 13.2065 18.4603 12.8334 18.0001 12.8334C17.5398 12.8334 17.1667 13.2065 17.1667 13.6667C17.1667 14.1269 17.5398 14.5 18.0001 14.5Z" stroke="#424C5D" stroke-width="2" stroke-linecap="round" stroke-linejoin="round"/>
<path d="M18.0001 26.1667C18.4603 26.1667 18.8334 25.7936 18.8334 25.3333C18.8334 24.8731 18.4603 24.5 18.0001 24.5C17.5398 24.5 17.1667 24.8731 17.1667 25.3333C17.1667 25.7936 17.5398 26.1667 18.0001 26.1667Z" stroke="#424C5D" stroke-width="2" stroke-linecap="round" stroke-linejoin="round"/>
<path d="M0.5 0.5H32C33.933 0.5 35.5 2.067 35.5 4V35C35.5 36.933 33.933 38.5 32 38.5H0.5V0.5Z" stroke="#E5E8EB"/>
</svg>
