<svg width="32" height="32" viewBox="0 0 32 32" fill="none" xmlns="http://www.w3.org/2000/svg">
<rect x="0.5" y="0.5" width="31" height="31" rx="3.5" fill="white"/>
<path d="M22 13.96C21.9931 13.8988 21.9796 13.8385 21.96 13.78V13.72C21.9279 13.6515 21.8852 13.5885 21.8333 13.5334V13.5334L17.8333 9.53337C17.7782 9.48152 17.7152 9.43876 17.6467 9.40671C17.6268 9.40388 17.6066 9.40388 17.5867 9.40671C17.5189 9.36787 17.4441 9.34294 17.3667 9.33337H14.6667C14.1362 9.33337 13.6275 9.54409 13.2525 9.91916C12.8774 10.2942 12.6667 10.8029 12.6667 11.3334V12H12C11.4696 12 10.9609 12.2108 10.5858 12.5858C10.2107 12.9609 10 13.4696 10 14V20.6667C10 21.1971 10.2107 21.7058 10.5858 22.0809C10.9609 22.456 11.4696 22.6667 12 22.6667H17.3333C17.8638 22.6667 18.3725 22.456 18.7475 22.0809C19.1226 21.7058 19.3333 21.1971 19.3333 20.6667V20H20C20.5304 20 21.0391 19.7893 21.4142 19.4143C21.7893 19.0392 22 18.5305 22 18V14C22 14 22 14 22 13.96ZM18 11.6067L19.7267 13.3334H18.6667C18.4899 13.3334 18.3203 13.2631 18.1953 13.1381C18.0702 13.0131 18 12.8435 18 12.6667V11.6067ZM18 20.6667C18 20.8435 17.9298 21.0131 17.8047 21.1381C17.6797 21.2631 17.5101 21.3334 17.3333 21.3334H12C11.8232 21.3334 11.6536 21.2631 11.5286 21.1381C11.4036 21.0131 11.3333 20.8435 11.3333 20.6667V14C11.3333 13.8232 11.4036 13.6537 11.5286 13.5286C11.6536 13.4036 11.8232 13.3334 12 13.3334H12.6667V18C12.6667 18.5305 12.8774 19.0392 13.2525 19.4143C13.6275 19.7893 14.1362 20 14.6667 20H18V20.6667ZM20.6667 18C20.6667 18.1769 20.5964 18.3464 20.4714 18.4714C20.3464 18.5965 20.1768 18.6667 20 18.6667H14.6667C14.4899 18.6667 14.3203 18.5965 14.1953 18.4714C14.0702 18.3464 14 18.1769 14 18V11.3334C14 11.1566 14.0702 10.987 14.1953 10.862C14.3203 10.7369 14.4899 10.6667 14.6667 10.6667H16.6667V12.6667C16.6667 13.1971 16.8774 13.7058 17.2525 14.0809C17.6275 14.456 18.1362 14.6667 18.6667 14.6667H20.6667V18Z" fill="#424C5D"/>
<rect x="0.5" y="0.5" width="31" height="31" rx="3.5" stroke="#E5E8EB"/>
</svg>
