<svg width="50" height="895" viewBox="0 0 50 895" fill="none" xmlns="http://www.w3.org/2000/svg">
<path d="M17.0005 30C17.0005 29.4477 17.4482 29 18.0005 29H22.0005C22.5528 29 23.0005 29.4477 23.0005 30V32C23.0005 32.5523 22.5528 33 22.0005 33H18.0005C17.4482 33 17.0005 32.5523 17.0005 32V30ZM27.0005 18C27.0005 17.4477 27.4482 17 28.0005 17H32.0005C32.5528 17 33.0005 17.4477 33.0005 18V20C33.0005 20.5523 32.5528 21 32.0005 21H28.0005C27.4482 21 27.0005 20.5523 27.0005 20V18ZM17.0005 18C17.0005 17.4477 17.4482 17 18.0005 17H22.0005C22.5528 17 23.0005 17.4477 23.0005 18V24C23.0005 24.5523 22.5528 25 22.0005 25H18.0005C17.4482 25 17.0005 24.5523 17.0005 24V18ZM27.0005 26C27.0005 25.4477 27.4482 25 28.0005 25H32.0005C32.5528 25 33.0005 25.4477 33.0005 26V32C33.0005 32.5523 32.5528 33 32.0005 33H28.0005C27.4482 33 27.0005 32.5523 27.0005 32V26Z" stroke="#DCEEFE" stroke-width="2" stroke-linecap="round" stroke-linejoin="round"/>
<path d="M24.9991 81C23.0596 81.0037 21.163 81.5713 19.5403 82.6337C17.9176 83.6962 16.639 85.2075 15.86 86.9838C15.0811 88.76 14.8354 90.7244 15.1531 92.6378C15.4707 94.5511 16.3379 96.3308 17.6491 97.76C18.5855 98.775 19.722 99.5851 20.987 100.139C22.252 100.693 23.6181 100.979 24.9991 100.979C26.3801 100.979 27.7461 100.693 29.0111 100.139C30.2761 99.5851 31.4127 98.775 32.3491 97.76C33.6602 96.3308 34.5274 94.5511 34.845 92.6378C35.1627 90.7244 34.9171 88.76 34.1381 86.9838C33.3592 85.2075 32.0805 83.6962 30.4578 82.6337C28.8352 81.5713 26.9386 81.0037 24.9991 81ZM24.9991 99C22.9275 98.9969 20.938 98.1903 19.4491 96.75C19.9011 95.6495 20.6701 94.7083 21.6583 94.0459C22.6465 93.3835 23.8094 93.0298 24.9991 93.0298C26.1888 93.0298 27.3516 93.3835 28.3398 94.0459C29.328 94.7083 30.097 95.6495 30.5491 96.75C29.0602 98.1903 27.0706 98.9969 24.9991 99ZM22.9991 89C22.9991 88.6044 23.1164 88.2178 23.3361 87.8889C23.5559 87.56 23.8683 87.3036 24.2337 87.1522C24.5992 87.0009 25.0013 86.9613 25.3893 87.0384C25.7772 87.1156 26.1336 87.3061 26.4133 87.5858C26.693 87.8655 26.8835 88.2219 26.9606 88.6098C27.0378 88.9978 26.9982 89.3999 26.8468 89.7654C26.6955 90.1308 26.4391 90.4432 26.1102 90.6629C25.7813 90.8827 25.3946 91 24.9991 91C24.4686 91 23.9599 90.7893 23.5849 90.4142C23.2098 90.0391 22.9991 89.5304 22.9991 89ZM31.9091 95C31.0156 93.4718 29.6405 92.283 27.9991 91.62C28.5082 91.0427 28.84 90.3307 28.9545 89.5694C29.0691 88.8082 28.9615 88.0301 28.6448 87.3285C28.3281 86.6269 27.8157 86.0316 27.169 85.614C26.5223 85.1964 25.7689 84.9742 24.9991 84.9742C24.2293 84.9742 23.4758 85.1964 22.8292 85.614C22.1825 86.0316 21.67 86.6269 21.3533 87.3285C21.0366 88.0301 20.9291 88.8082 21.0436 89.5694C21.1581 90.3307 21.4899 91.0427 21.9991 91.62C20.3577 92.283 18.9825 93.4718 18.0891 95C17.377 93.7871 17.0008 92.4065 16.9991 91C16.9991 88.8783 17.8419 86.8434 19.3422 85.3431C20.8425 83.8429 22.8773 83 24.9991 83C27.1208 83 29.1556 83.8429 30.6559 85.3431C32.1562 86.8434 32.9991 88.8783 32.9991 91C32.9974 92.4065 32.6211 93.7871 31.9091 95Z" fill="#DCEEFE"/>
<rect y="132" width="50" height="50" rx="4" fill="#DCEEFE"/>
<path d="M28.71 157.71C29.6904 156.939 30.406 155.881 30.7572 154.684C31.1085 153.487 31.0779 152.21 30.6698 151.032C30.2617 149.853 29.4963 148.831 28.4801 148.107C27.4639 147.383 26.2474 146.995 25 146.995C23.7525 146.995 22.5361 147.383 21.5199 148.107C20.5037 148.831 19.7383 149.853 19.3302 151.032C18.9221 152.21 18.8915 153.487 19.2428 154.684C19.594 155.881 20.3096 156.939 21.29 157.71C19.6101 158.383 18.1443 159.499 17.0489 160.94C15.9535 162.381 15.2696 164.091 15.07 165.89C15.0556 166.021 15.0671 166.154 15.104 166.281C15.1409 166.408 15.2025 166.526 15.2851 166.629C15.452 166.838 15.6948 166.971 15.96 167C16.2252 167.029 16.4912 166.952 16.6993 166.785C16.9075 166.618 17.0408 166.375 17.07 166.11C17.2896 164.155 18.2217 162.35 19.6882 161.039C21.1547 159.728 23.0529 159.003 25.02 159.003C26.9871 159.003 28.8852 159.728 30.3518 161.039C31.8183 162.35 32.7504 164.155 32.97 166.11C32.9972 166.356 33.1144 166.583 33.2991 166.747C33.4838 166.911 33.7228 167.002 33.97 167H34.08C34.3421 166.97 34.5817 166.837 34.7466 166.631C34.9114 166.425 34.9881 166.162 34.96 165.9C34.7595 164.096 34.0719 162.381 32.9708 160.938C31.8698 159.496 30.3969 158.38 28.71 157.71ZM25 157C24.2089 157 23.4355 156.766 22.7777 156.326C22.1199 155.886 21.6072 155.262 21.3045 154.531C21.0017 153.8 20.9225 152.996 21.0769 152.22C21.2312 151.444 21.6122 150.731 22.1716 150.172C22.731 149.612 23.4437 149.231 24.2196 149.077C24.9956 148.923 25.7998 149.002 26.5307 149.305C27.2616 149.607 27.8863 150.12 28.3259 150.778C28.7654 151.436 29 152.209 29 153C29 154.061 28.5786 155.078 27.8284 155.829C27.0783 156.579 26.0609 157 25 157Z" fill="#424C5D"/>
<path d="M33.4898 213.52C33.4841 213.494 33.4841 213.466 33.4898 213.44C33.485 213.417 33.485 213.393 33.4898 213.37V213.28L33.4298 213.13C33.4054 213.089 33.3751 213.052 33.3398 213.02L33.2498 212.94H33.1998L29.2598 210.45L25.5398 208.15C25.4538 208.082 25.3553 208.031 25.2498 208H25.1698C25.0804 207.985 24.9892 207.985 24.8998 208H24.7998C24.6837 208.026 24.5723 208.07 24.4698 208.13L16.9998 212.78L16.9098 212.85L16.8198 212.93L16.7198 213L16.6698 213.06L16.6098 213.21V213.3V213.36C16.6001 213.426 16.6001 213.494 16.6098 213.56V222.29C16.6095 222.46 16.6525 222.627 16.7347 222.776C16.8169 222.925 16.9357 223.05 17.0798 223.14L24.5798 227.78L24.7298 227.84H24.8098C24.979 227.894 25.1606 227.894 25.3298 227.84H25.4098L25.5598 227.78L32.9998 223.21C33.1439 223.12 33.2627 222.995 33.345 222.846C33.4272 222.697 33.4702 222.53 33.4698 222.36V213.63C33.4698 213.63 33.4898 213.56 33.4898 213.52ZM24.9998 210.17L26.7798 211.27L21.1898 214.73L19.3998 213.63L24.9998 210.17ZM23.9998 225.17L18.4998 221.81V215.42L23.9998 218.82V225.17ZM24.9998 217.06L23.0898 215.91L28.6798 212.44L30.5998 213.63L24.9998 217.06ZM31.4998 221.78L25.9998 225.2V218.82L31.4998 215.42V221.78Z" fill="#DCEEFE"/>
<path d="M29 276H21C20.7348 276 20.4804 276.105 20.2929 276.293C20.1054 276.48 20 276.735 20 277C20 277.265 20.1054 277.52 20.2929 277.707C20.4804 277.895 20.7348 278 21 278H29C29.2652 278 29.5196 277.895 29.7071 277.707C29.8946 277.52 30 277.265 30 277C30 276.735 29.8946 276.48 29.7071 276.293C29.5196 276.105 29.2652 276 29 276ZM29 272H23C22.7348 272 22.4804 272.105 22.2929 272.293C22.1054 272.48 22 272.735 22 273C22 273.265 22.1054 273.52 22.2929 273.707C22.4804 273.895 22.7348 274 23 274H29C29.2652 274 29.5196 273.895 29.7071 273.707C29.8946 273.52 30 273.265 30 273C30 272.735 29.8946 272.48 29.7071 272.293C29.5196 272.105 29.2652 272 29 272ZM33 266H30V265C30 264.735 29.8946 264.48 29.7071 264.293C29.5196 264.105 29.2652 264 29 264C28.7348 264 28.4804 264.105 28.2929 264.293C28.1054 264.48 28 264.735 28 265V266H26V265C26 264.735 25.8946 264.48 25.7071 264.293C25.5196 264.105 25.2652 264 25 264C24.7348 264 24.4804 264.105 24.2929 264.293C24.1054 264.48 24 264.735 24 265V266H22V265C22 264.735 21.8946 264.48 21.7071 264.293C21.5196 264.105 21.2652 264 21 264C20.7348 264 20.4804 264.105 20.2929 264.293C20.1054 264.48 20 264.735 20 265V266H17C16.7348 266 16.4804 266.105 16.2929 266.293C16.1054 266.48 16 266.735 16 267V281C16 281.796 16.3161 282.559 16.8787 283.121C17.4413 283.684 18.2044 284 19 284H31C31.7956 284 32.5587 283.684 33.1213 283.121C33.6839 282.559 34 281.796 34 281V267C34 266.735 33.8946 266.48 33.7071 266.293C33.5196 266.105 33.2652 266 33 266ZM32 281C32 281.265 31.8946 281.52 31.7071 281.707C31.5196 281.895 31.2652 282 31 282H19C18.7348 282 18.4804 281.895 18.2929 281.707C18.1054 281.52 18 281.265 18 281V268H20V269C20 269.265 20.1054 269.52 20.2929 269.707C20.4804 269.895 20.7348 270 21 270C21.2652 270 21.5196 269.895 21.7071 269.707C21.8946 269.52 22 269.265 22 269V268H24V269C24 269.265 24.1054 269.52 24.2929 269.707C24.4804 269.895 24.7348 270 25 270C25.2652 270 25.5196 269.895 25.7071 269.707C25.8946 269.52 26 269.265 26 269V268H28V269C28 269.265 28.1054 269.52 28.2929 269.707C28.4804 269.895 28.7348 270 29 270C29.2652 270 29.5196 269.895 29.7071 269.707C29.8946 269.52 30 269.265 30 269V268H32V281Z" fill="#DCEEFE"/>
<path d="M32 330H25V323C25 322.4 24.6 322 24 322C19 322 15 326 15 331C15 336 19 340 24 340C29 340 33 336 33 331C33 330.4 32.6 330 32 330ZM25 337.9C21.2 338.5 17.6 335.8 17.1 332C16.5 328.2 19.2 324.6 23 324.1V331C23 331.6 23.4 332 24 332H30.9C30.5 335.1 28.1 337.5 25 337.9ZM28 320C27.4 320 27 320.4 27 321V327C27 327.6 27.4 328 28 328H34C34.6 328 35 327.6 35 327C35 323.1 31.9 320 28 320ZM29 326V322.1C31 322.5 32.5 324 32.9 326H29Z" fill="#DCEEFE"/>
<path d="M34 388H33V377C33 376.735 32.8946 376.48 32.7071 376.293C32.5196 376.105 32.2652 376 32 376H18C17.7348 376 17.4804 376.105 17.2929 376.293C17.1054 376.48 17 376.735 17 377V388H16C15.7348 388 15.4804 388.105 15.2929 388.293C15.1054 388.48 15 388.735 15 389C15 389.265 15.1054 389.52 15.2929 389.707C15.4804 389.895 15.7348 390 16 390H24V391.15L19.45 394.15C19.2633 394.266 19.1199 394.439 19.0418 394.644C18.9637 394.85 18.9552 395.075 19.0178 395.285C19.0804 395.496 19.2104 395.68 19.3879 395.809C19.5654 395.938 19.7805 396.005 20 396C20.1966 396.002 20.389 395.943 20.55 395.83L24 393.55V395C24 395.265 24.1054 395.52 24.2929 395.707C24.4804 395.895 24.7348 396 25 396C25.2652 396 25.5196 395.895 25.7071 395.707C25.8946 395.52 26 395.265 26 395V393.55L29.45 395.83C29.611 395.943 29.8034 396.002 30 396C30.2136 395.998 30.4212 395.928 30.5921 395.8C30.7631 395.672 30.8885 395.492 30.95 395.288C31.0115 395.083 31.0058 394.864 30.9338 394.663C30.8619 394.462 30.7273 394.289 30.55 394.17L26 391.17V390H34C34.2652 390 34.5196 389.895 34.7071 389.707C34.8946 389.52 35 389.265 35 389C35 388.735 34.8946 388.48 34.7071 388.293C34.5196 388.105 34.2652 388 34 388ZM31 388H19V378H31V388ZM22 386C22.1647 385.999 22.3267 385.958 22.4715 385.879C22.6162 385.801 22.7394 385.688 22.83 385.55L24.16 383.55L25.29 384.69C25.3949 384.796 25.5221 384.876 25.6622 384.927C25.8024 384.977 25.9519 384.995 26.1 384.98C26.2474 384.964 26.3894 384.915 26.5157 384.837C26.6419 384.759 26.7493 384.654 26.83 384.53L28.83 381.53C28.9478 381.31 28.9793 381.055 28.9185 380.813C28.8577 380.572 28.7089 380.361 28.5012 380.224C28.2935 380.086 28.0419 380.031 27.7956 380.069C27.5494 380.107 27.3263 380.236 27.17 380.43L25.84 382.43L24.71 381.29C24.6051 381.184 24.4779 381.104 24.3378 381.053C24.1976 381.003 24.0481 380.985 23.9 381C23.7526 381.016 23.6106 381.065 23.4843 381.143C23.3581 381.221 23.2507 381.326 23.17 381.45L21.17 384.45C21.0253 384.67 20.9735 384.939 21.0259 385.198C21.0784 385.456 21.2308 385.683 21.45 385.83C21.611 385.943 21.8034 386.002 22 386Z" fill="#DCEEFE"/>
<path d="M32.8999 442.66C32.7396 442.477 32.6512 442.243 32.6512 442C32.6512 441.757 32.7396 441.522 32.8999 441.34L34.1799 439.9C34.3209 439.743 34.4085 439.545 34.4301 439.334C34.4516 439.124 34.4061 438.913 34.2999 438.73L32.2999 435.27C32.1948 435.087 32.0348 434.943 31.8426 434.857C31.6505 434.77 31.4361 434.747 31.2299 434.79L29.3499 435.17C29.1107 435.219 28.8616 435.179 28.6498 435.058C28.4379 434.936 28.2779 434.741 28.1999 434.51L27.5899 432.68C27.5228 432.481 27.395 432.309 27.2245 432.187C27.0541 432.065 26.8495 431.999 26.6399 432H22.6399C22.4218 431.989 22.206 432.049 22.0255 432.172C21.8449 432.294 21.7095 432.473 21.6399 432.68L21.0799 434.51C21.0019 434.741 20.8419 434.936 20.63 435.058C20.4181 435.179 20.1691 435.219 19.9299 435.17L17.9999 434.79C17.8044 434.762 17.6052 434.793 17.4272 434.879C17.2493 434.964 17.1006 435.1 16.9999 435.27L14.9999 438.73C14.8911 438.911 14.8421 439.121 14.8601 439.331C14.878 439.541 14.962 439.74 15.0999 439.9L16.3699 441.34C16.5302 441.522 16.6186 441.757 16.6186 442C16.6186 442.243 16.5302 442.477 16.3699 442.66L15.0999 444.1C14.962 444.259 14.878 444.459 14.8601 444.669C14.8421 444.879 14.8911 445.089 14.9999 445.27L16.9999 448.73C17.105 448.912 17.265 449.057 17.4571 449.143C17.6493 449.229 17.8637 449.253 18.0699 449.21L19.9499 448.83C20.1891 448.78 20.4381 448.82 20.65 448.942C20.8619 449.063 21.0219 449.258 21.0999 449.49L21.7099 451.32C21.7795 451.527 21.9149 451.705 22.0955 451.828C22.276 451.951 22.4918 452.011 22.7099 452H26.7099C26.9195 452 27.1241 451.935 27.2945 451.813C27.465 451.691 27.5928 451.519 27.6599 451.32L28.2699 449.49C28.3479 449.258 28.5079 449.063 28.7198 448.942C28.9316 448.82 29.1807 448.78 29.4199 448.83L31.2999 449.21C31.5061 449.253 31.7205 449.229 31.9126 449.143C32.1048 449.057 32.2648 448.912 32.3699 448.73L34.3699 445.27C34.4761 445.087 34.5216 444.876 34.5001 444.665C34.4785 444.455 34.3909 444.257 34.2499 444.1L32.8999 442.66ZM31.4099 444L32.2099 444.9L30.9299 447.12L29.7499 446.88C29.0297 446.733 28.2805 446.855 27.6445 447.224C27.0085 447.592 26.53 448.182 26.2999 448.88L25.9199 450H23.3599L22.9999 448.86C22.7698 448.162 22.2913 447.572 21.6553 447.204C21.0193 446.835 20.2701 446.713 19.5499 446.86L18.3699 447.1L17.0699 444.89L17.8699 443.99C18.3619 443.44 18.6338 442.728 18.6338 441.99C18.6338 441.252 18.3619 440.54 17.8699 439.99L17.0699 439.09L18.3499 436.89L19.5299 437.13C20.2501 437.277 20.9993 437.155 21.6353 436.786C22.2713 436.417 22.7498 435.828 22.9799 435.13L23.3599 434H25.9199L26.2999 435.14C26.53 435.838 27.0085 436.427 27.6445 436.796C28.2805 437.165 29.0297 437.287 29.7499 437.14L30.9299 436.9L32.2099 439.12L31.4099 440.02C30.9235 440.569 30.6549 441.277 30.6549 442.01C30.6549 442.743 30.9235 443.451 31.4099 444ZM24.6399 438C23.8488 438 23.0754 438.234 22.4176 438.674C21.7598 439.114 21.2471 439.738 20.9444 440.469C20.6416 441.2 20.5624 442.004 20.7168 442.78C20.8711 443.556 21.2521 444.269 21.8115 444.828C22.3709 445.388 23.0836 445.769 23.8595 445.923C24.6355 446.077 25.4397 445.998 26.1706 445.695C26.9015 445.393 27.5262 444.88 27.9658 444.222C28.4053 443.564 28.6399 442.791 28.6399 442C28.6399 440.939 28.2185 439.922 27.4683 439.171C26.7182 438.421 25.7008 438 24.6399 438ZM24.6399 444C24.2443 444 23.8577 443.883 23.5288 443.663C23.1999 443.443 22.9435 443.131 22.7921 442.765C22.6408 442.4 22.6012 441.998 22.6783 441.61C22.7555 441.222 22.946 440.865 23.2257 440.586C23.5054 440.306 23.8618 440.115 24.2497 440.038C24.6377 439.961 25.0398 440.001 25.4053 440.152C25.7707 440.304 26.0831 440.56 26.3028 440.889C26.5226 441.218 26.6399 441.604 26.6399 442C26.6399 442.53 26.4292 443.039 26.0541 443.414C25.679 443.789 25.1703 444 24.6399 444Z" fill="#DCEEFE"/>
</svg>
