<svg width="40" height="40" viewBox="0 0 40 40" fill="none" xmlns="http://www.w3.org/2000/svg">
<circle cx="20" cy="20" r="19.5" fill="white" stroke="#EAEBEB"/>
<path d="M23.7875 24.8516H16.2078V29.375H23.7875V24.8516Z" fill="#EDD8B9"/>
<path d="M23.8954 27.3782H16.1001V28.9204H23.8954V27.3782Z" fill="#F1786B"/>
<path d="M18.8657 28.9204H16.1001V27.3782H18.8657L18.1017 28.1516L18.8657 28.9204Z" fill="#D45947"/>
<path d="M14.6609 14.3937C15.5152 14.3937 16.2078 13.7305 16.2078 12.9124C16.2078 12.0943 15.5152 11.4312 14.6609 11.4312C13.8066 11.4312 13.114 12.0943 13.114 12.9124C13.114 13.7305 13.8066 14.3937 14.6609 14.3937Z" fill="#BA6E3A"/>
<path d="M25.175 14.3937C26.0294 14.3937 26.7219 13.7305 26.7219 12.9124C26.7219 12.0943 26.0294 11.4312 25.175 11.4312C24.3207 11.4312 23.6282 12.0943 23.6282 12.9124C23.6282 13.7305 24.3207 14.3937 25.175 14.3937Z" fill="#BA6E3A"/>
<path d="M27.772 20.2157C27.8751 19.7188 27.9267 19.2079 27.9267 18.6829C27.9267 14.3844 24.3782 10.9016 20.0001 10.9016C15.622 10.9016 12.0735 14.3844 12.0735 18.6829C12.0735 19.2079 12.1251 19.7188 12.2282 20.2157C11.9798 20.7782 11.8345 21.4063 11.8345 22.0719C11.8345 24.5329 13.761 26.525 16.1423 26.525C16.7376 26.525 17.3095 26.3985 17.8251 26.1735C18.5142 26.3657 19.2454 26.4688 20.0001 26.4688C20.7548 26.4688 21.4813 26.3657 22.1751 26.1735C22.6907 26.3985 23.2626 26.525 23.8579 26.525C26.2345 26.525 28.1657 24.5329 28.1657 22.0719C28.161 21.411 28.0204 20.7829 27.772 20.2157Z" fill="#FDEACC"/>
<path d="M13.7797 13.864C12.711 15.1906 12.0782 16.864 12.0782 18.6875C12.0782 19.2125 12.1297 19.7234 12.2329 20.2203C11.9844 20.7828 11.8391 21.4109 11.8391 22.0765C11.8391 22.4703 11.8907 22.8546 11.9844 23.2203C12.4157 23.2953 12.8704 23.3328 13.3297 23.3328C16.7235 23.3328 19.4797 21.2093 19.4797 18.5937C19.475 16.0859 16.9625 14.0421 13.7797 13.864Z" fill="#BA6E3A"/>
<path d="M17.1969 23.9891C17.7969 24.6688 18.8282 25.1188 20 25.1188C21.1719 25.1188 22.2032 24.6688 22.8032 23.9891C22.1844 24.4859 17.8157 24.4859 17.1969 23.9891ZM17.7594 15.5563C17.7594 15.5563 15.9547 14.2625 14.4407 16.3906C14.4454 16.3906 15.4157 13.4984 17.7594 15.5563ZM22.2407 15.5563C22.2407 15.5563 24.0454 14.2625 25.5594 16.3906C25.5547 16.3906 24.5844 13.4984 22.2407 15.5563Z" fill="#445C6C"/>
<path d="M23.825 21.0687C24.8658 21.0687 25.7094 20.074 25.7094 18.8469C25.7094 17.6198 24.8658 16.625 23.825 16.625C22.7843 16.625 21.9407 17.6198 21.9407 18.8469C21.9407 20.074 22.7843 21.0687 23.825 21.0687Z" fill="#E8CFAA"/>
<path d="M16.3157 20.7219C17.2865 20.7219 18.0735 19.8825 18.0735 18.8469C18.0735 17.8114 17.2865 16.9719 16.3157 16.9719C15.3449 16.9719 14.5579 17.8114 14.5579 18.8469C14.5579 19.8825 15.3449 20.7219 16.3157 20.7219Z" fill="white"/>
<path d="M16.4938 20.3609C17.1876 20.3609 17.75 19.7607 17.75 19.0203C17.75 18.2799 17.1876 17.6797 16.4938 17.6797C15.8 17.6797 15.2375 18.2799 15.2375 19.0203C15.2375 19.7607 15.8 20.3609 16.4938 20.3609Z" fill="#B86D36"/>
<path d="M16.611 19.9109C17.0718 19.9109 17.4454 19.5121 17.4454 19.0203C17.4454 18.5284 17.0718 18.1296 16.611 18.1296C16.1502 18.1296 15.7766 18.5284 15.7766 19.0203C15.7766 19.5121 16.1502 19.9109 16.611 19.9109Z" fill="#445C6C"/>
<path d="M16.9625 18.6079C17.1101 18.6079 17.2297 18.4882 17.2297 18.3407C17.2297 18.1931 17.1101 18.0735 16.9625 18.0735C16.8149 18.0735 16.6953 18.1931 16.6953 18.3407C16.6953 18.4882 16.8149 18.6079 16.9625 18.6079Z" fill="white"/>
<path d="M16.1093 19.9109C16.1947 19.9109 16.264 19.8417 16.264 19.7563C16.264 19.6708 16.1947 19.6016 16.1093 19.6016C16.0238 19.6016 15.9546 19.6708 15.9546 19.7563C15.9546 19.8417 16.0238 19.9109 16.1093 19.9109Z" fill="white"/>
<path d="M23.825 20.7219C24.7958 20.7219 25.5828 19.8825 25.5828 18.8469C25.5828 17.8114 24.7958 16.9719 23.825 16.9719C22.8541 16.9719 22.0671 17.8114 22.0671 18.8469C22.0671 19.8825 22.8541 20.7219 23.825 20.7219Z" fill="white"/>
<path d="M23.6515 20.3609C24.3453 20.3609 24.9078 19.7607 24.9078 19.0203C24.9078 18.2799 24.3453 17.6797 23.6515 17.6797C22.9577 17.6797 22.3953 18.2799 22.3953 19.0203C22.3953 19.7607 22.9577 20.3609 23.6515 20.3609Z" fill="#B86D36"/>
<path d="M23.5343 19.9109C23.9951 19.9109 24.3687 19.5121 24.3687 19.0203C24.3687 18.5284 23.9951 18.1296 23.5343 18.1296C23.0735 18.1296 22.7 18.5284 22.7 19.0203C22.7 19.5121 23.0735 19.9109 23.5343 19.9109Z" fill="#445C6C"/>
<path d="M24.1202 18.6079C24.2678 18.6079 24.3874 18.4882 24.3874 18.3407C24.3874 18.1931 24.2678 18.0735 24.1202 18.0735C23.9727 18.0735 23.853 18.1931 23.853 18.3407C23.853 18.4882 23.9727 18.6079 24.1202 18.6079Z" fill="white"/>
<path d="M23.2672 19.9109C23.3527 19.9109 23.4219 19.8417 23.4219 19.7563C23.4219 19.6708 23.3527 19.6016 23.2672 19.6016C23.1818 19.6016 23.1125 19.6708 23.1125 19.7563C23.1125 19.8417 23.1818 19.9109 23.2672 19.9109Z" fill="white"/>
<path d="M20 23.0375C20.8828 23.0375 21.5985 22.5317 21.5985 21.9078C21.5985 21.2839 20.8828 20.7781 20 20.7781C19.1173 20.7781 18.4016 21.2839 18.4016 21.9078C18.4016 22.5317 19.1173 23.0375 20 23.0375Z" fill="#E39A61"/>
<path d="M15.6827 12.4392C15.6827 12.4392 14.9468 11.872 14.5484 12.4392C14.1499 13.0063 13.6249 15.9501 13.5265 16.747C13.2124 19.311 11.7452 21.5657 10.4093 21.2798C9.07337 20.9985 9.889 19.2407 9.07337 17.3704C8.25775 15.5001 7.18431 13.5173 9.45306 12.7813C11.7218 12.0454 13.6999 10.5688 14.4968 10.6251C15.2937 10.6813 16.4796 11.7595 16.4796 11.7595L15.6827 12.4392Z" fill="#E39A61"/>
<path d="M9.79526 17.647C8.97963 15.7767 7.90151 13.7939 10.1656 13.0579C12.439 12.3173 14.4218 10.8454 15.214 10.9017C15.2468 10.9017 15.2796 10.911 15.3124 10.9157C15.0359 10.761 14.7453 10.6439 14.4968 10.6251C13.6999 10.5689 11.7171 12.0407 9.45307 12.7814C7.18901 13.522 8.26245 15.5001 9.07807 17.3704C9.8937 19.2407 9.07807 20.9985 10.414 21.2798C10.489 21.2939 10.564 21.2985 10.639 21.3032C10.0249 20.6892 10.4796 19.2079 9.79526 17.647Z" fill="#F7B284"/>
<path d="M24.3171 12.4392C24.3171 12.4392 25.0531 11.872 25.4515 12.4392C25.85 13.0064 26.375 15.9501 26.4734 16.747C26.7875 19.311 28.2546 21.5657 29.5906 21.2798C30.9265 20.9985 30.1109 19.2407 30.9265 17.3704C31.7421 15.5001 32.8203 13.5173 30.5562 12.7814C28.2828 12.0407 26.3 10.5689 25.5031 10.6251C24.7062 10.6814 23.5203 11.7595 23.5203 11.7595L24.3171 12.4392Z" fill="#E39A61"/>
<path d="M19.3344 28.3578C19.4483 28.3578 19.5407 28.2655 19.5407 28.1516C19.5407 28.0377 19.4483 27.9453 19.3344 27.9453C19.2205 27.9453 19.1282 28.0377 19.1282 28.1516C19.1282 28.2655 19.2205 28.3578 19.3344 28.3578Z" fill="#D45947"/>
<path d="M20.6608 28.3578C20.7747 28.3578 20.8671 28.2655 20.8671 28.1516C20.8671 28.0377 20.7747 27.9453 20.6608 27.9453C20.5469 27.9453 20.4546 28.0377 20.4546 28.1516C20.4546 28.2655 20.5469 28.3578 20.6608 28.3578Z" fill="#D45947"/>
<path d="M21.9829 28.3578C22.0968 28.3578 22.1891 28.2655 22.1891 28.1516C22.1891 28.0377 22.0968 27.9453 21.9829 27.9453C21.869 27.9453 21.7766 28.0377 21.7766 28.1516C21.7766 28.2655 21.869 28.3578 21.9829 28.3578Z" fill="#D45947"/>
<path d="M22.503 29.075H21.4483C21.3171 29.075 21.2046 28.9672 21.2046 28.8312V27.4625C21.2046 27.3313 21.3124 27.2188 21.4483 27.2188H22.503C22.6343 27.2188 22.7468 27.3266 22.7468 27.4625V28.8312C22.7421 28.9672 22.6343 29.075 22.503 29.075ZM21.4483 27.3406C21.378 27.3406 21.3218 27.3969 21.3218 27.4672V28.8359C21.3218 28.9062 21.378 28.9625 21.4483 28.9625H22.503C22.5733 28.9625 22.6296 28.9062 22.6296 28.8359V27.4672C22.6296 27.3969 22.5733 27.3406 22.503 27.3406H21.4483Z" fill="#445C6C"/>
<path d="M22.7938 28.0391H22.0251C21.9642 28.0391 21.9126 28.0906 21.9126 28.1516C21.9126 28.2125 21.9642 28.2641 22.0251 28.2641H22.7938C22.8548 28.2641 22.9063 28.2125 22.9063 28.1516C22.9063 28.0906 22.8548 28.0391 22.7938 28.0391Z" fill="#445C6C"/>
<path d="M30.2047 17.647C31.0203 15.7767 32.0984 13.7939 29.8344 13.0579C27.5609 12.3173 25.5781 10.8454 24.7859 10.9017C24.7531 10.9017 24.7203 10.911 24.6875 10.9157C24.9641 10.761 25.2547 10.6439 25.5031 10.6251C26.2953 10.5689 28.2781 12.0407 30.5469 12.7767C32.8156 13.5126 31.7375 15.4954 30.9172 17.3657C30.1016 19.236 30.9172 20.9939 29.5812 21.2751C29.5062 21.2892 29.4313 21.2939 29.3563 21.2985C29.975 20.6892 29.5203 19.2079 30.2047 17.647Z" fill="#F7B284"/>
</svg>
