<svg width="64" height="64" viewBox="0 0 64 64" fill="none" xmlns="http://www.w3.org/2000/svg">
<path d="M0 4C0 1.79086 1.79086 0 4 0H64V64H4C1.79086 64 0 62.2091 0 60V4Z" fill="white"/>
<path d="M36.7198 31.0535L29.1731 23.5201C29.0492 23.3952 28.9017 23.296 28.7392 23.2283C28.5768 23.1606 28.4025 23.1257 28.2265 23.1257C28.0505 23.1257 27.8762 23.1606 27.7137 23.2283C27.5512 23.296 27.4038 23.3952 27.2798 23.5201C27.0315 23.7699 26.8921 24.1079 26.8921 24.4601C26.8921 24.8124 27.0315 25.1503 27.2798 25.4001L33.8798 32.0668L27.2798 38.6668C27.0315 38.9166 26.8921 39.2545 26.8921 39.6068C26.8921 39.959 27.0315 40.297 27.2798 40.5468C27.4033 40.6728 27.5506 40.773 27.7131 40.8417C27.8756 40.9103 28.0501 40.9461 28.2265 40.9468C28.4029 40.9461 28.5774 40.9103 28.7399 40.8417C28.9024 40.773 29.0497 40.6728 29.1731 40.5468L36.7198 33.0135C36.8552 32.8886 36.9632 32.7371 37.037 32.5684C37.1109 32.3997 37.1491 32.2176 37.1491 32.0335C37.1491 31.8493 37.1109 31.6672 37.037 31.4985C36.9632 31.3299 36.8552 31.1783 36.7198 31.0535Z" fill="#262B35"/>
</svg>
