<svg width="17" height="17" viewBox="0 0 17 17" fill="none" xmlns="http://www.w3.org/2000/svg">
<path d="M9.99696 8.49812L16.6858 1.81989C16.8857 1.61996 16.9981 1.34881 16.9981 1.06607C16.9981 0.783328 16.8857 0.51217 16.6858 0.312244C16.4859 0.112317 16.2147 0 15.932 0C15.6493 0 15.3781 0.112317 15.1782 0.312244L8.49994 7.00109L1.8217 0.312244C1.62178 0.112317 1.35062 2.51028e-07 1.06788 2.53134e-07C0.78514 2.55241e-07 0.513982 0.112317 0.314056 0.312244C0.114129 0.51217 0.00181219 0.783328 0.00181219 1.06607C0.00181219 1.34881 0.114129 1.61996 0.314056 1.81989L7.00291 8.49812L0.314056 15.1764C0.214542 15.2751 0.135556 15.3925 0.0816541 15.5219C0.0277518 15.6512 0 15.79 0 15.9302C0 16.0703 0.0277518 16.2091 0.0816541 16.3385C0.135556 16.4679 0.214542 16.5853 0.314056 16.684C0.412757 16.7835 0.530184 16.8625 0.659565 16.9164C0.788946 16.9703 0.927719 16.9981 1.06788 16.9981C1.20804 16.9981 1.34681 16.9703 1.47619 16.9164C1.60557 16.8625 1.723 16.7835 1.8217 16.684L8.49994 9.99515L15.1782 16.684C15.2769 16.7835 15.3943 16.8625 15.5237 16.9164C15.6531 16.9703 15.7918 16.9981 15.932 16.9981C16.0722 16.9981 16.2109 16.9703 16.3403 16.9164C16.4697 16.8625 16.5871 16.7835 16.6858 16.684C16.7853 16.5853 16.8643 16.4679 16.9182 16.3385C16.9721 16.2091 16.9999 16.0703 16.9999 15.9302C16.9999 15.79 16.9721 15.6512 16.9182 15.5219C16.8643 15.3925 16.7853 15.2751 16.6858 15.1764L9.99696 8.49812Z" fill="#424C5D"/>
</svg>
