<svg width="24" height="24" viewBox="0 0 24 24" fill="none" xmlns="http://www.w3.org/2000/svg">
<path d="M12 11C12.5523 11 13 11.4477 13 12V13H14C14.5523 13 15 13.4477 15 14C15 14.5523 14.5523 15 14 15H13V16C13 16.5523 12.5523 17 12 17C11.4477 17 11 16.5523 11 16V15H10C9.44772 15 9 14.5523 9 14C9 13.4477 9.44772 13 10 13H11V12C11 11.4477 11.4477 11 12 11Z" fill="#424C5D"/>
<path fill-rule="evenodd" clip-rule="evenodd" d="M12 2C12.5523 2 13 2.44772 13 3H16C16 2.44772 16.4477 2 17 2C17.5523 2 18 2.44772 18 3C20.2091 3 22 4.79086 22 7V18C22 20.2091 20.2091 22 18 22H6C3.79086 22 2 20.2091 2 18V7C2 4.79086 3.79086 3 6 3C6 2.44772 6.44772 2 7 2C7.55228 2 8 2.44772 8 3H11C11 2.44772 11.4477 2 12 2ZM4 9V18C4 19.1046 4.89543 20 6 20H18C19.1046 20 20 19.1046 20 18V9H4ZM20 7C20 5.89543 19.1046 5 18 5C18 5.55228 17.5523 6 17 6C16.4477 6 16 5.55228 16 5H13C13 5.55228 12.5523 6 12 6C11.4477 6 11 5.55228 11 5H8C8 5.55228 7.55228 6 7 6C6.44772 6 6 5.55228 6 5C4.89543 5 4 5.89543 4 7H20Z" fill="#424C5D"/>
</svg>
